<svg width="58" height="68" viewBox="0 0 58 68" fill="none" xmlns="http://www.w3.org/2000/svg">
<g clip-path="url(#clip0_436_2051)">
<path d="M37.4394 67.8826H38.234L51.2045 61.1452L51.4204 60.8282V7.05035L51.2045 6.73176L38.234 0H37.4297L37.4394 67.8826Z" fill="#5294CF"/>
<path d="M20.5604 67.8826H19.7547L6.79533 61.1452L6.53234 60.6753L6.39893 7.32424L6.79533 6.73176L19.7547 0H20.5704L20.5604 67.8826Z" fill="#1F5B98"/>
<path d="M19.7773 0H38.2215V67.8826H19.7773V0Z" fill="#2D72B8"/>
<path d="M57.9941 32.4164L57.5558 32.3155L51.2977 31.7093L51.2048 31.7573L38.2228 31.2181H19.7777L6.79545 31.7573V21.4741L6.78186 21.4816L6.79545 21.4515L19.7777 18.3268H38.2228L51.2048 21.4515L55.9772 24.0865V22.3924L57.9941 22.1632L57.7853 21.7402L51.3994 16.9969L51.2048 17.0625L38.2228 12.8839H19.7777L6.79545 17.0625V6.73193L0.00634766 14.9938V22.2093L0.0588991 22.1698L2.02323 22.3924V24.1213L0.00634766 25.2425V32.4221L0.0588991 32.4164L2.02323 32.4465V35.4599L0.328452 35.4863L0.00634766 35.4543V42.6366L2.02323 43.7632V45.5122L0.0908376 45.7338L0.00634766 45.6679V52.8823L6.79545 61.1453V50.8157L19.7777 54.9943H38.2228L51.2431 50.8035L51.4161 50.8823L57.718 46.2089L57.9941 45.7432L55.9772 45.5122V43.7983L55.7129 43.6886L51.3994 46.1039L51.2431 46.4428L38.2228 49.5493V49.5531H19.7777V49.5493L6.79545 46.4296V36.1086L19.7777 36.6461V36.6592H38.2228L51.2048 36.1086L51.5004 36.2498L57.5662 35.7072L57.9941 35.4901L55.9772 35.4599V32.4465L57.9941 32.4164" fill="#1A476F"/>
<path d="M51.2046 50.8157V61.1453L57.9939 52.8823V45.715L51.2438 50.8035L51.2046 50.8157ZM51.2046 46.4522L51.2438 46.4428L57.9939 42.6715V35.4599L51.2046 36.1086V46.4522M51.2438 21.4609L51.2046 21.4515V31.7573L57.9939 32.4164V25.2084L51.2438 21.4609ZM51.2438 17.103L57.9939 22.1632V14.9957L51.2046 6.73193V17.0625L51.2438 17.0766V17.103Z" fill="#2D72B8"/>
</g>
<defs>
<clipPath id="clip0_436_2051">
<rect width="58" height="68" fill="white"/>
</clipPath>
</defs>
</svg>
