<svg width="64" height="68" viewBox="0 0 64 68" fill="none" xmlns="http://www.w3.org/2000/svg">
<g clip-path="url(#clip0_436_2042)">
<path d="M39.2401 24.5609L32.8341 30.8934L26.8901 18.154L29.9661 10.827C30.7661 9.33953 32.0141 9.35653 32.7941 10.827L39.2401 24.5609Z" fill="#FFA000"/>
<path d="M26.89 18.1538L32.834 30.8932L8.89404 54.5551L26.89 18.1538Z" fill="#F57F17"/>
<path d="M46.246 14.8813C47.39 13.7126 48.574 14.1121 48.876 15.7675L55.108 54.2406L34.452 67.4156C33.732 67.8406 31.812 68.0233 31.812 68.0233C31.812 68.0233 30.064 67.8023 29.398 67.3858L8.89404 54.5551L46.246 14.8813Z" fill="#FFCA28"/>
<path d="M26.89 18.1538L8.896 54.5551L16.91 1.35568C17.206 -0.301823 18.094 -0.461198 18.886 1.0008L26.89 18.1538Z" fill="#FFA000"/>
</g>
<defs>
<clipPath id="clip0_436_2042">
<rect width="64" height="68" fill="white"/>
</clipPath>
</defs>
</svg>
