<svg width="64" height="68" viewBox="0 0 64 68" fill="none" xmlns="http://www.w3.org/2000/svg">
<g clip-path="url(#clip0_436_2047)">
<path d="M31.8002 0.185059L33.5082 3.59356C33.8922 4.22256 34.3082 4.77931 34.7982 5.29781C36.2282 6.81718 37.5862 8.40881 38.8062 10.1131C41.7002 14.1506 43.6522 18.6343 45.0462 23.4836C45.8822 26.4458 46.3362 29.4846 46.3702 32.5573C46.5102 41.7437 43.5462 49.6317 37.5702 56.1873C36.5942 57.2243 35.5502 58.1848 34.4302 59.0391C33.8382 59.0391 33.5582 58.5567 33.3142 58.1126C32.8602 57.2987 32.5822 56.3701 32.4422 55.4457C32.2322 54.3343 32.0942 53.2229 32.1622 52.0754V51.5569C32.1142 51.4464 31.5922 0.446434 31.8002 0.185059Z" fill="#599636"/>
<path d="M31.8001 0.0721298C31.7301 -0.0766202 31.6601 0.0360048 31.5901 0.108255C31.6241 0.852005 31.3801 1.515 30.9981 2.14825C30.5781 2.77725 30.0221 3.25963 29.4641 3.77813C26.3641 6.62988 23.9241 10.0745 21.9701 13.9271C19.3701 19.1121 18.0301 24.669 17.6501 30.5191C17.4761 32.6293 18.2781 40.0753 18.9041 42.2236C20.6121 47.9271 23.6801 52.7063 27.6541 56.8543C28.6301 57.853 29.6741 58.7795 30.7541 59.6699C31.0681 59.6699 31.1021 59.3724 31.1741 59.1514C31.3118 58.6785 31.4167 58.1955 31.4881 57.7064L32.1881 52.1516L31.8001 0.0721298Z" fill="#6CAC48"/>
<path d="M33.5079 61.2958C33.5779 60.4458 33.9619 59.7403 34.3799 59.0369C33.9599 58.852 33.6479 58.4844 33.4039 58.0743C33.1939 57.7045 33.0199 57.2604 32.8839 56.8524C32.3959 55.2969 32.2919 53.6649 32.1519 52.0754V51.1128C31.9779 51.2615 31.9419 52.5195 31.9419 52.7065C31.8401 54.3865 31.6303 56.0571 31.3139 57.7067C31.2099 58.3739 31.1399 59.039 30.7539 59.6319C30.7539 59.7063 30.7539 59.7807 30.7879 59.8912C31.4159 61.8547 31.5879 63.8543 31.6939 65.8922V66.6359C31.6939 67.5242 31.6599 67.3372 32.3539 67.6347C32.6339 67.7452 32.9459 67.7834 33.2259 68.0044C33.4359 68.0044 33.4699 67.8195 33.4699 67.6708L33.3659 66.4489V63.0404C33.3319 62.4454 33.4359 61.8547 33.5059 61.2979L33.5079 61.2958Z" fill="#C2BFBF"/>
</g>
<defs>
<clipPath id="clip0_436_2047">
<rect width="64" height="68" fill="white"/>
</clipPath>
</defs>
</svg>
