<svg width="89" height="68" viewBox="0 0 89 68" fill="none" xmlns="http://www.w3.org/2000/svg">
<path d="M0 61.9364H2.93205V44.812L7.47113 59.7459C8.00652 61.5461 8.74008 62.1929 10.1776 62.1929C11.6152 62.1929 12.3201 61.5532 12.8563 59.7459L17.3958 44.812V61.9428H20.3283V44.8403C20.3283 43.1718 19.8764 42.3649 18.9464 41.9482C16.7192 40.9195 15.2247 41.8094 14.5485 44.034L10.0942 58.7724L5.77979 44.0276C5.13141 41.8029 3.60911 40.9131 1.38193 41.9418C0.451084 42.3591 0 43.166 0 44.8338V61.9364ZM22.7654 47.9933H25.6966V57.4319C25.6692 57.9449 25.8078 59.1486 27.414 59.1852C28.2336 59.2045 33.7387 59.1852 33.79 59.1852V47.9464H36.7277C36.7407 47.9464 36.7247 63.2705 36.7251 63.3361C36.7412 67.1154 33.5553 67.9365 32.0874 68.0001H22.8293V65.0811L32.1039 65.0805C33.9908 64.7847 33.7683 63.3978 33.7683 62.9304V61.7924H27.5365C24.6371 61.7538 22.791 59.8809 22.768 57.727C22.7658 57.5341 22.8306 48.0859 22.7663 47.9927L22.7654 47.9933Z" fill="#00618A"/>
<path d="M38.9883 61.9359H47.4181C48.4045 61.9359 49.3636 61.6305 50.1254 61.1013C51.3944 60.2398 52.0145 59.0715 52.0145 57.5419V54.3722C52.0145 53.1204 51.3097 51.9527 49.9286 51.1741C49.1955 50.7562 48.2933 50.5344 47.4194 50.5344H43.8668C42.683 50.5344 42.1189 50.0059 41.9781 48.8383C41.9499 48.6994 41.9499 48.5811 41.9499 48.4486V46.4748C41.9499 46.3635 41.9499 46.2517 41.9781 46.1128C42.1189 45.2229 42.4292 44.9722 43.4722 44.8269C43.5569 44.8269 43.6695 44.7986 43.7546 44.7986H52.1279V41.9072H43.8954C42.7112 41.9072 42.0911 42.0185 41.527 42.2686C39.7775 43.0755 39.0161 44.3614 39.0161 46.586V49.1167C39.0161 51.0635 40.511 52.732 43.0194 53.121C43.3018 53.1486 43.5834 53.1763 43.865 53.1763H46.9101C47.0231 53.1763 47.136 53.1763 47.2203 53.2046C48.1503 53.3158 48.5458 53.5659 48.8274 54.0661C49.0012 54.3233 49.0534 54.5676 49.0534 54.8377V57.3684C49.0534 57.6744 48.9126 58.064 48.6305 58.3971C48.3767 58.7314 47.9539 58.9532 47.3898 59.0092C47.2768 59.0092 47.1925 59.0368 47.08 59.0368H38.9883V61.9288V61.9359ZM70.3052 56.9029C70.3052 59.8784 71.7992 61.5469 74.816 61.8806C75.0974 61.9128 75.3794 61.9313 75.6617 61.9359H83.3023V59.0439H75.6052C73.8856 59.0439 73.2368 58.4042 73.2368 56.8746V41.913H70.3047V56.9016L70.3052 56.9029ZM53.8849 57.0533V46.7435C53.8849 44.1241 55.1278 42.5354 57.5857 42.0339C57.8478 41.9785 58.1123 41.9506 58.3771 41.9503H63.9426C64.2168 41.9506 64.4906 41.9785 64.7622 42.0339C67.2201 42.5354 68.463 44.1235 68.463 46.7435V57.0533C68.463 59.1783 67.935 60.3157 66.7182 61.057L69.6064 64.9147H66.2019L63.8653 61.7938L61.5129 62.0143H58.3771C57.8404 62.0143 57.2754 61.9025 56.6536 61.6517C54.7849 60.8995 53.8854 59.4502 53.8854 57.0533H53.8849ZM57.0499 56.7961C57.0499 56.9356 57.0781 57.0745 57.1064 57.2423C57.2802 58.4408 58.0385 59.1095 59.1923 59.1095H61.8562L59.4096 55.8413H62.814L64.9434 58.6916C65.3367 58.3816 65.5953 57.9071 65.6822 57.2983C65.7104 57.1594 65.7104 57.0199 65.7104 56.8804V46.9949C65.7104 46.8837 65.7104 46.7377 65.6822 46.6047C65.5084 45.4904 64.7496 44.8494 63.6197 44.8494H59.1975C57.8938 44.8494 57.0508 45.6852 57.0508 46.9949V56.8038L57.0499 56.7961Z" fill="#E48E00"/>
<path d="M85.8812 37.1158C84.0791 37.0437 82.7019 37.2913 81.5251 38.0255C81.1905 38.2345 80.6573 38.2396 80.6025 38.8601C80.7863 39.1449 80.8154 39.5706 80.961 39.921C81.2422 40.5941 81.7172 41.4962 82.14 41.9681C82.6024 42.4844 83.0787 43.0374 83.5754 43.4855C84.4576 44.2815 85.4423 44.736 86.2915 45.5327C86.7921 46.002 87.2892 46.5935 87.7777 47.1246C88.0189 47.3869 88.1818 47.7946 88.4947 47.9585V47.8827C88.3296 47.5721 88.2875 47.1452 88.1362 46.8218L87.47 45.8361C86.8182 44.5502 85.9916 43.4334 85.1125 42.4992C84.4115 41.7547 82.8423 40.7491 82.5498 39.5416L82.4985 39.4658C82.9957 39.3822 83.5776 39.1166 84.0369 38.9353C84.8074 38.6299 85.4962 38.7084 86.2923 38.4049L87.3688 37.9497V37.6462C86.9664 37.0354 86.6795 36.2272 86.2411 35.6749C85.0938 34.2282 83.8409 32.7848 82.5516 31.5793C81.8363 30.9106 80.9523 30.4772 80.194 29.9108C79.9389 29.7205 79.4909 29.6215 79.3227 29.3039C78.9246 28.5529 78.7078 27.6 78.4005 26.732C77.7574 24.8996 77.1255 22.8975 76.5554 20.9692C76.1664 19.6544 75.9122 18.3576 75.4281 17.1777C73.101 11.5172 70.5957 8.1005 66.7158 4.74299C65.8901 4.02932 64.8963 3.74642 63.8455 3.378L62.1541 3.22626C61.8099 3.01409 61.4519 2.39042 61.1285 2.08824C59.8431 0.885911 56.546 -1.72641 55.5939 1.70246C54.9928 3.87115 56.4921 5.98711 57.0288 7.08656C57.4051 7.85811 57.8875 8.7216 58.1561 9.58894C58.333 10.1586 58.3638 10.7302 58.515 11.3333C58.8875 12.8121 59.2117 14.4342 59.6936 15.807C59.937 16.5013 60.2055 17.233 60.5136 17.8541C60.7027 18.2354 61.0264 18.4032 61.0773 18.9922C60.7609 19.648 60.7426 20.6638 60.5645 21.4945C59.7636 25.2314 60.0656 29.8754 61.2307 32.6414C61.5883 33.4901 62.4301 35.311 63.5882 34.6127C64.6008 34.0019 64.3704 32.1116 64.6646 30.4425C64.7298 30.0632 64.6898 29.7867 64.8185 29.5327V29.6086L65.7411 32.338C66.4234 33.9646 67.6358 35.6652 68.6623 36.8129C69.1946 37.4077 69.6183 38.4364 70.3023 38.7842V38.7084H70.251C70.1176 38.3997 69.909 38.2731 69.7383 38.0268C69.3371 37.4449 68.8908 36.7216 68.5593 36.0555C67.6249 34.1794 66.8001 32.1271 66.0483 29.9892C65.6894 28.9689 65.3769 27.8431 65.0749 26.8047C64.9584 26.4041 64.9597 25.7991 64.7164 25.5914C64.3848 26.3527 63.8963 26.9674 63.6399 27.8662C63.2297 29.3026 63.1767 31.054 63.025 32.871C62.9351 32.9185 62.975 32.8858 62.9224 32.9468C62.2089 32.6922 61.9577 31.605 61.6926 30.6721C61.0216 28.3124 60.8974 24.5151 61.4875 21.8006C61.6396 21.0985 62.3306 18.8854 62.0511 18.2367C61.9177 17.5892 61.4775 17.208 61.2311 16.7193C60.9269 16.1085 60.6218 15.3022 60.4111 14.5963C59.8618 12.7574 59.6054 10.6935 59.0274 8.83347C58.751 7.94491 58.2843 7.04606 57.9001 6.26165C57.4751 5.38723 56.9993 4.74171 56.6703 3.68984C56.553 3.31371 56.3939 2.71254 56.5677 2.32484C56.5843 2.21345 56.6221 2.11141 56.6766 2.03075C56.7311 1.95009 56.8001 1.89419 56.8754 1.86963C57.1727 1.53079 58.0009 1.98215 58.3104 2.17311C59.1317 2.67847 59.8183 3.1594 60.5145 3.84157C60.8491 4.16305 61.1868 4.80343 61.5905 4.9796H62.0511C62.7725 5.22521 63.5808 5.05676 64.2544 5.35895C65.446 5.89453 66.5133 6.72844 67.4833 7.63372C70.4375 10.3933 72.8524 14.3217 74.5046 19.014C74.7706 19.7682 74.8853 20.4889 75.1195 21.2888C75.5919 22.8962 76.1868 24.5634 76.657 26.1412C77.1264 27.7164 77.5827 29.3045 78.2458 30.6148C78.5944 31.3028 79.9407 31.6731 80.5521 32.0551C80.981 32.3232 81.6833 32.6029 82.0896 32.9648C82.8653 33.6573 83.6171 34.4822 84.345 35.2409C84.7088 35.6202 85.8269 36.4516 85.8825 37.1363L85.8812 37.1158Z" fill="#00618A"/>
<path fill-rule="evenodd" clip-rule="evenodd" d="M62.9734 8.22638C62.5975 8.2161 62.3319 8.28682 62.0508 8.37812V8.45399H62.1021C62.2811 8.99922 62.5975 9.34962 62.8191 9.81898L63.3319 11.4109L63.3832 11.3351C63.7004 11.0039 63.846 10.4748 63.8438 9.6666C63.7165 9.46857 63.6978 9.22039 63.5874 8.98378C63.441 8.66874 63.1529 8.48999 62.9725 8.2251L62.9734 8.22638Z" fill="#00618A"/>
</svg>
