<svg width="64" height="68" viewBox="0 0 64 68" fill="none" xmlns="http://www.w3.org/2000/svg">
<g clip-path="url(#clip0_436_2057)">
<path d="M48.4323 3.00829H8.27484C5.5801 3.00829 3.39307 5.35276 3.39307 8.19517V55.2505C3.39307 58.1137 5.59963 60.4374 8.27484 60.4374H34.734C34.4411 46.4536 38.9323 19.3158 48.442 2.9668L48.4323 3.00829Z" fill="#0F80CC"/>
<path d="M46.9676 4.5332H8.27465C6.361 4.5332 4.80859 6.193 4.80859 8.21589V51.8376C13.5763 48.2586 26.7277 45.1776 35.8274 45.3228C38.6326 31.4636 42.3586 17.8329 46.9773 4.5332H46.9676Z" fill="url(#paint0_linear_436_2057)"/>
<path d="M57.8052 1.47307C55.0519 -1.12037 51.7225 -0.0829923 48.4322 3.00839L46.9677 4.52296C41.3439 10.851 36.2278 22.594 34.5094 31.5674C35.1216 32.9885 35.6055 34.4682 35.9544 35.9866L36.1692 37.024L36.384 38.0821C36.384 38.0821 36.3352 37.8746 36.1301 37.2522L35.9934 36.8372C35.966 36.7604 35.9367 36.6843 35.9056 36.609C35.5346 35.7065 34.5387 33.7873 34.0798 32.9574C33.7246 34.0605 33.3893 35.1707 33.0741 36.2874C34.3629 38.7979 35.144 43.0926 35.144 43.0926C35.144 43.0926 35.0757 42.8125 34.7535 41.8478C34.4606 40.9867 33.0351 38.3207 32.7031 37.6982C32.1173 39.9805 31.8928 41.5158 32.0978 41.8892C32.4883 42.6154 32.8789 43.964 33.2206 45.2503C33.7479 47.5315 34.1779 49.8369 34.5094 52.1593L34.5582 52.8024C34.457 55.3966 34.5059 57.995 34.7047 60.5828C34.9585 63.8298 35.4369 66.6203 36.0423 68.1141L36.4523 67.8755C35.5736 64.9294 35.2026 61.0807 35.3588 56.6304C35.6029 49.8355 37.0674 41.6403 39.7915 33.1027C44.4096 20.1043 50.7754 9.75133 56.614 4.81342C51.2929 9.91731 44.0972 26.4323 41.9492 32.5425C39.5376 39.3892 37.829 45.8209 36.794 51.9725C38.571 46.2047 44.312 43.715 44.312 43.715C44.312 43.715 47.1434 40.022 50.424 34.7417L44.1265 36.526L42.0957 37.4804C42.0957 37.4804 47.2703 34.1297 51.7323 32.6047C57.854 22.3658 64.5225 7.81144 57.8052 1.4627" fill="#003B57"/>
</g>
<defs>
<linearGradient id="paint0_linear_436_2057" x1="29.1296" y1="5.49796" x2="29.1296" y2="49.213" gradientUnits="userSpaceOnUse">
<stop stop-color="#97D9F6"/>
<stop offset="0.92024" stop-color="#0F80CC"/>
<stop offset="1" stop-color="#0F80CC"/>
</linearGradient>
<clipPath id="clip0_436_2057">
<rect width="64" height="68" fill="white"/>
</clipPath>
</defs>
</svg>
