<?xml version="1.0" encoding="UTF-8"?>
<svg version="1.1" xmlns="http://www.w3.org/2000/svg" width="80" height="80">
<path d="M0 0 C0.90105469 0.46019531 1.80210938 0.92039062 2.73046875 1.39453125 C9.28459821 4.78459821 9.28459821 4.78459821 11.625 7.125 C12.25 9.25 12.25 9.25 12.625 11.125 C13.63820312 10.691875 14.65140625 10.25875 15.6953125 9.8125 C17.04664397 9.24944522 18.39821959 8.68697613 19.75 8.125 C20.74773438 7.69574219 20.74773438 7.69574219 21.765625 7.2578125 C25.84220573 5.57922044 29.13523977 4.59209077 33.625 5.125 C35.625 7.125 35.625 7.125 36.3125 9.875 C35.5159359 13.64057573 35.04228126 13.95717364 32 16.0625 C30.22637447 17.11436625 28.43192932 18.1314324 26.625 19.125 C25.50351562 19.7746875 24.38203125 20.424375 23.2265625 21.09375 C22.02807819 21.75371189 20.82755602 22.4099869 19.625 23.0625 C17.954375 23.97322266 17.954375 23.97322266 16.25 24.90234375 C7.27673673 27.92888621 -0.3077391 23.71718887 -8.35742188 19.83203125 C-13.98533471 17.27263813 -17.31058623 16.83704019 -23.375 18.125 C-24.138125 18.22941406 -24.90125 18.33382812 -25.6875 18.44140625 C-26.244375 18.52261719 -26.80125 18.60382812 -27.375 18.6875 C-28.86 18.9040625 -28.86 18.9040625 -30.375 19.125 C-29.375 16.125 -29.375 16.125 -27.51953125 15.17578125 C-26.74996094 14.93214844 -25.98039062 14.68851563 -25.1875 14.4375 C-24.43082031 14.18613281 -23.67414062 13.93476562 -22.89453125 13.67578125 C-17.62354303 12.52351871 -13.8002479 13.04979468 -8.96875 15.3828125 C-7.97746094 15.84300781 -6.98617188 16.30320312 -5.96484375 16.77734375 C-3.90190382 17.76056543 -1.84199746 18.75017696 0.21484375 19.74609375 C5.76468888 22.45159916 5.76468888 22.45159916 11.7578125 22.75 C12.70398437 22.21375 13.65015625 21.6775 14.625 21.125 C15.33043945 20.75487793 16.03587891 20.38475586 16.76269531 20.00341797 C19.20265344 18.71352607 21.60166082 17.36556154 24 16 C25.24716797 15.29810547 25.24716797 15.29810547 26.51953125 14.58203125 C28.55734954 13.43429451 30.59235569 12.28186718 32.625 11.125 C32.625 10.135 32.625 9.145 32.625 8.125 C27.45352517 9.57741421 22.48173956 11.14247438 17.5625 13.3125 C12.70181822 15.338426 8.85320404 15.46230349 3.625 15.125 C3.13 13.64 3.13 13.64 2.625 12.125 C4.605 11.795 6.585 11.465 8.625 11.125 C7.95627997 8.07252918 7.95627997 8.07252918 5.83081055 6.97412109 C5.06551025 6.61914551 4.30020996 6.26416992 3.51171875 5.8984375 C2.67576172 5.5065625 1.83980469 5.1146875 0.97851562 4.7109375 C0.09873047 4.31132813 -0.78105469 3.91171875 -1.6875 3.5 C-2.55568359 3.09265625 -3.42386719 2.6853125 -4.31835938 2.265625 C-12.07727456 -1.5398711 -12.07727456 -1.5398711 -20.3125 -0.4375 C-23.82963002 0.77474111 -26.64788589 1.29168668 -30.375 1.125 C-30.045 0.135 -29.715 -0.855 -29.375 -1.875 C-27.15234375 -2.82421875 -27.15234375 -2.82421875 -24.3125 -3.5625 C-23.39339844 -3.81386719 -22.47429688 -4.06523438 -21.52734375 -4.32421875 C-12.69589886 -5.86725931 -7.78398068 -4.14917032 0 0 Z " fill="#4B4B4B" transform="translate(37.375,43.875)"/>
<path d="M0 0 C4.40608743 2.16298837 7.1987497 4.39680479 9 9 C9.6966161 14.13431863 9.63362185 17.83835995 7.125 22.4375 C6.42375 23.283125 5.7225 24.12875 5 25 C2.97649676 28.03525486 2.67875982 29.19426202 2.375 32.6875 C2.30023438 33.49574219 2.22546875 34.30398437 2.1484375 35.13671875 C2.09945312 35.75160156 2.05046875 36.36648437 2 37 C-2.68900221 39.49103242 -5.94157084 38.92737868 -11 38 C-12.50157449 36.49842551 -12.11109796 35.09559893 -12.1875 33 C-12.55775127 28.9591542 -13.61909306 26.78022604 -16.0625 23.5625 C-19.07238218 19.4139395 -19.79745541 16.39532049 -19.45703125 11.296875 C-18.55212648 6.74914844 -16.2661531 4.11719391 -12.875 1.125 C-8.55651358 -0.56484251 -4.5732948 -0.65960983 0 0 Z M-13 5 C-16.06490964 7.96274598 -16.83419899 10.77207437 -17 15 C-15.59756047 19.13719662 -14.22308073 22.06992661 -11 25 C-10.67 25.99 -10.34 26.98 -10 28 C-9.34 28 -8.68 28 -8 28 C-7.97274659 26.2709226 -7.95349013 24.54171824 -7.9375 22.8125 C-7.92589844 21.84957031 -7.91429687 20.88664062 -7.90234375 19.89453125 C-7.99513378 17.14423487 -8.37888315 14.67520409 -9 12 C-6.36 12 -3.72 12 -1 12 C-1.16371094 12.70511719 -1.32742187 13.41023438 -1.49609375 14.13671875 C-2.01699824 17.09658688 -2.09866732 19.81061273 -2.0625 22.8125 C-2.05347656 23.78832031 -2.04445313 24.76414062 -2.03515625 25.76953125 C-2.02355469 26.50558594 -2.01195312 27.24164063 -2 28 C-1.34 28 -0.68 28 0 28 C1.04644066 26.36209288 2.0398183 24.68991979 3 23 C3.53625 22.360625 4.0725 21.72125 4.625 21.0625 C6.48352798 18.27470802 6.86855185 16.35192786 7 13 C5.55329722 8.50760716 4.30067906 5.2117778 0 3 C-5.1978207 1.38290023 -8.28578028 2.42052128 -13 5 Z M-7 14 C-6.67 18.62 -6.34 23.24 -6 28 C-5.34 28 -4.68 28 -4 28 C-3.67 23.38 -3.34 18.76 -3 14 C-4.32 14 -5.64 14 -7 14 Z M-10 30 C-10 30.66 -10 31.32 -10 32 C-9.34 32 -8.68 32 -8 32 C-8.33 32.99 -8.66 33.98 -9 35 C-7.87465895 36.35618499 -7.87465895 36.35618499 -4.9375 36.0625 C-3.968125 36.041875 -2.99875 36.02125 -2 36 C-1.67 35.34 -1.34 34.68 -1 34 C-2.65 34 -4.3 34 -6 34 C-6 33.34 -6 32.68 -6 32 C-4.02 32 -2.04 32 0 32 C0 31.34 0 30.68 0 30 C-3.3 30 -6.6 30 -10 30 Z " fill="#070707" transform="translate(56,7)"/>
<path d="M0 0 C4.40608743 2.16298837 7.1987497 4.39680479 9 9 C9.69241533 14.10335743 9.6139627 17.83558799 7.1875 22.4375 C3.89473684 26.29473684 3.89473684 26.29473684 2 28 C1.34 27.67 0.68 27.34 0 27 C1.0210159 24.80088884 2.00382148 22.99541423 3.5625 21.125 C5.46979666 18.30551797 5.86645143 16.40548843 6 13 C4.75635875 8.41407289 3.83141308 6.53797317 -0.1875 3.9375 C-4.75407441 2.81457187 -7.74268007 3.04912879 -12 5 C-14.3919837 7.16050141 -14.9196754 8.7418138 -15.875 11.8125 C-16.07922802 17.02031457 -13.8295554 20.7556669 -11 25 C-11.66 25.99 -12.32 26.98 -13 28 C-17.37299426 22.61184636 -19.92944457 18.37208845 -19.45703125 11.296875 C-18.55212648 6.74914844 -16.2661531 4.11719391 -12.875 1.125 C-8.55651358 -0.56484251 -4.5732948 -0.65960983 0 0 Z " fill="#333333" transform="translate(56,7)"/>
<path d="M0 0 C3.47156212 2.08293727 4.73424944 3.83770254 6.5 7.5 C7.3201841 12.60336771 7.11342116 16.33661504 4.6875 20.9375 C1.39473684 24.79473684 1.39473684 24.79473684 -0.5 26.5 C-1.16 26.17 -1.82 25.84 -2.5 25.5 C-1.4789841 23.30088884 -0.49617852 21.49541423 1.0625 19.625 C2.96979666 16.80551797 3.36645143 14.90548843 3.5 11.5 C2.23156613 6.70038913 2.23156613 6.70038913 -1.26171875 3.390625 C-3.38744346 2.4401691 -3.38744346 2.4401691 -6.5 1.5 C-4.03207511 -0.14528326 -2.95664381 -0.59132876 0 0 Z " fill="#3A3A3A" transform="translate(58.5,8.5)"/>
<path d="M0 0 C-1.7421875 1.09765625 -1.7421875 1.09765625 -4 2 C-6.0078125 1.43359375 -6.0078125 1.43359375 -8.125 0.4375 C-12.96134635 -1.398077 -15.9129748 -0.59252446 -20.640625 1.23828125 C-23.21709182 2.07008759 -25.3099011 2.12878133 -28 2 C-27.67 1.01 -27.34 0.02 -27 -1 C-17.38400536 -5.106655 -8.97614845 -5.34749269 0 0 Z " fill="#444444" transform="translate(35,43)"/>
<path d="M0 0 C-0.33 0.99 -0.66 1.98 -1 3 C-1.556875 2.77183594 -2.11375 2.54367188 -2.6875 2.30859375 C-8.41197369 0.1522464 -12.00723938 -0.15988915 -18 1 C-19.33225336 1.19502568 -20.66557038 1.3829683 -22 1.5625 C-23.485 1.7790625 -23.485 1.7790625 -25 2 C-24 -1 -24 -1 -22.14453125 -1.94921875 C-13.27714398 -4.75648206 -8.2949287 -4.12903117 0 0 Z " fill="#535353" transform="translate(32,61)"/>
<path d="M0 0 C0.66 0 1.32 0 2 0 C1.80859375 2.29296875 1.80859375 2.29296875 1 5 C-1.21484375 6.80078125 -1.21484375 6.80078125 -3.9375 8.3125 C-4.83339844 8.82425781 -5.72929688 9.33601563 -6.65234375 9.86328125 C-9 11 -9 11 -11 11 C-11.33 10.01 -11.66 9.02 -12 8 C-11.21753906 7.59007812 -10.43507812 7.18015625 -9.62890625 6.7578125 C-8.61699219 6.21898437 -7.60507812 5.68015625 -6.5625 5.125 C-5.55316406 4.59132813 -4.54382813 4.05765625 -3.50390625 3.5078125 C-0.89859558 2.24345886 -0.89859558 2.24345886 0 0 Z " fill="#404040" transform="translate(71,53)"/>
<path d="M0 0 C0.89203125 0.01804687 1.7840625 0.03609375 2.703125 0.0546875 C3.71632813 0.08949219 3.71632813 0.08949219 4.75 0.125 C4.75 0.785 4.75 1.445 4.75 2.125 C3.91855469 2.31835938 3.08710937 2.51171875 2.23046875 2.7109375 C1.14378906 2.97132812 0.05710937 3.23171875 -1.0625 3.5 C-2.14144531 3.75523438 -3.22039063 4.01046875 -4.33203125 4.2734375 C-7.40533343 5.01232881 -7.40533343 5.01232881 -10.25 7.125 C-10 4.75 -10 4.75 -9.25 2.125 C-6.16872876 0.0521448 -3.65291922 -0.09612945 0 0 Z " fill="#3F3F3F" transform="translate(51.25,6.875)"/>
<path d="M0 0 C2.64 0 5.28 0 8 0 C8.33 1.65 8.66 3.3 9 5 C8.01 5 7.02 5 6 5 C6 4.34 6 3.68 6 3 C3.69 3.66 1.38 4.32 -1 5 C-0.67 3.35 -0.34 1.7 0 0 Z " fill="#434343" transform="translate(47,18)"/>
<path d="M0 0 C0 0.99 0 1.98 0 3 C-5.22771463 6.04157942 -8.92671312 7.50610724 -15 7 C-12.35658072 5.23772048 -9.76922765 3.80128992 -6.9375 2.375 C-6.05964844 1.92898437 -5.18179688 1.48296875 -4.27734375 1.0234375 C-2 0 -2 0 0 0 Z " fill="#3C3C3C" transform="translate(60,62)"/>
<path d="M0 0 C0.66 0.33 1.32 0.66 2 1 C6.14503661 1.24787017 6.14503661 1.24787017 10 0 C10.33 1.32 10.66 2.64 11 4 C2.57142857 5.42857143 2.57142857 5.42857143 -2 3 C-2 2.34 -2 1.68 -2 1 C-1.34 0.67 -0.68 0.34 0 0 Z " fill="#454545" transform="translate(46,41)"/>
<path d="M0 0 C1.875 1.75 1.875 1.75 3 4 C2.6875 7.25 2.6875 7.25 2 10 C1.773125 9.443125 1.54625 8.88625 1.3125 8.3125 C-1.11420254 4.03688123 -4.43250373 0.86083181 -9 -1 C-5.37843678 -2.34131971 -3.36926714 -1.81422077 0 0 Z " fill="#575757" transform="translate(61,10)"/>
<path d="M0 0 C3.91211733 1.15585285 6.8745041 2.35534962 10 5 C6.69564916 6.12377697 4.9493138 5.89554742 1.75 4.5625 C1.04359375 4.27503906 0.3371875 3.98757812 -0.390625 3.69140625 C-0.92171875 3.46324219 -1.4528125 3.23507813 -2 3 C-1.34 2.01 -0.68 1.02 0 0 Z " fill="#656565" transform="translate(25,39)"/>
<path d="M0 0 C4.05606165 0.46800711 7.46588679 0.87953208 11 3 C11 3.66 11 4.32 11 5 C6.62886504 4.49172849 3.61004338 3.54826592 0 1 C0 0.67 0 0.34 0 0 Z " fill="#3B3B3B" transform="translate(32,44)"/>
<path d="M0 0 C5.45454545 0.45454545 5.45454545 0.45454545 8 3 C7.67 3.66 7.34 4.32 7 5 C4.03 4.01 1.06 3.02 -2 2 C-1.34 1.34 -0.68 0.68 0 0 Z " fill="#5C5C5C" transform="translate(24,59)"/>
<path d="M0 0 C0.33 0 0.66 0 1 0 C0.67 2.97 0.34 5.94 0 9 C-0.99 9 -1.98 9 -3 9 C-2.5020163 5.26512223 -2.12508244 3.18762365 0 0 Z " fill="#595959" transform="translate(40,11)"/>
<path d="M0 0 C0.86625 0.556875 0.86625 0.556875 1.75 1.125 C-3 4.125 -3 4.125 -5.25 4.125 C-5.58 3.135 -5.91 2.145 -6.25 1.125 C-2.80384615 -1.09038462 -2.80384615 -1.09038462 0 0 Z " fill="#5B5B5B" transform="translate(65.25,59.875)"/>
<path d="M0 0 C2.4375 1.25 2.4375 1.25 3.4375 4.25 C0.08154172 3.65072174 -1.94051226 2.40377564 -4.5625 0.25 C-2.5625 -0.75 -2.5625 -0.75 0 0 Z " fill="#494949" transform="translate(45.5625,48.75)"/>
<path d="M0 0 C1.65 1.65 3.3 3.3 5 5 C4.34 6.32 3.68 7.64 3 9 C0.9375 6.1875 0.9375 6.1875 -1 3 C-0.67 2.01 -0.34 1.02 0 0 Z " fill="#5A5A5A" transform="translate(40,26)"/>
<path d="M0 0 C0.99 0 1.98 0 3 0 C1.84826645 2.46800047 0.95216435 4.04783565 -1 6 C-1.66 5.67 -2.32 5.34 -3 5 C-1.125 1.125 -1.125 1.125 0 0 Z " fill="#595959" transform="translate(59,29)"/>
<path d="M0 0 C1.98 0 3.96 0 6 0 C6 0.66 6 1.32 6 2 C3.69 2.33 1.38 2.66 -1 3 C-0.67 2.01 -0.34 1.02 0 0 Z " fill="#454545" transform="translate(8,60)"/>
<path d="M0 0 C0.99 0 1.98 0 3 0 C2.67 0.99 2.34 1.98 2 3 C1.34 3 0.68 3 0 3 C0 2.01 0 1.02 0 0 Z " fill="#9F9F9F" transform="translate(34,5)"/>
<path d="M0 0 C0.66 0 1.32 0 2 0 C2 0.99 2 1.98 2 3 C1.01 2.67 0.02 2.34 -1 2 C-0.67 1.34 -0.34 0.68 0 0 Z " fill="#919191" transform="translate(67,26)"/>
<path d="M0 0 C0.99 0.33 1.98 0.66 3 1 C2.67 1.66 2.34 2.32 2 3 C1.34 3 0.68 3 0 3 C0 2.01 0 1.02 0 0 Z " fill="#8F8F8F" transform="translate(33,26)"/>
<path d="M0 0 C0.66 0 1.32 0 2 0 C2 0.99 2 1.98 2 3 C1.01 2.67 0.02 2.34 -1 2 C-0.67 1.34 -0.34 0.68 0 0 Z " fill="#929292" transform="translate(67,13)"/>
<path d="M0 0 C0.99 0.33 1.98 0.66 3 1 C2.67 1.66 2.34 2.32 2 3 C1.34 3 0.68 3 0 3 C0 2.01 0 1.02 0 0 Z " fill="#929292" transform="translate(33,13)"/>
<path d="M0 0 C0.66 0 1.32 0 2 0 C1.67 0.99 1.34 1.98 1 3 C0.34 2.34 -0.32 1.68 -1 1 C-0.67 0.67 -0.34 0.34 0 0 Z " fill="#828282" transform="translate(66,5)"/>
<path d="M0 0 C0.66 0 1.32 0 2 0 C2 0.66 2 1.32 2 2 C1.34 2 0.68 2 0 2 C0 1.34 0 0.68 0 0 Z " fill="#3C3C3C" transform="translate(37,55)"/>
<path d="M0 0 C0.66 0 1.32 0 2 0 C2 0.66 2 1.32 2 2 C1.34 2 0.68 2 0 2 C0 1.34 0 0.68 0 0 Z " fill="#3C3C3C" transform="translate(34,54)"/>
<path d="M0 0 C0.66 0 1.32 0 2 0 C2 0.66 2 1.32 2 2 C1.34 2 0.68 2 0 2 C0 1.34 0 0.68 0 0 Z " fill="#3A3A3A" transform="translate(31,53)"/>
<path d="M0 0 C0.66 0 1.32 0 2 0 C2 0.66 2 1.32 2 2 C1.34 2 0.68 2 0 2 C0 1.34 0 0.68 0 0 Z " fill="#3D3D3D" transform="translate(28,52)"/>
<path d="M0 0 C0.66 0 1.32 0 2 0 C2 0.66 2 1.32 2 2 C1.34 2 0.68 2 0 2 C0 1.34 0 0.68 0 0 Z " fill="#494949" transform="translate(66,35)"/>
<path d="M0 0 C0.66 0 1.32 0 2 0 C2 0.66 2 1.32 2 2 C1.34 2 0.68 2 0 2 C0 1.34 0 0.68 0 0 Z " fill="#474747" transform="translate(34,35)"/>
<path d="M0 0 C0.66 0 1.32 0 2 0 C2 0.66 2 1.32 2 2 C1.34 2 0.68 2 0 2 C0 1.34 0 0.68 0 0 Z " fill="#3D3D3D" transform="translate(63,32)"/>
<path d="M0 0 C0.66 0 1.32 0 2 0 C2 0.66 2 1.32 2 2 C1.34 2 0.68 2 0 2 C0 1.34 0 0.68 0 0 Z " fill="#3C3C3C" transform="translate(37,32)"/>
<path d="M0 0 C0.66 0 1.32 0 2 0 C2 0.66 2 1.32 2 2 C1.34 2 0.68 2 0 2 C0 1.34 0 0.68 0 0 Z " fill="#3B3B3B" transform="translate(72,20)"/>
<path d="M0 0 C0.66 0 1.32 0 2 0 C2 0.66 2 1.32 2 2 C1.34 2 0.68 2 0 2 C0 1.34 0 0.68 0 0 Z " fill="#3C3C3C" transform="translate(68,20)"/>
<path d="M0 0 C0.66 0 1.32 0 2 0 C2 0.66 2 1.32 2 2 C1.34 2 0.68 2 0 2 C0 1.34 0 0.68 0 0 Z " fill="#3B3B3B" transform="translate(32,20)"/>
<path d="M0 0 C0.66 0 1.32 0 2 0 C2 0.66 2 1.32 2 2 C1.34 2 0.68 2 0 2 C0 1.34 0 0.68 0 0 Z " fill="#3B3B3B" transform="translate(28,20)"/>
<path d="M0 0 C0.66 0 1.32 0 2 0 C2 0.66 2 1.32 2 2 C1.34 2 0.68 2 0 2 C0 1.34 0 0.68 0 0 Z " fill="#3C3C3C" transform="translate(63,8)"/>
<path d="M0 0 C0.66 0 1.32 0 2 0 C2 0.66 2 1.32 2 2 C1.34 2 0.68 2 0 2 C0 1.34 0 0.68 0 0 Z " fill="#3E3E3E" transform="translate(37,8)"/>
</svg>
