<svg width="73" height="68" viewBox="0 0 73 68" fill="none" xmlns="http://www.w3.org/2000/svg">
<path d="M73 34.0078C73 28.9494 66.9439 24.1556 57.659 21.1829C59.8017 11.284 58.8494 3.40856 54.6533 0.887159C53.6861 0.295719 52.5552 0.015564 51.3202 0.015564V3.48638C52.0047 3.48638 52.5552 3.62646 53.0165 3.89105C55.0402 5.10506 55.9181 9.72763 55.2336 15.6732C55.0699 17.1362 54.8021 18.677 54.4747 20.249C51.5583 19.5019 48.374 18.9261 45.0261 18.5525C43.0173 15.6732 40.9342 13.0584 38.8361 10.7704C43.6869 6.05447 48.2401 3.47082 51.3351 3.47082V0C47.2432 0 41.8865 3.05058 36.4702 8.34241C31.054 3.08171 25.6973 0.062257 21.6054 0.062257V3.53307C24.6855 3.53307 29.2536 6.10117 34.1044 10.786C32.0212 13.0739 29.938 15.6732 27.959 18.5525C24.5962 18.9261 21.4119 19.5019 18.4955 20.2646C18.1533 18.7082 17.9003 17.1984 17.7218 15.751C17.0224 9.80545 17.8854 5.18288 19.8942 3.95331C20.3406 3.67315 20.9209 3.54864 21.6054 3.54864V0.077821C20.3555 0.077821 19.2246 0.357976 18.2426 0.949416C14.0614 3.47082 13.1239 11.3307 15.2815 21.1984C6.02629 24.1868 0 28.965 0 34.0078C0 39.0661 6.05605 43.8599 15.341 46.8327C13.1983 56.7315 14.1506 64.607 18.3467 67.1284C19.3139 67.7198 20.4448 68 21.6947 68C25.7866 68 31.1433 64.9494 36.5595 59.6576C41.9757 64.9183 47.3324 67.9377 51.4244 67.9377C52.6743 67.9377 53.8051 67.6576 54.7872 67.0661C58.9684 64.5447 59.9058 56.6848 57.7483 46.8171C66.9737 43.8444 73 39.0506 73 34.0078V34.0078ZM53.6266 23.6265C53.076 25.6342 52.3916 27.7043 51.6178 29.7743C51.0077 28.5292 50.3679 27.284 49.6686 26.0389C48.9841 24.7938 48.255 23.5798 47.5259 22.3969C49.6388 22.7237 51.6773 23.1284 53.6266 23.6265ZM46.8117 40.2023C45.651 42.3035 44.4607 44.2957 43.2256 46.1479C41.0086 46.3502 38.7617 46.4591 36.5 46.4591C34.2532 46.4591 32.0063 46.3502 29.8041 46.1634C28.5691 44.3113 27.3638 42.3346 26.2032 40.249C25.0724 38.2101 24.0457 36.1401 23.1082 34.0545C24.0308 31.9689 25.0724 29.8833 26.1883 27.8444C27.349 25.7432 28.5393 23.751 29.7744 21.8988C31.9914 21.6965 34.2383 21.5875 36.5 21.5875C38.7468 21.5875 40.9937 21.6965 43.1959 21.8833C44.4309 23.7354 45.6362 25.7121 46.7968 27.7977C47.9276 29.8366 48.9543 31.9066 49.8918 33.9922C48.9543 36.0778 47.9276 38.1634 46.8117 40.2023ZM51.6178 38.179C52.4213 40.2646 53.1058 42.3502 53.6712 44.3735C51.722 44.8716 49.6686 45.2918 47.5408 45.6187C48.2699 44.4202 48.999 43.1907 49.6835 41.93C50.3679 40.6848 51.0077 39.4241 51.6178 38.179ZM36.5298 54.786C35.1459 53.2918 33.7621 51.6265 32.3932 49.8054C33.7324 49.8677 35.1013 49.9144 36.4851 49.9144C37.8838 49.9144 39.2676 49.8833 40.6217 49.8054C39.2825 51.6265 37.8987 53.2918 36.5298 54.786ZM25.4592 45.6187C23.3463 45.2918 21.3078 44.8872 19.3585 44.3891C19.9091 42.3813 20.5936 40.3113 21.3673 38.2412C21.9774 39.4864 22.6172 40.7315 23.3166 41.9767C24.0159 43.2218 24.7301 44.4358 25.4592 45.6187ZM36.4554 13.2296C37.8392 14.7237 39.223 16.3891 40.5919 18.2101C39.2528 18.1479 37.8838 18.1012 36.5 18.1012C35.1013 18.1012 33.7175 18.1323 32.3634 18.2101C33.7026 16.3891 35.0864 14.7237 36.4554 13.2296ZM25.4444 22.3969C24.7152 23.5953 23.9861 24.8249 23.3017 26.0856C22.6172 27.3307 21.9774 28.5759 21.3673 29.821C20.5638 27.7354 19.8793 25.6498 19.3139 23.6265C21.2631 23.144 23.3166 22.7237 25.4444 22.3969V22.3969ZM11.9782 41.8833C6.71076 39.5331 3.3033 36.4514 3.3033 34.0078C3.3033 31.5642 6.71076 28.4669 11.9782 26.1323C13.2579 25.5564 14.6565 25.0428 16.0999 24.5603C16.948 27.6109 18.064 30.786 19.4478 34.0389C18.0789 37.2763 16.9778 40.4358 16.1445 43.4708C14.6714 42.9883 13.2727 42.4591 11.9782 41.8833ZM19.9835 64.1245C17.9598 62.9105 17.0819 58.2879 17.7664 52.3424C17.9301 50.8794 18.1979 49.3385 18.5253 47.7665C21.4417 48.5136 24.626 49.0895 27.9739 49.463C29.9827 52.3424 32.0658 54.9572 34.1639 57.2451C29.3131 61.9611 24.7599 64.5447 21.6649 64.5447C20.9953 64.5292 20.4299 64.3891 19.9835 64.1245V64.1245ZM55.2782 52.2646C55.9776 58.2101 55.1145 62.8327 53.1058 64.0623C52.6594 64.3424 52.0791 64.4669 51.3946 64.4669C48.3145 64.4669 43.7464 61.8988 38.8956 57.214C40.9788 54.9261 43.062 52.3268 45.041 49.4475C48.4038 49.0739 51.5881 48.4981 54.5045 47.7354C54.8467 49.3074 55.1146 50.8171 55.2782 52.2646V52.2646ZM61.0069 41.8833C59.7273 42.4591 58.3286 42.9728 56.8852 43.4553C56.0371 40.4047 54.9211 37.2296 53.5373 33.9767C54.9062 30.7393 56.0073 27.5798 56.8406 24.5447C58.3137 25.0272 59.7124 25.5564 61.0218 26.1323C66.2892 28.4825 69.6967 31.5642 69.6967 34.0078C69.6818 36.4514 66.2744 39.5486 61.0069 41.8833V41.8833Z" fill="#61DAFB"/>
<path d="M36.4851 41.1202C40.2407 41.1202 43.2851 37.9357 43.2851 34.0074C43.2851 30.0791 40.2407 26.8945 36.4851 26.8945C32.7295 26.8945 29.6851 30.0791 29.6851 34.0074C29.6851 37.9357 32.7295 41.1202 36.4851 41.1202Z" fill="#61DAFB"/>
</svg>
