<svg width="64" height="68" viewBox="0 0 64 68" fill="none" xmlns="http://www.w3.org/2000/svg">
<g clip-path="url(#clip0_436_1969)">
<path d="M14.2249 0H49.6749C51.3999 0 53.0749 0.292188 54.6999 0.903125C57.0499 1.80625 59.1749 3.4 60.7749 5.47188C62.3999 7.54375 63.4749 10.0938 63.8499 12.75C63.9999 13.7328 64.0249 14.7156 64.0249 15.6984V52.4344C64.0249 53.6031 63.9749 54.7984 63.7499 55.9406C63.2499 58.5703 62.0749 61.0406 60.3749 63.0328C58.6999 65.025 56.4999 66.5125 54.1249 67.3094C52.6749 67.7875 51.1749 68 49.6499 68C48.9749 68 14.1249 68 13.5999 67.9734C11.0499 67.8406 8.52494 66.9641 6.39994 65.45C4.32494 63.9625 2.62494 61.8906 1.52494 59.5C0.574945 57.4547 0.0999445 55.1703 0.0999445 52.8859V15.1141C0.0499445 12.8563 0.499945 10.625 1.42494 8.60625C2.49994 6.21563 4.17494 4.11719 6.24994 2.62969C8.37494 1.08906 10.8749 0.185938 13.4249 0.053125C13.6749 0 13.9499 0 14.2249 0V0Z" fill="url(#paint0_linear_436_1969)"/>
<path d="M54 55.6219C53.775 55.25 53.525 54.8781 53.25 54.5328C52.625 53.7359 51.9 53.0453 51.1 52.4609C50.1 51.7437 48.925 51.2922 47.725 51.2391C46.875 51.1859 46.025 51.3453 45.225 51.6641C44.425 51.9563 43.65 52.3813 42.9 52.8063C42.025 53.2844 41.15 53.7625 40.225 54.1609C39.125 54.6391 37.975 55.0109 36.8 55.2766C35.325 55.5688 33.825 55.675 32.35 55.6484C29.675 55.5953 27 55.1703 24.45 54.3734C22.2 53.6562 20.05 52.6734 18.025 51.425C16.25 50.3359 14.6 49.0875 13.05 47.6797C11.775 46.5109 10.6 45.2625 9.5 43.9344C8.75 43.0047 8.025 42.0219 7.35 41.0125C7.075 40.6141 6.825 40.1891 6.6 39.7641L0 32.1937V15.0609C0 6.74688 6.325 0 14.15 0H26.775L36.125 10.0938C57.225 25.3406 50.4 42.1547 50.4 42.1547C50.4 42.1547 56.4 49.3266 54 55.6219V55.6219Z" fill="url(#paint1_linear_436_1969)"/>
<path d="M36.1751 10.0938C57.2751 25.3406 50.4501 42.1547 50.4501 42.1547C50.4501 42.1547 56.4501 49.3531 54.0251 55.6484C54.0251 55.6484 51.5501 51.2391 47.4001 51.2391C43.4001 51.2391 41.0501 55.6484 33.0001 55.6484C15.0751 55.6484 6.6001 39.7375 6.6001 39.7375C22.7501 51.0266 33.7751 43.0312 33.7751 43.0312C26.5001 38.5422 11.0251 17.0797 11.0251 17.0797C24.5001 29.2719 30.3251 32.4859 30.3251 32.4859C26.8501 29.4313 17.1001 14.5031 17.1001 14.5031C24.9001 22.8969 40.4001 34.6109 40.4001 34.6109C44.8001 21.6484 36.1751 10.0938 36.1751 10.0938Z" fill="white"/>
</g>
<defs>
<linearGradient id="paint0_linear_436_1969" x1="38.0727" y1="-2.42648" x2="24.4751" y2="70.1526" gradientUnits="userSpaceOnUse">
<stop stop-color="#FAAE42"/>
<stop offset="1" stop-color="#EF3E31"/>
</linearGradient>
<linearGradient id="paint1_linear_436_1969" x1="32.653" y1="1.09863" x2="22.7012" y2="54.2182" gradientUnits="userSpaceOnUse">
<stop stop-color="#E39F3A"/>
<stop offset="1" stop-color="#D33929"/>
</linearGradient>
<clipPath id="clip0_436_1969">
<rect width="64" height="68" fill="white"/>
</clipPath>
</defs>
</svg>
