<svg width="74" height="68" viewBox="0 0 74 68" fill="none" xmlns="http://www.w3.org/2000/svg">
<path d="M21.352 0C19.3534 0.004478 17.397 1.17622 16.3911 2.96354L0.742963 31.0365C-0.247654 32.8286 -0.247654 35.1711 0.742963 36.9632L16.3911 65.0365C17.397 66.8238 19.3534 67.9958 21.352 68H52.6482C54.6467 67.9955 56.6031 66.8238 57.609 65.0365L73.2571 36.9632C74.2478 35.1711 74.2475 32.8286 73.2571 31.0365L57.609 2.96354C56.6031 1.17592 54.6467 0.00417947 52.6482 0L21.352 0ZM21.6361 16.4232C21.6792 16.4188 21.7243 16.4188 21.7673 16.4232H27.1653C27.2852 16.4273 27.4023 16.4625 27.5055 16.5258C27.6087 16.5891 27.6947 16.6782 27.7556 16.7851L36.9128 33.6379C36.959 33.7215 36.9885 33.814 36.9995 33.9095C37.011 33.814 37.0405 33.7215 37.0868 33.6379L46.222 16.7851C46.285 16.6752 46.3745 16.5841 46.4817 16.5207C46.589 16.4573 46.7104 16.4237 46.834 16.4232H52.2322C52.71 16.4274 53.0682 17.0493 52.8441 17.4863L43.9055 34L52.8441 50.491C53.0893 50.9304 52.7227 51.5809 52.2322 51.5768H46.834C46.7082 51.574 46.5854 51.537 46.4779 51.4695C46.3705 51.402 46.2822 51.3063 46.222 51.1923L37.0868 34.3391C37.0405 34.2558 37.011 34.163 36.9998 34.0678C36.9885 34.1634 36.9589 34.2557 36.9128 34.3394L27.7553 51.1923C27.6971 51.3031 27.6123 51.3967 27.509 51.464C27.4058 51.5313 27.2875 51.5701 27.1656 51.5768H21.767C21.2765 51.5812 20.91 50.9304 21.1551 50.491L30.0938 34L21.1551 17.4863C20.9409 17.0875 21.2025 16.5083 21.6361 16.4232Z" fill="#3498DB"/>
</svg>
