<svg width="78" height="67" viewBox="0 0 78 67" fill="none" xmlns="http://www.w3.org/2000/svg">
<g clip-path="url(#clip0_227_511)">
<path fill-rule="evenodd" clip-rule="evenodd" d="M12.0222 46.1797L7.94154 47.7807L7.72314 60.8136L21.8476 55.2749C17.0025 53.5274 13.4652 50.4537 12.0222 46.1811" fill="#FDBD39"/>
<path fill-rule="evenodd" clip-rule="evenodd" d="M14.157 32.3943L0 37.9469L7.943 47.7806L12.0224 46.1795C10.5833 41.9195 11.4712 37.1052 14.1583 32.3943" fill="#F69833"/>
<path fill-rule="evenodd" clip-rule="evenodd" d="M37.9834 13.5869C19.9537 20.6582 8.33037 35.2502 12.0224 46.1796L77.3097 20.5716C73.6177 9.64226 56.0118 6.51559 37.9834 13.5869Z" fill="#FECF33"/>
<path fill-rule="evenodd" clip-rule="evenodd" d="M51.3499 53.1645C69.3783 46.0918 81.0224 31.5654 77.3109 20.5718L12.021 46.1797C15.7338 57.1733 33.3189 60.2358 51.3486 53.1645" fill="#EE6723"/>
<path fill-rule="evenodd" clip-rule="evenodd" d="M77.3109 20.5718L12.021 46.1797C13.2989 49.9652 18.1752 51.8301 25.0145 51.8301C31.6835 51.8301 40.2206 50.0588 49.1204 46.5678C67.1488 39.4965 79.8329 28.0465 77.3083 20.5718" fill="#F69833"/>
<path fill-rule="evenodd" clip-rule="evenodd" d="M64.3161 14.9214C57.6471 14.9214 49.11 16.6927 40.2102 20.1837C22.1818 27.255 9.49774 38.7036 12.0223 46.1797L77.3096 20.5717C76.0317 16.7862 71.1567 14.9214 64.3161 14.9214Z" fill="#FDBD39"/>
<path fill-rule="evenodd" clip-rule="evenodd" d="M60.7101 61.5046C58.7887 61.5046 55.956 59.6411 52.2861 55.9673C47.948 51.6207 42.9768 45.2543 38.289 38.0392C33.6025 30.8269 29.7506 23.6147 27.4444 17.7326C24.9328 11.323 24.574 7.38252 26.3797 6.01879C26.7762 5.72009 27.2533 5.56934 27.7993 5.56934C29.2683 5.56934 32.1309 6.74323 37.4232 12.3391L37.5402 12.4606L37.5233 12.635C37.4869 13.037 37.4544 13.4432 37.4245 13.841L37.366 14.6311L36.846 14.07C31.1429 7.90038 28.6326 7.23457 27.8175 7.23457C27.5848 7.23457 27.4002 7.28481 27.2676 7.38531C26.4837 7.97575 26.433 10.8707 28.8692 17.0836C31.1351 22.8609 34.9298 29.9629 39.5552 37.0831C44.1832 44.2046 49.0777 50.4775 53.3404 54.7459C57.9359 59.3494 60.0068 59.8463 60.6854 59.8463C60.9194 59.8463 61.1079 59.7933 61.2496 59.6858C62.0751 59.0632 62.0764 55.9617 59.3594 49.2729L59.2346 48.9672L59.5076 48.8067C59.7806 48.6461 60.0458 48.4884 60.2928 48.3377L60.6204 48.1381L60.7712 48.508C62.6965 53.2468 64.497 59.2698 62.1362 61.0523C61.7384 61.3524 61.2587 61.5046 60.7101 61.5046Z" fill="#EE6723"/>
<path fill-rule="evenodd" clip-rule="evenodd" d="M51.7869 52.9648L51.7609 53.3277C51.3046 59.3842 50.1034 66.6635 46.9743 66.9594C46.9119 66.965 46.8469 66.9678 46.7819 66.9678C44.6551 66.9678 42.644 63.6973 40.8045 57.2486C39.0625 51.146 37.7105 42.9553 36.9994 34.1796C36.287 25.4082 36.2974 17.0863 37.0293 10.7506C37.8262 3.8454 39.3446 0.239967 41.5416 0.0319876C41.6066 0.0264043 41.6742 0.0222168 41.7405 0.0222168C43.2823 0.0222168 45.6067 1.89822 47.9857 10.6306L46.4322 10.9516C45.6379 8.0343 44.7721 5.66138 43.9128 4.02826C43.1172 2.52076 42.345 1.69024 41.7366 1.69024C41.7158 1.69024 41.6963 1.69024 41.6755 1.69303C40.7239 1.78236 39.3368 4.26276 38.5646 10.9558C37.8457 17.1784 37.8366 25.3747 38.5386 34.0345C39.2432 42.6956 40.5718 50.7663 42.2826 56.7587C43.0483 59.4414 43.8881 61.6538 44.7123 63.1544C45.4715 64.539 46.206 65.3012 46.7806 65.3012C46.8001 65.3012 46.8196 65.3011 46.8404 65.2984C47.7504 65.2132 49.4677 62.6323 50.1905 53.5524L51.7869 52.9648Z" fill="#EE6723"/>
</g>
<defs>
<clipPath id="clip0_227_511">
<rect width="78" height="67" fill="white"/>
</clipPath>
</defs>
</svg>
