<svg width="60" height="68" viewBox="0 0 60 68" fill="none" xmlns="http://www.w3.org/2000/svg">
<g clip-path="url(#clip0_436_2222)">
<path d="M52.4446 13.3534C52.3975 13.0134 52.0978 12.8252 51.8501 12.8045C51.6028 12.784 46.3702 12.3986 46.3702 12.3986C46.3702 12.3986 42.7361 8.81345 42.3373 8.41663C41.9382 8.02004 41.1587 8.14067 40.8561 8.22916C40.8116 8.2422 40.0622 8.47205 38.8224 8.85327C37.6085 5.38201 35.4661 2.19206 31.697 2.19206C31.5929 2.19206 31.4858 2.19626 31.3787 2.20231C30.3068 0.793641 28.979 0.181641 27.8321 0.181641C19.0521 0.181641 14.8574 11.0884 13.5422 16.6309C10.1306 17.6814 7.70689 18.4282 7.39731 18.5249C5.49297 19.1185 5.43274 19.1781 5.18269 20.9612C4.9945 22.3112 0.0117188 60.6029 0.0117188 60.6029L38.8386 67.8319L59.8764 63.3094C59.8764 63.3094 52.4912 13.6934 52.4448 13.3534H52.4446ZM36.6765 9.51278L33.3911 10.5232C33.3923 10.2931 33.3935 10.0668 33.3935 9.81924C33.3935 7.66187 33.0921 5.92485 32.6086 4.54785C34.5507 4.79004 35.8441 6.98583 36.6765 9.51278ZM30.1995 4.97564C30.7394 6.32004 31.0905 8.24942 31.0905 10.853C31.0905 10.9862 31.0893 11.108 31.0881 11.2312C28.9516 11.8888 26.6298 12.6028 24.303 13.3191C25.6095 8.30857 28.0584 5.88852 30.1995 4.97564V4.97564ZM27.5909 2.52182C27.9699 2.52182 28.3516 2.64967 28.717 2.89954C25.9031 4.2153 22.887 7.52913 21.6133 14.1468L16.2499 15.7974C17.7418 10.7498 21.2843 2.52182 27.5907 2.52182H27.5909Z" fill="#95BF46"/>
<path d="M51.8504 12.8044C51.6031 12.7839 46.3705 12.3985 46.3705 12.3985C46.3705 12.3985 42.7364 8.8134 42.3376 8.41658C42.1883 8.26893 41.987 8.19325 41.7765 8.16064L38.8408 67.8313L59.8767 63.3093C59.8767 63.3093 52.4913 13.6933 52.4449 13.3533C52.3978 13.0133 52.0981 12.8252 51.8504 12.8044" fill="#5E8E3E"/>
<path d="M31.697 24.3554L29.103 32.0231C29.103 32.0231 26.8302 30.8178 24.0443 30.8178C19.96 30.8178 19.7545 33.3647 19.7545 34.0065C19.7545 37.5085 28.941 38.8504 28.941 47.0532C28.941 53.5069 24.8218 57.6626 19.2677 57.6626C12.6027 57.6626 9.19434 53.5407 9.19434 53.5407L10.9789 47.6815C10.9789 47.6815 14.4825 50.6705 17.4388 50.6705C19.3706 50.6705 20.1564 49.1591 20.1564 48.0548C20.1564 43.4867 12.6196 43.283 12.6196 35.7766C12.6196 29.4589 17.1829 23.3452 26.3943 23.3452C29.9436 23.3452 31.697 24.3554 31.697 24.3554" fill="white"/>
</g>
<defs>
<clipPath id="clip0_436_2222">
<rect width="60" height="68" fill="white"/>
</clipPath>
</defs>
</svg>
