<svg width="90" height="68" viewBox="0 0 90 68" fill="none" xmlns="http://www.w3.org/2000/svg">
<g clip-path="url(#clip0_436_2226)">
<path d="M8.3563 0H81.6073C86.2433 0 89.9958 4.74444 89.9958 10.6058V45.9573C89.9958 51.8187 86.2433 56.5631 81.6073 56.5631H55.3386L58.9442 67.7267L43.0871 56.5631H8.39286C3.75724 56.5631 0.00466453 51.8187 0.00466453 45.9573V10.6058C-0.0322461 4.79111 3.71998 0 8.3563 0Z" fill="#9B5C8F"/>
<path d="M5.12861 9.66664C5.64079 8.78753 6.40888 8.32531 7.43324 8.23286C9.29916 8.04753 10.3601 9.15731 10.616 11.5626C11.75 21.2293 12.9937 29.416 14.3106 36.1222L22.3219 16.8355C23.0538 15.0778 23.9685 14.1529 25.066 14.0604C26.6756 13.9218 27.6631 15.2164 28.0656 17.9453C28.9802 24.0964 30.1508 29.3231 31.5408 33.7631C32.492 22.0155 34.1017 13.5515 36.3697 8.32531C36.9181 7.0302 37.7231 6.38264 38.784 6.28975C39.6256 6.19775 40.3937 6.52131 41.0887 7.21508C41.7836 7.90886 42.1496 8.78753 42.2227 9.85153C42.2593 10.684 42.1496 11.3778 41.8571 12.0715C40.4303 15.4018 39.2593 20.9982 38.3084 28.768C37.3941 36.3071 37.0647 42.1813 37.2841 46.3902C37.3575 47.5457 37.2109 48.5635 36.8454 49.4426C36.4059 50.46 35.7479 51.0151 34.9063 51.1075C33.9551 51.2 32.9676 50.6453 32.0164 49.3964C28.6143 45.0022 25.9072 38.4346 23.9319 29.6933C21.5538 35.6133 19.7979 40.0533 18.6639 43.0133C16.5055 48.24 14.6765 50.9226 13.14 51.0613C12.1522 51.1537 11.311 50.0897 10.5794 47.8702C8.71386 41.8111 6.70171 30.1093 4.54367 12.7653C4.39708 11.5626 4.61644 10.4986 5.12861 9.66664V9.66664ZM83.7432 16.928C82.4264 14.0142 80.4874 12.2569 77.8903 11.5626C77.195 11.3778 76.5369 11.2853 75.9147 11.2853C72.4029 11.2853 69.5495 13.5978 67.318 18.2231C65.4156 22.1542 64.4647 26.5017 64.4647 31.2657C64.4647 34.8271 65.05 37.8795 66.2206 40.4235C67.5374 43.3373 69.4764 45.0946 72.0735 45.7884C72.7685 45.9737 73.4269 46.0662 74.0491 46.0662C77.5975 46.0662 80.4508 43.7537 82.6458 39.1284C84.5479 35.1506 85.4991 30.8031 85.4991 26.0395C85.5357 22.432 84.9138 19.4253 83.7432 16.928V16.928ZM79.134 29.7395C78.6218 32.792 77.7071 35.0582 76.3534 36.5844C75.2928 37.7871 74.305 38.2955 73.3907 38.0644C72.5126 37.8333 71.7807 36.8622 71.2323 35.0582C70.7929 33.6244 70.5739 32.1906 70.5739 30.8493C70.5739 29.6933 70.647 28.5369 70.8298 27.4733C71.1592 25.5769 71.7811 23.7266 72.7685 21.9693C73.976 19.7026 75.2563 18.7782 76.5731 19.1017C77.4512 19.3329 78.1831 20.3044 78.7315 22.108C79.1706 23.5418 79.3899 24.9755 79.3899 26.3169C79.3899 27.5195 79.3168 28.6755 79.134 29.7391V29.7395ZM60.8429 16.928C59.526 14.0142 57.5504 12.2569 54.9899 11.5626C54.2949 11.3778 53.6365 11.2853 53.0143 11.2853C49.5025 11.2853 46.6492 13.5978 44.4177 18.2231C42.5155 22.1542 41.5643 26.5017 41.5643 31.2657C41.5643 34.8271 42.1496 37.8795 43.3202 40.4235C44.637 43.3373 46.576 45.0946 49.1731 45.7884C49.8685 45.9737 50.5265 46.0662 51.1487 46.0662C54.6971 46.0662 57.5504 43.7537 59.7454 39.1284C61.6479 35.1506 62.5987 30.8031 62.5987 26.0395C62.5987 22.432 62.0135 19.4253 60.8429 16.928V16.928ZM56.197 29.7395C55.6849 32.792 54.7702 35.0582 53.4168 36.5844C52.3559 37.7871 51.3681 38.2955 50.4534 38.0644C49.5756 37.8333 48.8441 36.8622 48.295 35.0582C47.8563 33.6244 47.637 32.1906 47.637 30.8493C47.637 29.6933 47.7101 28.5369 47.8929 27.4733C48.2223 25.5769 48.8441 23.7266 49.8319 21.9693C51.0391 19.7026 52.3193 18.7782 53.6362 19.1017C54.5143 19.3329 55.2462 20.3044 55.7945 22.108C56.234 23.5418 56.453 24.9755 56.453 26.3169C56.4899 27.5195 56.3798 28.6755 56.197 29.7391V29.7395Z" fill="white"/>
</g>
<defs>
<clipPath id="clip0_436_2226">
<rect width="90" height="68" fill="white"/>
</clipPath>
</defs>
</svg>
