<svg width="59" height="68" viewBox="0 0 59 68" fill="none" xmlns="http://www.w3.org/2000/svg">
<g clip-path="url(#clip0_436_1887)">
<path d="M58.9007 47.9986C58.9002 49.1389 58.6621 50.1465 58.1807 51.0113C57.7078 51.8617 56.9995 52.5745 56.0495 53.138C48.2078 57.7698 40.3585 62.3874 32.5194 67.024C30.406 68.2738 28.3569 68.2282 26.2591 66.9605C23.1379 65.0748 7.51098 55.9035 2.85436 53.1406C0.936625 52.0034 0.00345703 50.2629 0.00299609 48.0007C0 38.6859 0.00299609 29.3713 0 20.0562C0.000460937 18.941 0.228395 17.9529 0.688641 17.1011C1.16179 16.225 1.87993 15.4927 2.85182 14.9164C7.50867 12.1535 23.1377 2.98287 26.2582 1.09677C28.3569 -0.171731 30.406 -0.217062 32.5201 1.03326C40.3595 5.67002 48.2092 10.2874 56.0521 14.9192C57.024 15.4953 57.7421 16.2281 58.2153 17.1035C58.6748 17.9553 58.9032 18.9433 58.9037 20.0588C58.9037 20.0588 58.9037 38.6835 58.9007 47.9986" fill="#5C8DBC"/>
<path d="M29.5418 34.1194L0.688477 17.1013C1.16163 16.2251 1.87977 15.4928 2.85166 14.9165C7.50851 12.1536 23.1375 2.98298 26.2581 1.09688C28.3567 -0.171619 30.4058 -0.216951 32.5199 1.03337C40.3593 5.67013 48.2091 10.2875 56.0519 14.9193C57.0238 15.4954 57.7419 16.2282 58.2151 17.1036L29.5418 34.1194" fill="#1A4674"/>
<path d="M20.9961 29.0784C22.6751 26.0759 25.8313 24.0507 29.452 24.0507C33.095 24.0507 36.2693 26.1016 37.9397 29.1363L29.5421 34.1194L20.9961 29.0784" fill="#1A4674"/>
<path d="M58.9007 47.9988C58.9003 49.1391 58.6622 50.1467 58.1807 51.0115L29.542 34.1194L58.2153 17.1036C58.6749 17.9554 58.9032 18.9435 58.9037 20.059C58.9037 20.059 58.9037 38.6837 58.9007 47.9988" fill="#1B598E"/>
<path d="M57.3243 32.9029H55.0836V30.6072H52.8426V32.9029H50.6022V35.1979H52.8426V37.4932H55.0836V35.1979H57.3243V32.9029ZM49.1484 32.9029H46.908V30.6072H44.6674V32.9029H42.4268V35.1979H44.6674V37.4932H46.908V35.1979H49.1484V32.9029Z" fill="white"/>
<path d="M37.9394 29.1363C36.2689 26.1016 33.0947 24.0507 29.4517 24.0507C25.831 24.0507 22.6747 26.0759 20.9958 29.0784C20.1523 30.5851 19.7094 32.2919 19.7111 34.0287C19.7111 39.5392 24.0723 44.0065 29.4517 44.0065C33.0491 44.0065 36.1887 42.0066 37.876 39.0347L46.3897 44.0568C43.0058 50.0406 36.6879 54.0664 29.4517 54.0664C18.6482 54.0664 9.89062 45.0951 9.89062 34.0287C9.89062 30.3982 10.8335 26.9935 12.4813 24.0569C15.8568 18.0413 22.1926 13.9908 29.4517 13.9908C36.7241 13.9908 43.0698 18.0576 46.4404 24.0909L37.9394 29.1363Z" fill="white"/>
</g>
<defs>
<clipPath id="clip0_436_1887">
<rect width="59" height="68" fill="white" transform="matrix(1 0 0 -1 0 68)"/>
</clipPath>
</defs>
</svg>
