<svg width="59" height="68" viewBox="0 0 59 68" fill="none" xmlns="http://www.w3.org/2000/svg">
<path d="M58.997 45.1841C58.9965 46.2602 58.7581 47.2111 58.2758 48.027C57.8021 48.8297 57.0928 49.5024 56.1412 50.0342C48.2867 54.4053 40.4245 58.7631 32.5726 63.1387C30.4557 64.3182 28.4033 64.275 26.3021 63.0785C23.1758 61.2992 7.52326 52.6441 2.85902 50.0367C0.938157 48.9632 0.00346269 47.3207 0.00300099 45.1861C0 36.3955 0.00300099 27.6049 0 18.8143C0 17.7618 0.228768 16.8291 0.689767 16.0255C1.16369 15.1987 1.88301 14.5075 2.85648 13.9637C7.52095 11.3562 23.1755 2.70177 26.3012 0.921813C28.4033 -0.275295 30.4557 -0.318077 32.5732 0.861652C40.4255 5.23746 48.2881 9.59522 56.1437 13.9663C57.1172 14.51 57.8365 15.2015 58.3105 16.0277C58.7708 16.8316 59 17.764 59 18.8167C59 18.8167 59 36.3932 58.997 45.1841Z" fill="#A179DC"/>
<path d="M29.5892 32L1 15.9826C1.46882 15.158 2.18039 14.4687 3.14338 13.9263C7.7576 11.3259 23.2435 2.69454 26.3355 0.919348C28.415 -0.274558 30.4453 -0.317226 32.54 0.859348C40.3077 5.22345 48.0856 9.56955 55.8566 13.929C56.8196 14.4712 57.5312 15.1609 58 15.9848L29.5892 32Z" fill="#280068"/>
<path d="M58.9969 45.157C58.9965 46.2332 58.7532 47.1841 58.2613 48L29 32.0583L58.2966 16C58.7662 16.8039 58.9995 17.7363 59 18.7891C59 18.7891 59 36.366 58.9969 45.157" fill="#390091"/>
<path d="M46.4012 38.2251V35.2388H49.498V38.2251H51.0464V35.2388H54.1431V33.7456H51.0464V30.7595H54.1431V29.2663H51.0464V26.28H49.498V29.2663H46.4012V26.28H44.8529V29.2663H41.7563V30.7595H44.8529V33.7456H41.7563V35.2388H44.8529V38.2251H46.4012ZM49.498 33.7458H46.4012V30.7595H49.498V33.7458Z" fill="white"/>
<path d="M29.5237 53.2229C37.6009 53.2229 44.6528 48.9928 48.4301 42.7049L48.3933 42.7654L38.8898 37.4887C37.0175 40.5458 33.5852 42.609 29.6475 42.6515L29.5234 42.6522C23.5191 42.6522 18.6513 37.9579 18.6513 32.1677C18.6493 30.3427 19.1437 28.549 20.0852 26.9659C21.9592 23.8109 25.4823 21.6829 29.5237 21.6829C33.5901 21.6829 37.1332 23.8379 38.9975 27.0266L38.9523 26.9501L48.4413 21.649C44.7054 15.4144 37.75 11.1973 29.7668 11.1133L29.5237 11.112C21.421 11.112 14.349 15.3683 10.5812 21.6894C8.74185 24.7752 7.68945 28.3526 7.68945 32.1677C7.68945 43.7961 17.4646 53.2231 29.5234 53.2231L29.5237 53.2229Z" fill="white"/>
</svg>
