<svg width="59" height="68" viewBox="0 0 59 68" fill="none" xmlns="http://www.w3.org/2000/svg">
<path d="M26.5104 1.90626C28.3615 0.842483 30.6385 0.842482 32.4896 1.90626L55.9896 15.4111C57.8518 16.4814 59 18.4654 59 20.6133V47.5749C59 49.7228 57.8518 51.7069 55.9896 52.7771L32.4896 66.282C30.6385 67.3458 28.3615 67.3458 26.5104 66.282L3.01044 52.7771C1.14815 51.7069 0 49.7228 0 47.5749V20.6133C0 18.4654 1.14815 16.4814 3.01044 15.4111L26.5104 1.90626Z" fill="url(#paint0_linear_436_1912)"/>
<path d="M6.51036 36.5729C6.39409 36.4451 6.25238 36.3436 6.09614 36.2722C5.93991 36.2008 5.77277 36.1669 5.602 36.1669C5.43122 36.1632 5.26409 36.2008 5.10785 36.2684C4.95161 36.3399 4.80991 36.4413 4.69364 36.5692C4.57373 36.6932 4.47926 36.8398 4.4175 37.0014C4.35573 37.1668 4.32303 37.3398 4.32303 37.5127C4.31939 37.6893 4.35209 37.8623 4.4175 38.0239C4.4829 38.1855 4.57737 38.3321 4.69727 38.4562C4.81357 38.584 4.95451 38.6852 5.11098 38.7532C5.26745 38.8212 5.43596 38.8545 5.60563 38.8509C5.77494 38.8518 5.94269 38.8174 6.09879 38.7495C6.25489 38.6817 6.39612 38.5819 6.51399 38.4562C6.63753 38.3359 6.73199 38.1893 6.7974 38.0276C6.8628 37.866 6.8955 37.6931 6.8955 37.5164C6.8955 37.3397 6.8628 37.1668 6.7974 37.0052C6.72836 36.8398 6.63389 36.6932 6.51036 36.5729V36.5729ZM21.7163 33.5206C21.6981 34.3626 21.7381 35.2084 21.8326 36.0466H21.789C21.6872 35.8399 21.4619 35.4565 21.1168 34.8964L12.8325 21.4429H10.3182V38.6178H12.2512V26.2018C12.273 25.4162 12.2403 24.6305 12.1603 23.8449H12.233C12.3711 24.2208 12.5491 24.5816 12.7599 24.92L21.2694 38.6178H23.6493V21.4429H21.7163V33.5206ZM36.7551 36.7308H29.9242V30.7803H35.9012V28.9684H29.9242V23.2622H36.3372V21.4429H27.944V38.6178H36.7442L36.7551 36.7308ZM38.2339 21.4429V23.2622H42.9937V38.6178H44.9267V23.2622H49.741V21.4429H38.2339ZM19.2891 42.8881C18.8063 43.0874 18.3703 43.3911 18.0102 43.7789C17.6396 44.1887 17.3489 44.6698 17.16 45.1999C16.971 45.7299 16.8874 46.29 16.9092 46.8501C16.8729 47.8875 17.2217 48.9025 17.8903 49.6768C18.2246 50.0415 18.6315 50.3234 19.082 50.5113C19.5326 50.6993 20.0158 50.782 20.4991 50.7594C21.2258 50.7857 21.9488 50.6279 22.6065 50.2971L22.6137 49.4212C22.0106 49.7859 21.3239 49.9663 20.6263 49.9475C20.252 49.9625 19.8778 49.8949 19.5326 49.7483C19.1874 49.6017 18.8749 49.3761 18.6206 49.0904C18.0887 48.4513 17.8154 47.6246 17.8576 46.7824C17.814 45.8915 18.1083 45.0194 18.6751 44.3503C18.944 44.0421 19.2746 43.8015 19.6416 43.6361C20.01 43.474 20.4078 43.3958 20.8079 43.4068C21.4438 43.3955 22.0687 43.5572 22.6246 43.8767V42.9332C22.0481 42.6926 21.4292 42.58 20.8079 42.6024C20.2883 42.5949 19.7688 42.6888 19.2891 42.8881V42.8881ZM28.3473 45.5795C28.1045 45.3153 27.8092 45.1086 27.4818 44.9736C27.1544 44.8386 26.8026 44.7786 26.4507 44.7976C26.0764 44.7788 25.7058 44.8427 25.357 44.9818C25.0082 45.1209 24.6921 45.3314 24.4232 45.5983C24.1616 45.899 23.9617 46.2486 23.8309 46.632C23.7001 47.0155 23.6456 47.4177 23.6711 47.8236C23.6347 48.5942 23.8927 49.3498 24.3869 49.9249C24.6339 50.1993 24.9319 50.4174 25.2662 50.564C25.6004 50.7068 25.9601 50.7782 26.3198 50.7632C26.6868 50.7745 27.0538 50.7031 27.3953 50.5564C27.7369 50.4098 28.0421 50.1881 28.2928 49.9061C28.8024 49.3119 29.0659 48.5343 29.0268 47.7409C29.0704 46.9516 28.8269 46.181 28.3473 45.5795ZM27.6824 49.44C27.5225 49.631 27.3225 49.7814 27.0976 49.8798C26.8727 49.9782 26.629 50.0219 26.3853 50.0076C26.1345 50.0189 25.8875 49.97 25.6586 49.8723C25.4297 49.7708 25.2262 49.6205 25.059 49.425C24.7108 48.979 24.5359 48.4147 24.5685 47.8424C24.5358 47.2523 24.7102 46.6696 25.059 46.2035C25.2226 46.008 25.426 45.8539 25.6549 45.7487C25.8838 45.6472 26.1345 45.5983 26.3816 45.6096C26.6287 45.5945 26.8721 45.6434 27.0974 45.7449C27.3227 45.8464 27.5225 46.0005 27.6824 46.196C28.0126 46.6686 28.1732 47.2455 28.1366 47.8274C28.1729 48.3988 28.013 48.9739 27.6824 49.44V49.44ZM31.8935 45.2111C31.621 45.463 31.4212 45.79 31.3231 46.1546V44.9743H30.4147V50.6279H31.3231V47.7447C31.294 47.2222 31.4248 46.6997 31.6937 46.2561C31.7918 46.0945 31.9226 45.9592 32.0825 45.8652C32.2423 45.7712 32.4204 45.7148 32.6021 45.7111C32.8346 45.6923 33.0671 45.7562 33.2633 45.8915V44.9593C33.0962 44.9029 32.9218 44.8766 32.7474 44.8841C32.4349 44.8803 32.1333 44.9969 31.8935 45.2111V45.2111ZM38.5791 47.5455C38.6227 46.8275 38.4156 46.1208 37.9977 45.5494C37.7906 45.3089 37.5363 45.1172 37.2492 44.9931C36.9622 44.8691 36.6533 44.8127 36.3445 44.8315C36.003 44.8202 35.6614 44.8916 35.3453 45.0345C35.0328 45.1773 34.7531 45.3916 34.5278 45.6622C34.0344 46.2577 33.7785 47.0251 33.812 47.8086C33.7648 48.5905 34.0009 49.3648 34.4733 49.9738C34.7022 50.2332 34.9856 50.4362 35.2981 50.5715C35.6105 50.7068 35.9521 50.7632 36.29 50.7482C36.9622 50.782 37.6271 50.594 38.1866 50.2106V49.3611C37.7086 49.7629 37.1131 49.9855 36.4971 49.9926C36.2609 50.0076 36.0211 49.97 35.7995 49.8798C35.5778 49.7896 35.3744 49.658 35.2072 49.4814C34.8826 49.0749 34.7179 48.5569 34.7458 48.0304H38.5863L38.5791 47.5455ZM34.7385 47.2823C34.7858 46.835 34.9747 46.414 35.2726 46.087C35.4061 45.9385 35.5683 45.8207 35.7485 45.7411C35.9287 45.6614 36.1231 45.6218 36.3191 45.6246C36.508 45.6133 36.6933 45.6472 36.8677 45.7224C37.0421 45.7975 37.1947 45.9103 37.3183 46.0569C37.5726 46.4065 37.6998 46.835 37.6816 47.2711L34.7385 47.2823Z" fill="white"/>
<defs>
<linearGradient id="paint0_linear_436_1912" x1="7.7783" y1="13.3457" x2="30.4395" y2="67.6077" gradientUnits="userSpaceOnUse">
<stop offset="0.311718" stop-color="#23A8D2"/>
<stop offset="1" stop-color="#070D9E"/>
</linearGradient>
</defs>
</svg>
