<svg width="66" height="68" viewBox="0 0 66 68" fill="none" xmlns="http://www.w3.org/2000/svg">
<g clip-path="url(#clip0_436_1872)">
<path d="M66 34C66 52.7763 51.2241 68 33 68C16.1845 68 2.30663 55.044 0.261183 38.2904C0.0880391 36.8663 0 35.4332 0 34C0 31.3393 0.296398 28.7481 0.856914 26.2627C4.25816 11.2144 17.3584 0 33 0C48.6035 0 61.6773 11.157 65.1137 26.1508C65.5715 28.1403 65.8503 30.1691 65.953 32.2131C65.9853 32.8087 66 33.4044 66 34Z" fill="#F2F2F2"/>
<path d="M31.3508 36.7303V27.8894L23.9202 23.4719L16.4897 27.8894V36.7303L23.9202 41.1507L31.3508 36.7303Z" fill="#3B8739"/>
<path d="M60.6121 35.3878L65.4543 38.2693L60.6121 41.1507L53.1816 36.7303V27.8924L60.6121 23.4719L65.1139 26.1508C65.5717 28.1403 65.8505 30.1691 65.9532 32.2131L63.2005 33.8518V30.7738L60.6121 29.2348L58.0238 30.7738V33.8518L60.6121 35.3878Z" fill="#333333"/>
<path d="M62.0556 33.1686V31.4512L60.6147 30.5925L59.1709 31.4512V33.1686L60.6147 34.0273L62.0556 33.1686Z" fill="#66A060"/>
<path d="M12.9799 27.8924V39.5482L8.0233 36.6365V30.6589L5.5494 29.1865L3.0755 30.6589V36.6335L0.261183 38.2874C0.0880391 36.8663 0 35.4332 0 34C0 31.3392 0.296398 28.748 0.856914 26.2627L5.5494 23.4719L12.9799 27.8924Z" fill="#333333"/>
<path d="M23.9173 23.469L31.3478 36.7273L23.9173 41.1478L16.4897 27.8894L23.9173 23.469Z" fill="#6DA75D"/>
<path d="M16.4897 36.7303L19.0399 32.4429L16.4897 27.8894V36.7303Z" fill="#55A344"/>
<path d="M28.8711 32.3098L31.348 27.8894L23.9204 23.4719L28.8711 32.3098Z" fill="#639D57"/>
<path d="M44.674 13.2251V24.9535L42.1825 23.472L34.752 27.8924V36.7333L42.1825 41.1538L49.613 36.7333V15.9493L44.674 13.2251ZM44.6593 33.7823L42.1825 35.2548L39.7056 33.7823V30.8374L42.1825 29.3649L44.6593 30.8374V33.7823Z" fill="#333333"/>
<path d="M36.3719 47.6423C36.3719 47.6423 36.2252 46.3512 34.884 46.3512C33.5429 46.3512 32.6244 46.5326 32.6244 47.2976C32.6244 48.0626 35.2333 48.0626 36.2252 48.3649C37.2171 48.6643 38.0916 49.4474 37.6543 50.8291C37.2171 52.2109 35.8759 52.3621 33.8041 52.3621C31.7322 52.3621 31.2656 50.5903 31.2656 49.8979H32.4336C32.4336 49.8979 32.2869 50.9803 33.6574 51.1587C35.0278 51.3371 36.3396 51.4399 36.5157 50.3484C36.7505 48.9061 32.0815 49.6258 31.6735 48.2137C31.3273 47.0194 31.5268 45.4502 33.8598 45.2083C36.1929 44.9664 37.4753 46.0307 37.4753 47.6121L36.3719 47.6423Z" fill="#66A060"/>
<path d="M25.1001 53.2752L27.6796 54.8082C28.9768 55.5792 30.5967 54.6147 30.5967 53.0726V45.4351H29.5461V52.7703C29.5461 53.6108 28.6627 54.14 27.9526 53.7167L26.1536 52.6463V44.8183L32.7331 40.9058L39.3125 44.8183V52.6463L32.7331 56.5588L30.8373 55.431L29.5989 55.945L32.7331 57.8075L40.3631 53.2692V44.1924L32.7331 39.6541L25.103 44.1924L25.1001 53.2752Z" fill="#66A060"/>
</g>
<defs>
<clipPath id="clip0_436_1872">
<rect width="66" height="68" fill="white"/>
</clipPath>
</defs>
</svg>
