<svg width="78" height="68" viewBox="0 0 78 68" fill="none" xmlns="http://www.w3.org/2000/svg">
<path d="M38.7353 68C60.1282 68 77.4706 52.7777 77.4706 34C77.4706 15.2223 60.1282 0 38.7353 0C17.3424 0 0 15.2223 0 34C0 52.7777 17.3424 68 38.7353 68Z" fill="#8993BE"/>
<path fill-rule="evenodd" clip-rule="evenodd" d="M10.8774 54.1316L15.1226 17.8945H24.9387C29.1835 18.342 31.3061 21.9206 31.3061 28.1843C31.3061 38.9211 26.2653 45.1843 21.7548 44.7368H16.9798L15.9185 54.1316H10.8774ZM18.0407 38.0266L19.3674 24.6052H22.8164C24.6736 24.6052 25.9999 25.9473 25.9999 28.6313C25.7348 36.2371 23.6123 37.5791 21.2246 38.0266H18.041H18.0407ZM30.3198 44.7368L34.5647 8.50024H39.6057L38.5444 17.8945H43.3197C47.5649 18.342 49.1567 21.9206 48.6262 26.3948L46.769 44.7368H41.4629L43.3201 28.1843C43.5851 25.9473 43.5852 24.6052 41.7283 24.6052H37.7485L35.3609 44.7368H30.3198V44.7368ZM46.4292 54.1316L50.674 17.8945H60.4904C64.7355 18.342 66.8581 21.9206 66.8581 28.1843C66.8581 38.9211 61.8171 45.1843 57.3068 44.7368H52.5312L51.4699 54.1316H46.4292V54.1316ZM53.5922 38.0266L54.9188 24.6052H58.3681C60.2253 24.6052 61.5517 25.9473 61.5517 28.6313C61.2866 36.2371 59.164 37.5791 56.7763 38.0266H53.5925H53.5922Z" fill="#232531"/>
</svg>
