<svg width="93" height="69" viewBox="0 0 93 69" fill="none" xmlns="http://www.w3.org/2000/svg">
<path fill-rule="evenodd" clip-rule="evenodd" d="M80.9487 59.5061V68.4001H88.6302C90.2041 68.4001 92.9055 65.9923 92.9995 59.2604V55.8208C92.9995 50.0716 90.7443 46.6811 88.6302 46.6811H84.8012V42.5535H92.3887V33.6104H85.1066C83.2273 33.6104 80.7138 36.8535 80.7138 42.8975V45.9932C80.7138 52.0371 83.2038 55.1328 85.1066 55.1328C90.392 55.182 83.8381 55.1328 88.7241 55.1328V59.457M39.7928 57.344C39.7928 57.344 43.9037 56.607 43.9037 45.5018C43.9037 34.3966 38.9237 33.3647 38.9237 33.3647H29.9502V68.4001H34.4604V59.9483L38.3599 68.4001H45.0313L39.7928 57.344ZM38.0545 50.1699H34.4604V42.1604H38.078C38.078 42.1604 39.0881 42.9466 39.0881 46.1406C39.0881 49.3346 38.0545 50.1699 38.0545 50.1699V50.1699ZM55.0384 33.6104H50.4577C47.1924 33.6104 46.0884 39.8018 46.0884 42.7501V68.4001H50.6691V62.2578H54.9679V68.4001H59.4076V42.7501C59.4076 35.2811 56.1659 33.6104 55.0384 33.6104V33.6104ZM54.9679 52.332H50.6456V43.8311C50.6456 43.8311 50.6456 41.9147 52.0785 41.9147H53.6524C54.9209 41.9147 54.9444 43.8311 54.9444 43.8311V52.332H54.9679ZM61.4983 33.6104H66.267V68.4001H61.4983V33.6104ZM68.2167 33.6104V68.4001H79.3748V59.4078H72.9618V33.6104H68.2167Z" fill="#CC0000"/>
<path fill-rule="evenodd" clip-rule="evenodd" d="M1.64453 68.3997H20.2022C20.2022 68.3997 16.6551 34.5437 28.4005 20.8342C30.961 18.2299 39.1123 8.50063 52.4551 29.1385C52.8779 28.4015 53.2773 27.8118 53.2773 27.8118C53.2773 27.8118 41.0621 2.30925 27.4609 5.15925C20.6251 6.43684 12.2154 19.4584 7.28232 36.6566C2.34925 53.8549 1.64453 68.3997 1.64453 68.3997Z" fill="#CC0000"/>
<path fill-rule="evenodd" clip-rule="evenodd" d="M1.64453 68.3997H20.2022C20.2022 68.3997 16.6551 34.5437 28.4005 20.8342C30.961 18.2299 39.1123 8.50063 52.4551 29.1385C52.8779 28.4015 53.2773 27.8118 53.2773 27.8118C53.2773 27.8118 41.0621 2.30925 27.4609 5.15925C20.6251 6.43684 12.2154 19.4584 7.28232 36.6566C2.34925 53.8549 1.64453 68.3997 1.64453 68.3997Z" fill="#CC0000"/>
<path fill-rule="evenodd" clip-rule="evenodd" d="M1.64453 68.3998H20.2022C20.2022 68.3998 16.6551 34.5437 28.4005 20.8343C30.961 18.23 39.1123 8.50065 52.4551 29.1386C52.8779 28.4015 53.2773 27.8118 53.2773 27.8118C53.2773 27.8118 41.0621 2.30927 27.4609 5.15927C20.6016 6.43686 12.1919 19.4584 7.25883 36.6567C2.32576 53.8549 1.64453 68.3998 1.64453 68.3998V68.3998ZM40.3104 7.91099L40.4043 4.61875C40.1929 4.37306 39.6056 3.78341 38.1257 2.89893L38.0318 6.14203C38.8069 6.68255 39.5587 7.2722 40.3104 7.91099Z" fill="#CC0000"/>
<path fill-rule="evenodd" clip-rule="evenodd" d="M38.0786 18.3284L37.9846 21.4241C38.7598 21.4733 39.535 21.6698 40.3102 22.0138L40.4041 18.9672C39.6055 18.6233 38.8303 18.4267 38.0786 18.3284ZM29.387 2.99741H29.6219L29.1521 0C28.4238 0 27.6721 0.0982758 26.8969 0.294827L27.3433 3.19396C28.0245 3.04655 28.7057 2.99741 29.387 2.99741V2.99741ZM30.5145 21.0802L31.0548 24.4707C31.736 23.7827 32.4173 23.1931 33.0985 22.7508L32.5817 19.5077C31.783 19.9991 31.1018 20.5396 30.5145 21.0802ZM19.8497 8.15689L18.7926 4.76638C18.2054 5.40517 17.5946 6.0931 16.9603 6.87931L18.0409 10.319C18.6517 9.53275 19.239 8.79569 19.8497 8.15689ZM24.6653 30.2689L25.7929 33.8069C26.1922 32.5784 26.662 31.4483 27.1788 30.3181L26.1218 26.9767C25.5815 28.0086 25.0882 29.1388 24.6653 30.2689ZM21.2592 46.0914L23.1619 49.2362C23.2559 47.3198 23.4203 45.4034 23.6552 43.487L21.9639 40.6862C21.6585 42.5043 21.4471 44.3224 21.2592 46.0914V46.0914ZM10.9702 22.7508L9.30235 19.7043C8.69159 20.9327 8.10432 22.1612 7.56403 23.3896L9.37282 26.6327C9.86613 25.306 10.4064 23.9793 10.9702 22.7508ZM3.87598 44.7155L1.17454 42.6517C0.728214 44.7646 0.234908 47.2215 0 48.5483L2.70144 50.612C3.00682 48.9414 3.50013 46.5336 3.87598 44.7155ZM20.9068 58.5724C20.9538 61.1767 21.0712 63.2896 21.1887 64.7638L24.0076 66.8767C23.7962 64.9603 23.5847 62.7982 23.4438 60.4888L20.9068 58.5724Z" fill="#CC0000"/>
</svg>
