<svg width="107" height="68" viewBox="0 0 107 68" fill="none" xmlns="http://www.w3.org/2000/svg">
<g clip-path="url(#clip0_436_2118)">
<path d="M30.5009 24.6963C30.5009 26.0957 30.6404 27.2303 30.8845 28.0623C31.1635 28.8943 31.5122 29.802 32.0005 30.7853C32.1748 31.0879 32.2446 31.3904 32.2446 31.6552C32.2446 32.0334 32.0353 32.4116 31.582 32.7898L29.385 34.3782C29.0711 34.6051 28.7573 34.7186 28.4783 34.7186C28.1295 34.7186 27.7808 34.5295 27.4321 34.1891C26.9439 33.6218 26.5254 33.0167 26.1766 32.4116C25.8279 31.7686 25.4792 31.0501 25.0956 30.1802C22.3755 33.6596 18.9579 35.3993 14.8429 35.3993C11.9135 35.3993 9.577 34.4917 7.86821 32.6763C6.15943 30.861 5.2876 28.4405 5.2876 25.4149C5.2876 22.2002 6.33379 19.5907 8.46106 17.624C10.5883 15.6574 13.4131 14.6741 17.005 14.6741C18.1907 14.6741 19.4112 14.7875 20.7015 14.9766C21.9919 15.1657 23.317 15.4683 24.712 15.8087V13.0478C24.712 10.1735 24.154 8.16908 23.0729 6.99666C21.957 5.82425 20.0738 5.25695 17.3886 5.25695C16.168 5.25695 14.9126 5.40823 13.6223 5.74861C12.332 6.08899 11.0765 6.50501 9.85599 7.03448C9.29802 7.29922 8.87954 7.4505 8.63542 7.52614C8.39131 7.60178 8.21695 7.6396 8.07745 7.6396C7.58923 7.6396 7.34512 7.2614 7.34512 6.46719V4.61402C7.34512 4.0089 7.41486 3.55506 7.58923 3.29032C7.76359 3.02558 8.07745 2.76085 8.56568 2.49611C9.78624 1.81535 11.2509 1.24805 12.9597 0.794216C14.6685 0.302558 16.4819 0.0756396 18.3999 0.0756396C22.5498 0.0756396 25.5838 1.09677 27.5367 3.13904C29.4547 5.18131 30.4312 8.28254 30.4312 12.4427V24.6963H30.5009ZM16.3424 30.4449C17.4932 30.4449 18.6789 30.218 19.9343 29.7642C21.1898 29.3104 22.3057 28.4783 23.2473 27.3437C23.8053 26.6251 24.2237 25.8309 24.433 24.9233C24.6422 24.0156 24.7817 22.9188 24.7817 21.6329V20.0445C23.7704 19.7798 22.6893 19.5528 21.5734 19.4016C20.4574 19.2503 19.3764 19.1746 18.2953 19.1746C15.9588 19.1746 14.25 19.6663 13.0992 20.6874C11.9484 21.7086 11.3904 23.1457 11.3904 25.0367C11.3904 26.8142 11.8089 28.1379 12.6807 29.0456C13.5177 29.9911 14.7382 30.4449 16.3424 30.4449V30.4449ZM44.3456 34.5295C43.7179 34.5295 43.2994 34.416 43.0204 34.1513C42.7414 33.9244 42.4973 33.3949 42.2881 32.6763L34.0929 3.4416C33.8836 2.68521 33.779 2.19355 33.779 1.92881C33.779 1.32369 34.058 0.983315 34.616 0.983315H38.0335C38.6961 0.983315 39.1495 1.09677 39.3936 1.36151C39.6726 1.58843 39.8818 2.11791 40.091 2.83649L45.9497 27.8732L51.39 2.83649C51.5643 2.08009 51.7736 1.58843 52.0526 1.36151C52.3315 1.13459 52.8198 0.983315 53.4475 0.983315H56.2373C56.8999 0.983315 57.3533 1.09677 57.6323 1.36151C57.9112 1.58843 58.1554 2.11791 58.2949 2.83649L63.8048 28.1758L69.8379 2.83649C70.0471 2.08009 70.2912 1.58843 70.5353 1.36151C70.8143 1.13459 71.2677 0.983315 71.8954 0.983315H75.1386C75.6966 0.983315 76.0104 1.28587 76.0104 1.92881C76.0104 2.11791 75.9756 2.30701 75.9407 2.53393C75.9058 2.76085 75.8361 3.0634 75.6966 3.47942L67.2921 32.7141C67.0829 33.4705 66.8388 33.9622 66.5598 34.1891C66.2808 34.416 65.8275 34.5673 65.2346 34.5673H62.2355C61.5729 34.5673 61.1196 34.4538 60.8406 34.1891C60.5616 33.9244 60.3175 33.4327 60.178 32.6763L54.7727 8.28254L49.4022 32.6385C49.2278 33.3949 49.0186 33.8865 48.7396 34.1513C48.4606 34.416 47.9724 34.5295 47.3447 34.5295H44.3456ZM89.1576 35.5506C87.3442 35.5506 85.5308 35.3237 83.7872 34.8699C82.0435 34.416 80.6834 33.9244 79.7767 33.3571C79.2188 33.0167 78.8352 32.6385 78.6957 32.2981C78.5562 31.9577 78.4864 31.5795 78.4864 31.2392V29.3103C78.4864 28.5161 78.7654 28.1379 79.2885 28.1379C79.4978 28.1379 79.707 28.1758 79.9162 28.2514C80.1255 28.327 80.4393 28.4783 80.7881 28.6296C81.9738 29.1969 83.2641 29.6507 84.6241 29.9533C86.019 30.2558 87.3791 30.4071 88.774 30.4071C90.971 30.4071 92.6798 29.9911 93.8655 29.1591C95.0512 28.327 95.6789 27.1168 95.6789 25.5662C95.6789 24.5072 95.3651 23.6374 94.7373 22.9188C94.1096 22.2002 92.9239 21.5573 91.2152 20.9522L86.1585 19.2503C83.6128 18.3804 81.7296 17.0946 80.5788 15.3927C79.428 13.7286 78.8352 11.8754 78.8352 9.90879C78.8352 8.32036 79.149 6.92102 79.7767 5.71079C80.4045 4.50056 81.2414 3.4416 82.2876 2.60957C83.3338 1.73971 84.5195 1.09677 85.9144 0.642937C87.3094 0.189099 88.774 0 90.3084 0C91.0757 0 91.8777 0.0378198 92.645 0.151279C93.447 0.264739 94.1794 0.416018 94.9117 0.567297C95.6092 0.756396 96.2718 0.945495 96.8995 1.17241C97.5272 1.39933 98.0154 1.62625 98.3642 1.85317C98.8524 2.15573 99.2011 2.45829 99.4104 2.79867C99.6196 3.10122 99.7242 3.51724 99.7242 4.04672V5.82425C99.7242 6.61847 99.4452 7.03448 98.9221 7.03448C98.6431 7.03448 98.1898 6.8832 97.5969 6.58065C95.6092 5.59733 93.3773 5.10567 90.9013 5.10567C88.9135 5.10567 87.3442 5.44605 86.2632 6.16463C85.1821 6.8832 84.6241 7.97998 84.6241 9.53059C84.6241 10.5895 84.9729 11.4972 85.6703 12.2158C86.3678 12.9344 87.6581 13.653 89.5064 14.2959L94.4584 15.9978C96.9692 16.8676 98.7826 18.0779 99.8637 19.6285C100.945 21.1791 101.468 22.9566 101.468 24.9233C101.468 26.5495 101.154 28.0245 100.561 29.3103C99.9334 30.5962 99.0965 31.7308 98.0154 32.6385C96.9344 33.584 95.644 34.2647 94.1445 34.7564C92.5752 35.2859 90.9362 35.5506 89.1576 35.5506V35.5506Z" fill="#252F3E"/>
<path fill-rule="evenodd" clip-rule="evenodd" d="M95.7486 53.931C84.2754 63.1212 67.606 67.9999 53.2731 67.9999C33.1861 67.9999 15.087 59.9443 1.41667 46.5561C0.335596 45.4972 1.31205 44.06 2.60235 44.892C17.3886 54.1957 35.6273 59.8309 54.4937 59.8309C67.2224 59.8309 81.2065 56.9566 94.0747 51.0567C95.9928 50.1112 97.6318 52.4182 95.7486 53.931V53.931Z" fill="#FF9900"/>
<path fill-rule="evenodd" clip-rule="evenodd" d="M100.526 48.0312C99.0616 45.9889 90.8315 47.0478 87.1 47.5395C85.9841 47.6908 85.8097 46.6318 86.8211 45.8376C93.3772 40.8454 104.153 42.2825 105.408 43.9466C106.664 45.6485 105.06 57.3348 98.9221 62.9322C97.9805 63.802 97.0738 63.3482 97.4923 62.2136C98.8872 58.4694 101.991 50.0356 100.526 48.0312V48.0312Z" fill="#FF9900"/>
</g>
<defs>
<clipPath id="clip0_436_2118">
<rect width="107" height="68" fill="white"/>
</clipPath>
</defs>
</svg>
