<svg width="81" height="65" viewBox="0 0 81 65" fill="none" xmlns="http://www.w3.org/2000/svg">
<g clip-path="url(#clip0_436_2179)">
<path d="M51.397 17.8995H53.8687L60.9104 10.8778L61.2567 7.89849C48.1546 -3.63284 28.1533 -2.39033 16.5891 10.6747C13.3738 14.304 11.0413 18.6207 9.77148 23.2928C10.5558 22.9711 11.425 22.9204 12.2432 23.1438L26.3232 20.8281C26.3232 20.8281 27.0396 19.6465 27.4097 19.721C33.6739 12.8618 44.2161 12.0628 51.4479 17.8995H51.397Z" fill="#EA4335"/>
<path d="M70.9397 23.293C69.3201 17.3512 65.9996 12.0088 61.3787 7.92236L51.4986 17.7744C55.6713 21.1736 58.048 26.296 57.9461 31.6689V33.4193C62.8047 33.4193 66.7398 37.3466 66.7398 42.188C66.7398 47.0327 62.8013 50.9566 57.9461 50.9566H40.3554L38.6001 52.7307V63.2497L40.3554 65.0001H57.9461C68.0299 65.078 76.9764 58.5607 79.971 48.9591C82.9588 39.3542 79.2919 28.9266 70.9397 23.293Z" fill="#4285F4"/>
<path d="M22.741 64.9017H40.3317V50.8616H22.741C21.4882 50.8616 20.2489 50.5941 19.1081 50.0728L16.6364 50.8345L9.54713 57.8562L8.9292 60.3209C12.905 63.3138 17.7568 64.922 22.741 64.9017Z" fill="#34A853"/>
<path d="M22.7411 19.3522C12.9696 19.4097 4.31518 25.6494 1.19836 34.8819C-1.91847 44.1144 1.18817 54.305 8.93269 60.2434L19.1354 50.0697C14.708 48.0755 12.7421 42.882 14.7419 38.4672C16.7417 34.0524 21.95 32.0922 26.3774 34.0863C28.3262 34.9665 29.8881 36.5239 30.7708 38.4672L40.9735 28.2935C36.631 22.6362 29.8847 19.3285 22.7411 19.3522Z" fill="#FBBC05"/>
</g>
<defs>
<clipPath id="clip0_436_2179">
<rect width="81" height="65" fill="white"/>
</clipPath>
</defs>
</svg>
