<svg width="70" height="63" viewBox="0 0 70 63" fill="none" xmlns="http://www.w3.org/2000/svg">
<path d="M60.3811 2.87929C53.1062 -1.71489 43.5292 -0.620359 34.9874 4.80449C26.4727 -0.620359 16.8896 -1.71489 9.62378 2.87929C-1.86991 10.1391 -3.26721 28.8364 6.50543 44.6427C13.7092 56.296 24.9744 63.1241 35.0024 62.9983C45.0304 63.1243 56.2955 56.296 63.4992 44.6429C73.2603 28.8364 71.8748 10.1393 60.3809 2.87929H60.3811ZM11.7896 41.3052C9.77438 38.0763 8.25393 34.5579 7.27979 30.8694C6.4144 27.6677 6.08354 24.3425 6.30084 21.0307C6.73716 15.1891 9.08975 10.64 12.9229 8.22002C16.7562 5.80008 21.8236 5.65314 27.2203 7.81811C28.0302 8.14497 28.8314 8.52297 29.6265 8.9397C26.6275 11.7036 24.0198 14.8721 21.877 18.3558C15.9431 27.9518 14.1334 38.6303 16.2044 47.1438C14.5531 45.3433 13.0748 43.3884 11.7896 41.3052V41.3052ZM62.728 30.8666C61.7526 34.5547 60.2322 38.0729 58.2182 41.3024C56.9319 43.3885 55.4537 45.3473 53.8034 47.1529C55.655 39.521 54.3968 30.1709 49.8575 21.4026C49.7851 21.2581 49.6834 21.1307 49.5591 21.0285C49.4348 20.9262 49.2907 20.8515 49.1361 20.8091C48.9814 20.7667 48.8197 20.7576 48.6614 20.7823C48.503 20.807 48.3516 20.8651 48.2168 20.9527L34.0649 29.889C33.9358 29.9704 33.8239 30.0768 33.7355 30.202C33.6472 30.3272 33.5841 30.4687 33.5499 30.6186C33.5157 30.7684 33.5111 30.9236 33.5364 31.0753C33.5616 31.2269 33.6162 31.3721 33.697 31.5024L35.7739 34.8581C35.8541 34.9884 35.9591 35.1015 36.0826 35.1907C36.2062 35.28 36.346 35.3437 36.494 35.3782C36.6421 35.4128 36.7953 35.4174 36.9451 35.392C37.0949 35.3665 37.2383 35.3114 37.3669 35.2298L46.5405 29.4362C46.8373 30.3358 47.1339 31.2354 47.3565 32.1352C48.2217 35.3328 48.5536 38.6538 48.3385 41.962C47.9022 47.8007 45.5496 52.3496 41.7165 54.7727C39.7393 55.9945 37.4738 56.6573 35.1566 56.6918H34.8631C32.5458 56.658 30.2801 55.9952 28.3032 54.7727C24.467 52.3496 22.1142 47.8007 21.6783 41.962C21.4622 38.6502 21.7931 35.325 22.6572 32.1229C24.6456 24.715 28.7558 18.0662 34.4713 13.0121C36.9361 10.8253 39.7435 9.06794 42.7787 7.812C48.1605 5.64684 53.2368 5.79081 57.073 8.2139C60.9092 10.6368 63.2589 15.1828 63.695 21.0246C63.9151 24.3367 63.5882 27.6628 62.7278 30.8665L62.728 30.8666Z" fill="#1BDBDB"/>
</svg>
