<svg width="28" height="32" viewBox="0 0 28 32" fill="none" xmlns="http://www.w3.org/2000/svg">
<path fill-rule="evenodd" clip-rule="evenodd" d="M14.2463 16.602L16.9193 19.8502L6.26904 26.2983L14.2463 16.602ZM18.0365 11.9959L23.9628 15.585L18.0313 19.1774L15.0798 15.5902L18.0365 11.9959ZM6.25408 4.86452L16.9245 11.3231L14.2463 14.5784L6.25408 4.86452ZM1.43194 1.94495L2.9376 2.85655L13.4154 15.5902L2.95061 28.307L1.43194 29.2257V1.94495ZM0.819657 0.16276C0.797534 0.16276 0.775411 0.163411 0.753939 0.165363C0.414287 0.184232 0.147511 0.465323 0.146861 0.805625V30.365C0.145559 30.5973 0.270489 30.8127 0.472848 30.9272C0.675858 31.0417 0.923764 31.0378 1.12287 30.9168L3.6156 29.4086C3.6657 29.3858 3.7132 29.3572 3.75614 29.3233L25.5413 16.1374C25.7346 16.021 25.853 15.8121 25.853 15.5863C25.853 15.3605 25.7346 15.1517 25.5413 15.0352L3.7659 1.85646C3.76135 1.85386 3.75745 1.85191 3.75354 1.8493C3.70734 1.81157 3.65659 1.78033 3.60258 1.75626L1.12287 0.255156C1.03047 0.199198 0.926367 0.167315 0.819006 0.162109L0.819657 0.16276Z" fill="black"/>
<mask id="mask0_39_1015" style="mask-type:alpha" maskUnits="userSpaceOnUse" x="0" y="0" width="26" height="32">
<path fill-rule="evenodd" clip-rule="evenodd" d="M0 0H26V31.1572H0V0Z" fill="white"/>
</mask>
<g mask="url(#mask0_39_1015)">
<path fill-rule="evenodd" clip-rule="evenodd" d="M6.91407 5.43588L14.2465 14.3475L16.7034 11.3609L6.91407 5.43588ZM14.2465 14.8095L5.59385 4.2933L17.1459 11.2854L14.2465 14.8095ZM15.27 15.5903L18.064 18.9855L23.6793 15.5851L18.0692 12.1873L15.27 15.5903ZM17.9989 19.3687L14.8894 15.5903L18.0035 11.804L24.2467 15.5851L17.9989 19.3687ZM14.2465 16.8331L6.92969 25.7271L16.6982 19.8125L14.2465 16.8331ZM5.60882 26.8704L14.2465 16.3711L17.1407 19.888L5.60882 26.8704ZM1.57855 2.20529V28.9649L2.85322 28.1945L13.2256 15.5903L2.84021 2.96918L1.57855 2.20529ZM1.2851 29.4861V1.68475L3.03541 2.74405L3.05102 2.76292L13.6056 15.5903L3.04777 28.4196L1.2851 29.4861ZM0.811408 0.309883C0.796442 0.309883 0.782127 0.310533 0.767812 0.311835C0.500386 0.3268 0.294123 0.543474 0.293472 0.805696V30.3651C0.292821 30.5447 0.389121 30.7113 0.545282 30.7998C0.701444 30.8876 0.893392 30.8844 1.04695 30.7913L3.55595 29.2739C3.59499 29.257 3.63142 29.2349 3.66526 29.2082L3.68022 29.1978L25.4654 16.0113C25.6144 15.9221 25.7062 15.7595 25.7062 15.5864C25.7062 15.4133 25.6144 15.2506 25.4654 15.1615L3.68999 1.98211C3.68283 1.97821 3.67827 1.97561 3.67372 1.973L3.6594 1.96194C3.62427 1.93331 3.58523 1.90924 3.54358 1.89102L3.52667 1.88191L1.0463 0.380806C0.979932 0.340464 0.903803 0.315739 0.826373 0.309883H0.817264C0.815312 0.309883 0.81336 0.309883 0.811408 0.309883ZM0.789285 31.157C0.655246 31.157 0.521207 31.1232 0.400833 31.0555C0.151625 30.9143 -0.00193363 30.6495 1.83916e-05 30.3645V0.805696C0.000669065 0.458887 0.225802 0.16218 0.540728 0.0580723L0.491927 -0.000488281L0.825722 0.0157785C0.957158 0.0222853 1.08664 0.0613257 1.19856 0.129646L3.67112 1.62619C3.73098 1.65287 3.78694 1.68736 3.83769 1.72835L3.84159 1.73095L25.6177 14.9097C25.8532 15.0515 26.0003 15.3105 26.0003 15.5864C26.0003 15.8616 25.8532 16.1212 25.617 16.2631L3.83964 29.4444C3.79214 29.4815 3.73944 29.5134 3.68413 29.5388L1.19921 31.0425C1.07363 31.1192 0.931131 31.157 0.789285 31.157Z" fill="black"/>
</g>
<path fill-rule="evenodd" clip-rule="evenodd" d="M15.27 15.5867L18.9942 20.2566L25.5991 16.4077C26.2654 16.0194 26.26 15.055 25.5895 14.6742L18.9942 10.9282L15.27 15.5867Z" fill="#0091FF"/>
</svg>
