<svg width="35" height="31" viewBox="0 0 35 31" fill="none" xmlns="http://www.w3.org/2000/svg">
<mask id="mask0_39_1060" style="mask-type:alpha" maskUnits="userSpaceOnUse" x="2" y="0" width="33" height="31">
<path fill-rule="evenodd" clip-rule="evenodd" d="M2.58246 0H34.5825V30.4846H2.58246V0Z" fill="white"/>
</mask>
<g mask="url(#mask0_39_1060)">
<path fill-rule="evenodd" clip-rule="evenodd" d="M15.9064 9.43715C15.9036 9.12616 15.7658 8.93583 15.5299 8.80441C15.1136 8.57263 14.701 8.33448 14.2828 8.10633C13.8859 7.88981 13.5392 7.98647 13.3038 8.37887C13.0853 8.74307 12.881 9.11584 12.6606 9.47873C12.5763 9.61747 12.5663 9.6965 12.7291 9.79129C13.4364 10.2031 14.1364 10.6278 14.836 11.0528C14.9521 11.1234 15.0173 11.1432 15.0974 10.9969C15.326 10.579 15.5752 10.1724 15.8137 9.75977C15.8767 9.65073 15.9154 9.53256 15.9064 9.43715ZM7.74675 15.3213C6.49783 15.3213 5.31357 15.3252 4.12936 15.3173C3.94436 15.316 3.90509 15.3816 3.90684 15.5512C3.91459 16.2888 3.91422 17.0267 3.90709 17.7643C3.90547 17.9293 3.93523 18.0046 4.12536 18.0012C4.75892 17.9897 5.39291 17.9959 6.02672 17.9978C6.12338 17.9981 6.20503 17.9948 6.26262 17.8944C6.74555 17.052 7.23237 16.2118 7.74675 15.3213ZM28.7191 15.3213C29.2404 16.2114 29.7289 17.0414 30.2115 17.8748C30.2748 17.984 30.3572 17.9987 30.4677 17.9984C31.3203 17.9955 32.1731 17.9894 33.0254 18.002C33.2348 18.0051 33.26 17.9228 33.258 17.7469C33.2501 17.0191 33.2485 16.2912 33.2589 15.5635C33.2617 15.3737 33.2123 15.3106 33.0161 15.3168C32.5591 15.3311 32.1013 15.3213 31.6438 15.3213C30.6902 15.3213 29.7367 15.3213 28.7191 15.3213ZM30.1084 20.369C30.0956 20.3383 30.0868 20.3078 30.0712 20.2812C29.2795 18.9289 28.4863 17.5773 27.6968 16.2236C27.6341 16.1161 27.5752 16.1515 27.4983 16.1944C26.7731 16.5983 26.0478 17.0021 25.3205 17.402C25.2119 17.4617 25.1667 17.5089 25.2435 17.6387C26.0311 18.9696 26.813 20.3038 27.5938 21.6386C27.6532 21.7402 27.702 21.7572 27.8111 21.6959C28.5347 21.2893 29.2636 20.8922 29.9883 20.4877C30.0338 20.4623 30.1148 20.4534 30.1084 20.369ZM31.0935 28.195C31.644 27.8008 32.1125 27.3523 32.5126 26.8275C33.6303 25.3617 33.6758 22.6779 31.3532 21.5394C31.1652 21.4472 31.0315 21.4253 30.8414 21.5353C30.1233 21.9509 29.4153 22.3956 28.6601 22.7317C28.079 22.9904 27.9214 23.3879 27.9064 23.9618C27.8848 24.784 28.1297 25.4524 28.8487 25.9031C29.1651 26.1015 29.4746 26.3124 29.8 26.4947C30.3612 26.8091 30.7351 27.2737 30.9641 27.8658C31.0047 27.9708 31.0464 28.0754 31.0935 28.195ZM23.8981 17.9875C23.4184 17.17 22.9505 16.3888 22.5018 15.5968C22.3854 15.3912 22.2606 15.3137 22.0172 15.3149C19.7594 15.3262 17.5015 15.3205 15.2436 15.3227C14.8704 15.323 14.4267 15.2153 14.1438 15.3791C13.8611 15.5427 13.7364 15.9826 13.5478 16.3045C13.2249 16.8559 12.9061 17.4096 12.571 17.9875H23.8981ZM5.25473 25.1155C6.07761 24.6406 6.8399 24.1997 7.60363 23.7613C7.69073 23.7112 7.73431 23.6323 7.78164 23.551C9.92515 19.8694 12.0683 16.1877 14.217 12.5092C14.31 12.3501 14.3115 12.2794 14.1382 12.1796C13.4538 11.7857 12.7768 11.3788 12.1052 10.9635C11.9354 10.8584 11.8612 10.8609 11.7531 11.0485C9.62616 14.7395 7.49115 18.426 5.35765 22.1133C5.30569 22.2031 5.25298 22.2888 5.25329 22.401C5.25592 23.2849 5.25473 24.1688 5.25473 25.1155ZM18.5518 1.33504C18.4393 1.33992 18.304 1.38719 18.1742 1.45847C17.7919 1.66836 17.4074 1.87425 17.0252 2.08439C16.5568 2.34193 16.4551 2.68725 16.7234 3.14386C19.2656 7.47046 21.811 11.7952 24.3488 16.1244C24.4621 16.3177 24.546 16.319 24.7259 16.2152C25.3733 15.8414 26.0258 15.4753 26.6888 15.13C26.9158 15.0118 26.9433 14.929 26.8097 14.7031C25.4032 12.3242 24.0094 9.93778 22.6121 7.55337C21.4933 5.64407 20.3732 3.73553 19.2579 1.82423C19.1027 1.55844 18.9197 1.34961 18.5518 1.33504ZM34.5825 25.3137C34.4495 25.4733 34.4744 25.6797 34.4264 25.8631C34.1366 26.9681 33.5068 27.8533 32.6812 28.6173C31.8658 29.372 30.9075 29.9112 29.9057 30.4846C29.9057 30.1693 29.9017 29.8956 29.9068 29.6219C29.9127 29.2984 29.9061 28.977 29.8293 28.66C29.7137 28.1837 29.4796 27.8075 29.0238 27.5722C28.6927 27.4013 28.3837 27.1855 28.0728 26.9779C26.8323 26.1495 26.431 24.9443 26.6232 23.5317C26.6964 22.9933 26.629 22.5609 26.3359 22.1042C25.7974 21.2652 25.3115 20.3922 24.8115 19.5289C24.7239 19.3775 24.6267 19.3173 24.4456 19.3175C20.3102 19.3233 16.1748 19.3236 12.0394 19.3168C11.8428 19.3165 11.7455 19.3875 11.6529 19.5475C10.7004 21.1934 9.73951 22.8345 8.78671 24.4803C8.70506 24.6214 8.60614 24.7253 8.46646 24.8055C7.03404 25.6284 5.60205 26.452 4.17407 27.2826C3.97699 27.3972 3.90397 27.4152 3.90553 27.1393C3.91509 25.4831 3.91234 23.8268 3.90703 22.1705C3.90653 22.0053 3.95455 21.8688 4.03477 21.7316C4.44386 21.0319 4.84995 20.3305 5.25605 19.6291C5.30638 19.5422 5.35008 19.4515 5.42255 19.3137H2.58246V14.0011C4.4573 13.9995 6.33208 13.9935 8.20686 14.002C8.4327 14.003 8.55375 13.9393 8.66792 13.7401C9.79966 11.766 10.9434 9.79879 12.084 7.82978C12.7681 6.64896 13.8625 6.34584 15.0521 7.00816C15.4333 7.22036 15.8152 7.43144 16.1933 7.64921C17.2253 8.24382 17.5501 9.39839 16.9585 10.443C16.3442 11.528 15.7064 12.5997 15.0793 13.6775C15.0277 13.7662 14.9792 13.8568 14.914 13.9741H21.5032C21.5052 13.8525 21.4167 13.7697 21.3615 13.6758C19.4516 10.4231 17.5392 7.17178 15.6271 3.92028C14.9059 2.69381 15.2202 1.54769 16.4627 0.873117C16.8187 0.679855 17.1748 0.486844 17.5307 0.293395C18.6035 -0.289892 19.731 0.0110988 20.3521 1.06657C22.3705 4.49657 24.3823 7.93051 26.3963 11.363C26.8591 12.1517 27.3275 12.9372 27.7786 13.7325C27.8893 13.9277 28.0088 14.0031 28.2394 14.0022C30.3537 13.9936 32.4681 13.9995 34.5825 14.0011V19.3137H31.0841C31.315 19.8133 31.5771 20.1863 32.0594 20.4351C33.2652 21.0567 34.1049 22.0078 34.434 23.3594C34.4811 23.5529 34.4604 23.7645 34.5825 23.9387V24.2513C34.4889 24.5221 34.4809 24.7929 34.5825 25.0638V25.3137Z" fill="#020202"/>
<path d="M15.5299 8.80441L15.6515 8.586L15.6515 8.58599L15.5299 8.80441ZM14.2828 8.10633L14.163 8.32579L14.163 8.3258L14.2828 8.10633ZM13.3038 8.37887L13.5182 8.50749L13.5182 8.50748L13.3038 8.37887ZM12.6606 9.47873L12.4469 9.34893L12.4469 9.34893L12.6606 9.47873ZM12.7291 9.79129L12.8549 9.57524L12.8549 9.57523L12.7291 9.79129ZM14.836 11.0528L14.7062 11.2665L14.7062 11.2665L14.836 11.0528ZM15.0974 10.9969L15.3167 11.117L15.3167 11.1169L15.0974 10.9969ZM15.8137 9.75977L16.0302 9.8849L16.0302 9.88488L15.8137 9.75977ZM4.12936 15.3173L4.12767 15.5673L4.1277 15.5673L4.12936 15.3173ZM3.90684 15.5512L3.65685 15.5538L3.65686 15.5538L3.90684 15.5512ZM3.90709 17.7643L4.15708 17.7668L4.15708 17.7668L3.90709 17.7643ZM4.12536 18.0012L4.12988 18.2511H4.1299L4.12536 18.0012ZM6.02672 17.9978L6.02752 17.7478H6.02748L6.02672 17.9978ZM6.26262 17.8944L6.47949 18.0188L6.47951 18.0187L6.26262 17.8944ZM30.2115 17.8748L29.9951 18L29.9952 18.0001L30.2115 17.8748ZM30.4677 17.9984L30.4669 17.7484H30.4669L30.4677 17.9984ZM33.0254 18.002L33.0292 17.752H33.0291L33.0254 18.002ZM33.258 17.7469L33.008 17.7496V17.7497L33.258 17.7469ZM33.2589 15.5635L33.0089 15.5599V15.5599L33.2589 15.5635ZM33.0161 15.3168L33.024 15.5667L33.024 15.5667L33.0161 15.3168ZM30.0712 20.2812L29.8555 20.4076L29.8555 20.4076L30.0712 20.2812ZM27.6968 16.2236L27.9127 16.0977L27.9127 16.0976L27.6968 16.2236ZM27.4983 16.1944L27.3767 15.9759L27.3766 15.976L27.4983 16.1944ZM25.3205 17.402L25.4409 17.6211L25.441 17.6211L25.3205 17.402ZM25.2435 17.6387L25.4587 17.5114L25.4587 17.5113L25.2435 17.6387ZM27.5938 21.6386L27.8096 21.5125L27.8096 21.5124L27.5938 21.6386ZM27.8111 21.6959L27.9335 21.9139L27.9335 21.9139L27.8111 21.6959ZM29.9883 20.4877L30.1102 20.706L30.1102 20.706L29.9883 20.4877ZM32.5126 26.8275L32.7114 26.9791L32.7114 26.9791L32.5126 26.8275ZM31.3532 21.5394L31.2431 21.7638L31.2431 21.7638L31.3532 21.5394ZM30.8414 21.5353L30.7162 21.3189L30.7161 21.3189L30.8414 21.5353ZM28.6601 22.7317L28.7618 22.9601L28.7618 22.9601L28.6601 22.7317ZM27.9064 23.9618L27.6564 23.9553V23.9553L27.9064 23.9618ZM28.8487 25.9031L28.9815 25.6913L28.9814 25.6913L28.8487 25.9031ZM29.8 26.4947L29.6777 26.7128L29.6778 26.7128L29.8 26.4947ZM30.9641 27.8658L30.7309 27.956L30.731 27.956L30.9641 27.8658ZM23.8981 17.9875V18.2375H24.3346L24.1137 17.861L23.8981 17.9875ZM22.5018 15.5968L22.7193 15.4735L22.7193 15.4735L22.5018 15.5968ZM22.0172 15.3149L22.0184 15.5649H22.0184L22.0172 15.3149ZM15.2436 15.3227L15.2438 15.5727H15.2439L15.2436 15.3227ZM14.1438 15.3791L14.269 15.5955L14.269 15.5955L14.1438 15.3791ZM13.5478 16.3045L13.3321 16.1782L13.3321 16.1782L13.5478 16.3045ZM12.571 17.9875L12.3547 17.8621L12.137 18.2375H12.571V17.9875ZM7.60363 23.7613L7.72811 23.9781L7.72814 23.9781L7.60363 23.7613ZM7.78164 23.551L7.99768 23.6768L7.99769 23.6768L7.78164 23.551ZM14.217 12.5092L14.4329 12.6353V12.6353L14.217 12.5092ZM14.1382 12.1796L14.0135 12.3963L14.0135 12.3963L14.1382 12.1796ZM12.1052 10.9635L11.9737 11.1761L11.9737 11.1761L12.1052 10.9635ZM11.7531 11.0485L11.5365 10.9236L11.5365 10.9236L11.7531 11.0485ZM5.35765 22.1133L5.14126 21.9881L5.14123 21.9881L5.35765 22.1133ZM5.25329 22.401L5.0033 22.4017V22.4017L5.25329 22.401ZM18.1742 1.45847L18.2946 1.67761L18.2946 1.67758L18.1742 1.45847ZM17.0252 2.08439L17.1456 2.30347L17.1456 2.30347L17.0252 2.08439ZM16.7234 3.14386L16.5078 3.27051L16.5078 3.27051L16.7234 3.14386ZM24.3488 16.1244L24.5645 15.998V15.998L24.3488 16.1244ZM24.7259 16.2152L24.8508 16.4317L24.8509 16.4317L24.7259 16.2152ZM26.6888 15.13L26.5733 14.9083H26.5733L26.6888 15.13ZM26.8097 14.7031L27.025 14.5759L27.0249 14.5759L26.8097 14.7031ZM22.6121 7.55337L22.3964 7.67976V7.67976L22.6121 7.55337ZM19.2579 1.82423L19.4738 1.69823L19.4738 1.69822L19.2579 1.82423ZM34.5825 25.3137L34.7745 25.4738L34.8325 25.4043V25.3137H34.5825ZM34.4264 25.8631L34.6682 25.9266L34.6682 25.9265L34.4264 25.8631ZM32.6812 28.6173L32.5114 28.4338L32.5114 28.4338L32.6812 28.6173ZM29.9057 30.4846H29.6557V30.9158L30.0299 30.7016L29.9057 30.4846ZM29.9068 29.6219L30.1568 29.6265V29.6265L29.9068 29.6219ZM29.8293 28.66L30.0722 28.6011L30.0722 28.6011L29.8293 28.66ZM29.0238 27.5722L28.9092 27.7944L28.9092 27.7944L29.0238 27.5722ZM28.0728 26.9779L28.2116 26.77L28.2116 26.77L28.0728 26.9779ZM26.6232 23.5317L26.8709 23.5654L26.8709 23.5654L26.6232 23.5317ZM26.3359 22.1042L26.1255 22.2392L26.1255 22.2392L26.3359 22.1042ZM24.8115 19.5289L24.5952 19.6541L24.5952 19.6542L24.8115 19.5289ZM24.4456 19.3175L24.4452 19.0675H24.4452L24.4456 19.3175ZM12.0394 19.3168L12.0398 19.0668H12.0398L12.0394 19.3168ZM11.6529 19.5475L11.4365 19.4222L11.4365 19.4222L11.6529 19.5475ZM8.78671 24.4803L8.57036 24.355L8.57033 24.3551L8.78671 24.4803ZM8.46646 24.8055L8.591 25.0223L8.59104 25.0223L8.46646 24.8055ZM4.17407 27.2826L4.29975 27.4987L4.29976 27.4987L4.17407 27.2826ZM3.90553 27.1393L3.65553 27.1379L3.65553 27.1379L3.90553 27.1393ZM3.90703 22.1705L3.65703 22.1713L3.65703 22.1713L3.90703 22.1705ZM4.03477 21.7316L4.25057 21.8578L4.25058 21.8578L4.03477 21.7316ZM5.25605 19.6291L5.03971 19.5038L5.03969 19.5039L5.25605 19.6291ZM5.42255 19.3137L5.64382 19.43L5.83647 19.0637H5.42255V19.3137ZM2.58246 19.3137H2.33246V19.5637H2.58246V19.3137ZM2.58246 14.0011L2.58224 13.7511L2.33246 13.7513V14.0011H2.58246ZM8.20686 14.002L8.20573 14.252H8.20576L8.20686 14.002ZM8.66792 13.7401L8.45103 13.6158L8.45102 13.6158L8.66792 13.7401ZM12.084 7.82978L11.8677 7.70446L11.8677 7.70447L12.084 7.82978ZM15.0521 7.00816L14.9305 7.22659L14.9305 7.22659L15.0521 7.00816ZM16.1933 7.64921L16.3181 7.4326L16.3181 7.43258L16.1933 7.64921ZM16.9585 10.443L16.741 10.3198L16.741 10.3199L16.9585 10.443ZM15.0793 13.6775L14.8632 13.5517L14.8632 13.5518L15.0793 13.6775ZM14.914 13.9741L14.6955 13.8527L14.489 14.2241H14.914V13.9741ZM21.5032 13.9741V14.2241H21.7491L21.7531 13.9783L21.5032 13.9741ZM21.3615 13.6758L21.146 13.8024V13.8024L21.3615 13.6758ZM15.6271 3.92028L15.4116 4.04701L15.4116 4.04701L15.6271 3.92028ZM16.4627 0.873117L16.582 1.09283L16.582 1.09282L16.4627 0.873117ZM17.5307 0.293395L17.6501 0.513042L17.6501 0.513032L17.5307 0.293395ZM20.3521 1.06657L20.5676 0.939776L20.5676 0.939773L20.3521 1.06657ZM26.3963 11.363L26.612 11.2365L26.612 11.2365L26.3963 11.363ZM27.7786 13.7325L27.5612 13.8558L27.5612 13.8558L27.7786 13.7325ZM28.2394 14.0022L28.2384 13.7522H28.2384L28.2394 14.0022ZM34.5825 14.0011H34.8325V13.7513L34.5827 13.7511L34.5825 14.0011ZM34.5825 19.3137V19.5637H34.8325V19.3137H34.5825ZM31.0841 19.3137V19.0637H30.6931L30.8572 19.4186L31.0841 19.3137ZM32.0594 20.4351L31.9449 20.6572L31.9449 20.6573L32.0594 20.4351ZM34.434 23.3594L34.1911 23.4185L34.1911 23.4185L34.434 23.3594ZM34.5825 23.9387H34.8325V23.8599L34.7872 23.7953L34.5825 23.9387ZM34.5825 24.2513L34.8188 24.3329L34.8325 24.2932V24.2513H34.5825ZM34.5825 25.0638H34.8325V25.0184L34.8166 24.976L34.5825 25.0638ZM16.1564 9.43484C16.1546 9.24147 16.1103 9.06931 16.0176 8.92096C15.9255 8.77362 15.7963 8.66666 15.6515 8.586L15.4082 9.02282C15.4994 9.07358 15.557 9.12749 15.5935 9.18592C15.6294 9.24333 15.6554 9.32183 15.6565 9.43946L16.1564 9.43484ZM15.6515 8.58599C15.2407 8.35726 14.821 8.11515 14.4025 7.88686L14.163 8.3258C14.581 8.55381 14.9865 8.788 15.4082 9.02283L15.6515 8.58599ZM14.4025 7.88687C14.1639 7.75667 13.9104 7.70525 13.6657 7.77342C13.4215 7.84142 13.2298 8.01622 13.0894 8.25026L13.5182 8.50748C13.6132 8.34911 13.7126 8.27938 13.7998 8.25509C13.8865 8.23096 14.0048 8.23947 14.163 8.32579L14.4025 7.88687ZM13.0894 8.25025C12.9788 8.43471 12.8718 8.62115 12.7662 8.80459C12.6602 8.98881 12.5554 9.17033 12.4469 9.34893L12.8742 9.60853C12.9862 9.42423 13.0937 9.23793 13.1996 9.05399C13.3059 8.86928 13.4104 8.68723 13.5182 8.50749L13.0894 8.25025ZM12.4469 9.34893C12.407 9.41465 12.3328 9.5407 12.3549 9.68844C12.3799 9.85536 12.5064 9.95092 12.6033 10.0073L12.8549 9.57523C12.8413 9.56733 12.8325 9.5613 12.8272 9.55725C12.8218 9.55319 12.8214 9.55218 12.8236 9.55462C12.8259 9.55725 12.8314 9.56396 12.837 9.57501C12.8428 9.58646 12.8472 9.59996 12.8494 9.61454C12.8538 9.6438 12.8467 9.66132 12.848 9.65761C12.8486 9.65593 12.8505 9.65109 12.855 9.64229C12.8595 9.63354 12.8657 9.62254 12.8742 9.60853L12.4469 9.34893ZM12.6033 10.0073C13.3083 10.4178 14.0064 10.8413 14.7062 11.2665L14.9658 10.8392C14.2664 10.4143 13.5645 9.98843 12.8549 9.57524L12.6033 10.0073ZM14.7062 11.2665C14.7372 11.2853 14.7777 11.3089 14.8216 11.3265C14.8662 11.3444 14.9312 11.3631 15.0076 11.3547C15.178 11.3359 15.2689 11.2042 15.3167 11.117L14.8781 10.8769C14.8646 10.9015 14.861 10.9014 14.87 10.8931C14.8755 10.8881 14.8857 10.88 14.901 10.8726C14.9168 10.8649 14.9345 10.8597 14.9528 10.8577C14.9884 10.8538 15.0103 10.8635 15.0076 10.8624C15.0041 10.861 14.9929 10.8556 14.9657 10.8391L14.7062 11.2665ZM15.3167 11.1169C15.5438 10.7019 15.787 10.3055 16.0302 9.8849L15.5973 9.63465C15.3634 10.0393 15.1083 10.4562 14.8781 10.8769L15.3167 11.1169ZM16.0302 9.88488C16.1046 9.75616 16.1714 9.58375 16.1553 9.41366L15.6575 9.46064C15.6595 9.48138 15.6489 9.54531 15.5973 9.63467L16.0302 9.88488ZM7.74675 15.0713C6.49674 15.0713 5.31412 15.0752 4.13103 15.0673L4.1277 15.5673C5.31301 15.5752 6.49893 15.5713 7.74675 15.5713V15.0713ZM4.13105 15.0673C4.02484 15.0666 3.86895 15.0808 3.75984 15.2056C3.6591 15.3209 3.65598 15.4694 3.65685 15.5538L4.15683 15.5486C4.15666 15.532 4.15703 15.5195 4.1577 15.5099C4.15837 15.5003 4.15923 15.4957 4.15947 15.4945C4.15993 15.4924 4.15621 15.5119 4.13629 15.5347C4.12658 15.5458 4.11579 15.5544 4.10554 15.5606C4.09571 15.5664 4.08841 15.5688 4.08606 15.5695C4.08393 15.5701 4.08574 15.5694 4.09316 15.5686C4.10053 15.5678 4.11169 15.5672 4.12767 15.5673L4.13105 15.0673ZM3.65686 15.5538C3.66459 16.2896 3.66422 17.0258 3.6571 17.7619L4.15708 17.7668C4.16422 17.0276 4.1646 16.288 4.15683 15.5486L3.65686 15.5538ZM3.6571 17.7619C3.65636 17.8378 3.65605 17.985 3.74859 18.1015C3.85567 18.2362 4.01616 18.2532 4.12988 18.2511L4.12084 17.7512C4.10509 17.7515 4.09457 17.7509 4.08816 17.7502C4.08171 17.7495 4.08124 17.7489 4.08489 17.7501C4.08881 17.7513 4.09755 17.7545 4.10848 17.7616C4.1198 17.7689 4.13075 17.7787 4.14004 17.7904C4.15845 17.8136 4.16069 17.8319 4.15968 17.8264C4.15924 17.824 4.1584 17.8182 4.15779 17.8076C4.15718 17.7971 4.15691 17.7839 4.15708 17.7668L3.6571 17.7619ZM4.1299 18.2511C4.75998 18.2397 5.38985 18.2459 6.02595 18.2478L6.02748 17.7478C5.39597 17.7459 4.75785 17.7397 4.12082 17.7512L4.1299 18.2511ZM6.02591 18.2478C6.06914 18.2479 6.15432 18.2493 6.23897 18.2208C6.33962 18.187 6.42187 18.1192 6.47949 18.0188L6.04575 17.77C6.04395 17.7732 6.04626 17.7682 6.05475 17.7611C6.0588 17.7577 6.06332 17.7547 6.06806 17.7521C6.07274 17.7495 6.07679 17.7479 6.07968 17.7469C6.08495 17.7451 6.08518 17.746 6.07561 17.7468C6.071 17.7471 6.06494 17.7474 6.05671 17.7476C6.04838 17.7478 6.03909 17.7478 6.02752 17.7478L6.02591 18.2478ZM6.47951 18.0187C6.96217 17.1768 7.44862 16.3372 7.96323 15.4463L7.53027 15.1962C7.01611 16.0864 6.52894 16.9272 6.04573 17.7701L6.47951 18.0187ZM28.5034 15.4477C29.025 16.3383 29.5129 17.1674 29.9951 18L30.4278 17.7495C29.9448 16.9154 29.4557 16.0844 28.9348 15.195L28.5034 15.4477ZM29.9952 18.0001C30.0504 18.0955 30.1267 18.168 30.2274 18.2091C30.3176 18.246 30.4075 18.2486 30.4686 18.2484L30.4669 17.7484C30.444 17.7484 30.4301 17.7477 30.421 17.7465C30.4126 17.7455 30.4123 17.7446 30.4164 17.7462C30.4215 17.7483 30.427 17.7517 30.4311 17.7555C30.4347 17.7587 30.433 17.7584 30.4278 17.7494L29.9952 18.0001ZM30.4686 18.2484C31.3225 18.2455 32.1723 18.2394 33.0218 18.252L33.0291 17.752C32.1739 17.7394 31.3181 17.7455 30.4669 17.7484L30.4686 18.2484ZM33.0217 18.252C33.1434 18.2538 33.3111 18.2354 33.4197 18.0934C33.4693 18.0284 33.4894 17.9579 33.4986 17.9022C33.5076 17.8475 33.5085 17.7915 33.508 17.7441L33.008 17.7497C33.0083 17.7689 33.0081 17.7841 33.0075 17.7966C33.0069 17.8091 33.006 17.8166 33.0053 17.8207C33.0046 17.8247 33.0046 17.8228 33.0067 17.8172C33.009 17.8112 33.0137 17.8012 33.0223 17.7898C33.0312 17.7782 33.0419 17.7683 33.0531 17.7609C33.0638 17.7538 33.0721 17.7508 33.0752 17.7498C33.078 17.7489 33.0763 17.7498 33.0681 17.7507C33.06 17.7516 33.0474 17.7523 33.0292 17.752L33.0217 18.252ZM33.508 17.7442C33.5001 17.0178 33.4985 16.292 33.5089 15.5671L33.0089 15.5599C32.9985 16.2903 33.0001 17.0205 33.008 17.7496L33.508 17.7442ZM33.5089 15.5671C33.5103 15.4708 33.5051 15.313 33.394 15.1952C33.2776 15.0716 33.1154 15.0635 33.0082 15.0669L33.024 15.5667C33.042 15.5661 33.0551 15.5664 33.0644 15.5671C33.0737 15.5678 33.0773 15.5687 33.0768 15.5686C33.0761 15.5684 33.0699 15.5668 33.0608 15.5619C33.0511 15.5567 33.0403 15.5489 33.0302 15.5381C33.0202 15.5275 33.0137 15.517 33.0099 15.5091C33.0063 15.5016 33.0055 15.4974 33.0058 15.4988C33.0062 15.5004 33.0072 15.5058 33.008 15.5166C33.0088 15.5273 33.0092 15.5414 33.0089 15.5599L33.5089 15.5671ZM33.0083 15.0669C32.5564 15.0811 32.1085 15.0713 31.6438 15.0713V15.5713C32.0941 15.5713 32.5618 15.5811 33.024 15.5667L33.0083 15.0669ZM31.6438 15.0713C31.6419 15.0713 31.6401 15.0713 31.6382 15.0713C31.6363 15.0713 31.6345 15.0713 31.6326 15.0713C31.6308 15.0713 31.6289 15.0713 31.627 15.0713C31.6252 15.0713 31.6233 15.0713 31.6214 15.0713C31.6196 15.0713 31.6177 15.0713 31.6159 15.0713C31.614 15.0713 31.6121 15.0713 31.6103 15.0713C31.6084 15.0713 31.6065 15.0713 31.6047 15.0713C31.6028 15.0713 31.601 15.0713 31.5991 15.0713C31.5972 15.0713 31.5954 15.0713 31.5935 15.0713C31.5916 15.0713 31.5898 15.0713 31.5879 15.0713C31.5861 15.0713 31.5842 15.0713 31.5823 15.0713C31.5805 15.0713 31.5786 15.0713 31.5767 15.0713C31.5749 15.0713 31.573 15.0713 31.5712 15.0713C31.5693 15.0713 31.5674 15.0713 31.5656 15.0713C31.5637 15.0713 31.5618 15.0713 31.56 15.0713C31.5581 15.0713 31.5563 15.0713 31.5544 15.0713C31.5525 15.0713 31.5507 15.0713 31.5488 15.0713C31.5469 15.0713 31.5451 15.0713 31.5432 15.0713C31.5414 15.0713 31.5395 15.0713 31.5376 15.0713C31.5358 15.0713 31.5339 15.0713 31.532 15.0713C31.5302 15.0713 31.5283 15.0713 31.5265 15.0713C31.5246 15.0713 31.5227 15.0713 31.5209 15.0713C31.519 15.0713 31.5171 15.0713 31.5153 15.0713C31.5134 15.0713 31.5116 15.0713 31.5097 15.0713C31.5078 15.0713 31.506 15.0713 31.5041 15.0713C31.5022 15.0713 31.5004 15.0713 31.4985 15.0713C31.4967 15.0713 31.4948 15.0713 31.4929 15.0713C31.4911 15.0713 31.4892 15.0713 31.4873 15.0713C31.4855 15.0713 31.4836 15.0713 31.4817 15.0713C31.4799 15.0713 31.478 15.0713 31.4762 15.0713C31.4743 15.0713 31.4724 15.0713 31.4706 15.0713C31.4687 15.0713 31.4668 15.0713 31.465 15.0713C31.4631 15.0713 31.4613 15.0713 31.4594 15.0713C31.4575 15.0713 31.4557 15.0713 31.4538 15.0713C31.4519 15.0713 31.4501 15.0713 31.4482 15.0713C31.4464 15.0713 31.4445 15.0713 31.4426 15.0713C31.4408 15.0713 31.4389 15.0713 31.437 15.0713C31.4352 15.0713 31.4333 15.0713 31.4314 15.0713C31.4296 15.0713 31.4277 15.0713 31.4259 15.0713C31.424 15.0713 31.4221 15.0713 31.4203 15.0713C31.4184 15.0713 31.4165 15.0713 31.4147 15.0713C31.4128 15.0713 31.411 15.0713 31.4091 15.0713C31.4072 15.0713 31.4054 15.0713 31.4035 15.0713C31.4016 15.0713 31.3998 15.0713 31.3979 15.0713C31.396 15.0713 31.3942 15.0713 31.3923 15.0713C31.3905 15.0713 31.3886 15.0713 31.3867 15.0713C31.3849 15.0713 31.383 15.0713 31.3811 15.0713C31.3793 15.0713 31.3774 15.0713 31.3756 15.0713C31.3737 15.0713 31.3718 15.0713 31.37 15.0713C31.3681 15.0713 31.3662 15.0713 31.3644 15.0713C31.3625 15.0713 31.3606 15.0713 31.3588 15.0713C31.3569 15.0713 31.3551 15.0713 31.3532 15.0713C31.3513 15.0713 31.3495 15.0713 31.3476 15.0713C31.3457 15.0713 31.3439 15.0713 31.342 15.0713C31.3401 15.0713 31.3383 15.0713 31.3364 15.0713C31.3346 15.0713 31.3327 15.0713 31.3308 15.0713C31.329 15.0713 31.3271 15.0713 31.3252 15.0713C31.3234 15.0713 31.3215 15.0713 31.3196 15.0713C31.3178 15.0713 31.3159 15.0713 31.314 15.0713C31.3122 15.0713 31.3103 15.0713 31.3085 15.0713C31.3066 15.0713 31.3047 15.0713 31.3029 15.0713C31.301 15.0713 31.2991 15.0713 31.2973 15.0713C31.2954 15.0713 31.2935 15.0713 31.2917 15.0713C31.2898 15.0713 31.2879 15.0713 31.2861 15.0713C31.2842 15.0713 31.2824 15.0713 31.2805 15.0713C31.2786 15.0713 31.2768 15.0713 31.2749 15.0713C31.273 15.0713 31.2712 15.0713 31.2693 15.0713C31.2674 15.0713 31.2656 15.0713 31.2637 15.0713C31.2618 15.0713 31.26 15.0713 31.2581 15.0713C31.2563 15.0713 31.2544 15.0713 31.2525 15.0713C31.2507 15.0713 31.2488 15.0713 31.2469 15.0713C31.2451 15.0713 31.2432 15.0713 31.2413 15.0713C31.2395 15.0713 31.2376 15.0713 31.2357 15.0713C31.2339 15.0713 31.232 15.0713 31.2301 15.0713C31.2283 15.0713 31.2264 15.0713 31.2245 15.0713C31.2227 15.0713 31.2208 15.0713 31.219 15.0713C31.2171 15.0713 31.2152 15.0713 31.2134 15.0713C31.2115 15.0713 31.2096 15.0713 31.2078 15.0713C31.2059 15.0713 31.204 15.0713 31.2022 15.0713C31.2003 15.0713 31.1984 15.0713 31.1966 15.0713C31.1947 15.0713 31.1928 15.0713 31.191 15.0713C31.1891 15.0713 31.1872 15.0713 31.1854 15.0713C31.1835 15.0713 31.1816 15.0713 31.1798 15.0713C31.1779 15.0713 31.176 15.0713 31.1742 15.0713C31.1723 15.0713 31.1705 15.0713 31.1686 15.0713C31.1667 15.0713 31.1649 15.0713 31.163 15.0713C31.1611 15.0713 31.1593 15.0713 31.1574 15.0713C31.1555 15.0713 31.1537 15.0713 31.1518 15.0713C31.1499 15.0713 31.1481 15.0713 31.1462 15.0713C31.1443 15.0713 31.1425 15.0713 31.1406 15.0713C31.1387 15.0713 31.1369 15.0713 31.135 15.0713C31.1331 15.0713 31.1313 15.0713 31.1294 15.0713C31.1275 15.0713 31.1257 15.0713 31.1238 15.0713C31.1219 15.0713 31.1201 15.0713 31.1182 15.0713C31.1163 15.0713 31.1145 15.0713 31.1126 15.0713C31.1107 15.0713 31.1089 15.0713 31.107 15.0713C31.1051 15.0713 31.1033 15.0713 31.1014 15.0713C31.0995 15.0713 31.0977 15.0713 31.0958 15.0713C31.0939 15.0713 31.0921 15.0713 31.0902 15.0713C31.0883 15.0713 31.0865 15.0713 31.0846 15.0713C31.0827 15.0713 31.0809 15.0713 31.079 15.0713C31.0771 15.0713 31.0753 15.0713 31.0734 15.0713C31.0715 15.0713 31.0697 15.0713 31.0678 15.0713C31.0659 15.0713 31.0641 15.0713 31.0622 15.0713C31.0603 15.0713 31.0585 15.0713 31.0566 15.0713C31.0547 15.0713 31.0528 15.0713 31.051 15.0713C31.0491 15.0713 31.0472 15.0713 31.0454 15.0713C31.0435 15.0713 31.0416 15.0713 31.0398 15.0713C31.0379 15.0713 31.036 15.0713 31.0342 15.0713C31.0323 15.0713 31.0304 15.0713 31.0286 15.0713C31.0267 15.0713 31.0248 15.0713 31.023 15.0713C31.0211 15.0713 31.0192 15.0713 31.0174 15.0713C31.0155 15.0713 31.0136 15.0713 31.0118 15.0713C31.0099 15.0713 31.008 15.0713 31.0061 15.0713C31.0043 15.0713 31.0024 15.0713 31.0005 15.0713C30.9987 15.0713 30.9968 15.0713 30.9949 15.0713C30.9931 15.0713 30.9912 15.0713 30.9893 15.0713C30.9875 15.0713 30.9856 15.0713 30.9837 15.0713C30.9819 15.0713 30.98 15.0713 30.9781 15.0713C30.9762 15.0713 30.9744 15.0713 30.9725 15.0713C30.9706 15.0713 30.9688 15.0713 30.9669 15.0713C30.965 15.0713 30.9632 15.0713 30.9613 15.0713C30.9594 15.0713 30.9576 15.0713 30.9557 15.0713C30.9538 15.0713 30.9519 15.0713 30.9501 15.0713C30.9482 15.0713 30.9463 15.0713 30.9445 15.0713C30.9426 15.0713 30.9407 15.0713 30.9389 15.0713C30.937 15.0713 30.9351 15.0713 30.9332 15.0713C30.9314 15.0713 30.9295 15.0713 30.9276 15.0713C30.9258 15.0713 30.9239 15.0713 30.922 15.0713C30.9202 15.0713 30.9183 15.0713 30.9164 15.0713C30.9145 15.0713 30.9127 15.0713 30.9108 15.0713C30.9089 15.0713 30.9071 15.0713 30.9052 15.0713C30.9033 15.0713 30.9014 15.0713 30.8996 15.0713C30.8977 15.0713 30.8958 15.0713 30.894 15.0713C30.8921 15.0713 30.8902 15.0713 30.8883 15.0713C30.8865 15.0713 30.8846 15.0713 30.8827 15.0713C30.8809 15.0713 30.879 15.0713 30.8771 15.0713C30.8752 15.0713 30.8734 15.0713 30.8715 15.0713C30.8696 15.0713 30.8678 15.0713 30.8659 15.0713C30.864 15.0713 30.8622 15.0713 30.8603 15.0713C30.8584 15.0713 30.8565 15.0713 30.8547 15.0713C30.8528 15.0713 30.8509 15.0713 30.849 15.0713C30.8472 15.0713 30.8453 15.0713 30.8434 15.0713C30.8416 15.0713 30.8397 15.0713 30.8378 15.0713C30.8359 15.0713 30.8341 15.0713 30.8322 15.0713C30.8303 15.0713 30.8285 15.0713 30.8266 15.0713C30.8247 15.0713 30.8228 15.0713 30.821 15.0713C30.8191 15.0713 30.8172 15.0713 30.8153 15.0713C30.8135 15.0713 30.8116 15.0713 30.8097 15.0713C30.8079 15.0713 30.806 15.0713 30.8041 15.0713C30.8022 15.0713 30.8004 15.0713 30.7985 15.0713C30.7966 15.0713 30.7947 15.0713 30.7929 15.0713C30.791 15.0713 30.7891 15.0713 30.7872 15.0713C30.7854 15.0713 30.7835 15.0713 30.7816 15.0713C30.7798 15.0713 30.7779 15.0713 30.776 15.0713C30.7741 15.0713 30.7723 15.0713 30.7704 15.0713C30.7685 15.0713 30.7666 15.0713 30.7648 15.0713C30.7629 15.0713 30.761 15.0713 30.7591 15.0713C30.7573 15.0713 30.7554 15.0713 30.7535 15.0713C30.7516 15.0713 30.7498 15.0713 30.7479 15.0713C30.746 15.0713 30.7441 15.0713 30.7423 15.0713C30.7404 15.0713 30.7385 15.0713 30.7366 15.0713C30.7348 15.0713 30.7329 15.0713 30.731 15.0713C30.7291 15.0713 30.7273 15.0713 30.7254 15.0713C30.7235 15.0713 30.7216 15.0713 30.7198 15.0713C30.7179 15.0713 30.716 15.0713 30.7141 15.0713C30.7123 15.0713 30.7104 15.0713 30.7085 15.0713C30.7066 15.0713 30.7048 15.0713 30.7029 15.0713C30.701 15.0713 30.6991 15.0713 30.6973 15.0713C30.6954 15.0713 30.6935 15.0713 30.6916 15.0713C30.6898 15.0713 30.6879 15.0713 30.686 15.0713C30.6841 15.0713 30.6822 15.0713 30.6804 15.0713C30.6785 15.0713 30.6766 15.0713 30.6747 15.0713C30.6729 15.0713 30.671 15.0713 30.6691 15.0713C30.6672 15.0713 30.6654 15.0713 30.6635 15.0713C30.6616 15.0713 30.6597 15.0713 30.6579 15.0713C30.656 15.0713 30.6541 15.0713 30.6522 15.0713C30.6503 15.0713 30.6485 15.0713 30.6466 15.0713C30.6447 15.0713 30.6428 15.0713 30.641 15.0713C30.6391 15.0713 30.6372 15.0713 30.6353 15.0713C30.6334 15.0713 30.6316 15.0713 30.6297 15.0713C30.6278 15.0713 30.6259 15.0713 30.6241 15.0713C30.6222 15.0713 30.6203 15.0713 30.6184 15.0713C30.6165 15.0713 30.6147 15.0713 30.6128 15.0713C30.6109 15.0713 30.609 15.0713 30.6071 15.0713C30.6053 15.0713 30.6034 15.0713 30.6015 15.0713C30.5996 15.0713 30.5978 15.0713 30.5959 15.0713C30.594 15.0713 30.5921 15.0713 30.5902 15.0713C30.5884 15.0713 30.5865 15.0713 30.5846 15.0713C30.5827 15.0713 30.5808 15.0713 30.579 15.0713C30.5771 15.0713 30.5752 15.0713 30.5733 15.0713C30.5714 15.0713 30.5696 15.0713 30.5677 15.0713C30.5658 15.0713 30.5639 15.0713 30.562 15.0713C30.5602 15.0713 30.5583 15.0713 30.5564 15.0713C30.5545 15.0713 30.5526 15.0713 30.5508 15.0713C30.5489 15.0713 30.547 15.0713 30.5451 15.0713C30.5432 15.0713 30.5414 15.0713 30.5395 15.0713C30.5376 15.0713 30.5357 15.0713 30.5338 15.0713C30.532 15.0713 30.5301 15.0713 30.5282 15.0713C30.5263 15.0713 30.5244 15.0713 30.5225 15.0713C30.5207 15.0713 30.5188 15.0713 30.5169 15.0713C30.515 15.0713 30.5131 15.0713 30.5113 15.0713C30.5094 15.0713 30.5075 15.0713 30.5056 15.0713C30.5037 15.0713 30.5018 15.0713 30.5 15.0713C30.4981 15.0713 30.4962 15.0713 30.4943 15.0713C30.4924 15.0713 30.4906 15.0713 30.4887 15.0713C30.4868 15.0713 30.4849 15.0713 30.483 15.0713C30.4811 15.0713 30.4793 15.0713 30.4774 15.0713C30.4755 15.0713 30.4736 15.0713 30.4717 15.0713C30.4698 15.0713 30.468 15.0713 30.4661 15.0713C30.4642 15.0713 30.4623 15.0713 30.4604 15.0713C30.4585 15.0713 30.4567 15.0713 30.4548 15.0713C30.4529 15.0713 30.451 15.0713 30.4491 15.0713C30.4472 15.0713 30.4454 15.0713 30.4435 15.0713C30.4416 15.0713 30.4397 15.0713 30.4378 15.0713C30.4359 15.0713 30.434 15.0713 30.4322 15.0713C30.4303 15.0713 30.4284 15.0713 30.4265 15.0713C30.4246 15.0713 30.4227 15.0713 30.4209 15.0713C30.419 15.0713 30.4171 15.0713 30.4152 15.0713C30.4133 15.0713 30.4114 15.0713 30.4095 15.0713C30.4077 15.0713 30.4058 15.0713 30.4039 15.0713C30.402 15.0713 30.4001 15.0713 30.3982 15.0713C30.3963 15.0713 30.3945 15.0713 30.3926 15.0713C30.3907 15.0713 30.3888 15.0713 30.3869 15.0713C30.385 15.0713 30.3831 15.0713 30.3813 15.0713C30.3794 15.0713 30.3775 15.0713 30.3756 15.0713C30.3737 15.0713 30.3718 15.0713 30.3699 15.0713C30.368 15.0713 30.3662 15.0713 30.3643 15.0713C30.3624 15.0713 30.3605 15.0713 30.3586 15.0713C30.3567 15.0713 30.3548 15.0713 30.3529 15.0713C30.3511 15.0713 30.3492 15.0713 30.3473 15.0713C30.3454 15.0713 30.3435 15.0713 30.3416 15.0713C30.3397 15.0713 30.3378 15.0713 30.336 15.0713C30.3341 15.0713 30.3322 15.0713 30.3303 15.0713C30.3284 15.0713 30.3265 15.0713 30.3246 15.0713C30.3227 15.0713 30.3208 15.0713 30.319 15.0713C30.3171 15.0713 30.3152 15.0713 30.3133 15.0713C30.3114 15.0713 30.3095 15.0713 30.3076 15.0713C30.3057 15.0713 30.3038 15.0713 30.302 15.0713C30.3001 15.0713 30.2982 15.0713 30.2963 15.0713C30.2944 15.0713 30.2925 15.0713 30.2906 15.0713C30.2887 15.0713 30.2868 15.0713 30.2849 15.0713C30.2831 15.0713 30.2812 15.0713 30.2793 15.0713C30.2774 15.0713 30.2755 15.0713 30.2736 15.0713C30.2717 15.0713 30.2698 15.0713 30.2679 15.0713C30.266 15.0713 30.2641 15.0713 30.2623 15.0713C30.2604 15.0713 30.2585 15.0713 30.2566 15.0713C30.2547 15.0713 30.2528 15.0713 30.2509 15.0713C30.249 15.0713 30.2471 15.0713 30.2452 15.0713C30.2433 15.0713 30.2414 15.0713 30.2396 15.0713C30.2377 15.0713 30.2358 15.0713 30.2339 15.0713C30.232 15.0713 30.2301 15.0713 30.2282 15.0713C30.2263 15.0713 30.2244 15.0713 30.2225 15.0713C30.2206 15.0713 30.2187 15.0713 30.2168 15.0713C30.2149 15.0713 30.2131 15.0713 30.2112 15.0713C30.2093 15.0713 30.2074 15.0713 30.2055 15.0713C30.2036 15.0713 30.2017 15.0713 30.1998 15.0713C30.1979 15.0713 30.196 15.0713 30.1941 15.0713C30.1922 15.0713 30.1903 15.0713 30.1884 15.0713C30.1865 15.0713 30.1846 15.0713 30.1827 15.0713C30.1809 15.0713 30.179 15.0713 30.1771 15.0713C30.1752 15.0713 30.1733 15.0713 30.1714 15.0713C30.1695 15.0713 30.1676 15.0713 30.1657 15.0713C30.1638 15.0713 30.1619 15.0713 30.16 15.0713C30.1581 15.0713 30.1562 15.0713 30.1543 15.0713C30.1524 15.0713 30.1505 15.0713 30.1486 15.0713C30.1467 15.0713 30.1448 15.0713 30.1429 15.0713C30.141 15.0713 30.1392 15.0713 30.1373 15.0713C30.1354 15.0713 30.1335 15.0713 30.1316 15.0713C30.1297 15.0713 30.1278 15.0713 30.1259 15.0713C30.124 15.0713 30.1221 15.0713 30.1202 15.0713C30.1183 15.0713 30.1164 15.0713 30.1145 15.0713C30.1126 15.0713 30.1107 15.0713 30.1088 15.0713C30.1069 15.0713 30.105 15.0713 30.1031 15.0713C30.1012 15.0713 30.0993 15.0713 30.0974 15.0713C30.0955 15.0713 30.0936 15.0713 30.0917 15.0713C30.0898 15.0713 30.0879 15.0713 30.086 15.0713C30.0841 15.0713 30.0822 15.0713 30.0803 15.0713C30.0784 15.0713 30.0765 15.0713 30.0746 15.0713C30.0727 15.0713 30.0708 15.0713 30.0689 15.0713C30.067 15.0713 30.0651 15.0713 30.0632 15.0713C30.0613 15.0713 30.0594 15.0713 30.0575 15.0713C30.0556 15.0713 30.0537 15.0713 30.0518 15.0713C30.0499 15.0713 30.048 15.0713 30.0461 15.0713C30.0442 15.0713 30.0423 15.0713 30.0404 15.0713C30.0385 15.0713 30.0366 15.0713 30.0347 15.0713C30.0328 15.0713 30.0309 15.0713 30.029 15.0713C30.0271 15.0713 30.0252 15.0713 30.0233 15.0713C30.0214 15.0713 30.0195 15.0713 30.0176 15.0713C30.0157 15.0713 30.0138 15.0713 30.0119 15.0713C30.01 15.0713 30.0081 15.0713 30.0062 15.0713C30.0043 15.0713 30.0024 15.0713 30.0005 15.0713C29.9986 15.0713 29.9967 15.0713 29.9948 15.0713C29.9929 15.0713 29.991 15.0713 29.989 15.0713C29.9871 15.0713 29.9852 15.0713 29.9833 15.0713C29.9814 15.0713 29.9795 15.0713 29.9776 15.0713C29.9757 15.0713 29.9738 15.0713 29.9719 15.0713C29.97 15.0713 29.9681 15.0713 29.9662 15.0713C29.9643 15.0713 29.9624 15.0713 29.9605 15.0713C29.9586 15.0713 29.9567 15.0713 29.9548 15.0713C29.9529 15.0713 29.951 15.0713 29.9491 15.0713C29.9471 15.0713 29.9452 15.0713 29.9433 15.0713C29.9414 15.0713 29.9395 15.0713 29.9376 15.0713C29.9357 15.0713 29.9338 15.0713 29.9319 15.0713C29.93 15.0713 29.9281 15.0713 29.9262 15.0713C29.9243 15.0713 29.9224 15.0713 29.9205 15.0713C29.9186 15.0713 29.9166 15.0713 29.9147 15.0713C29.9128 15.0713 29.9109 15.0713 29.909 15.0713C29.9071 15.0713 29.9052 15.0713 29.9033 15.0713C29.9014 15.0713 29.8995 15.0713 29.8976 15.0713C29.8957 15.0713 29.8937 15.0713 29.8918 15.0713C29.8899 15.0713 29.888 15.0713 29.8861 15.0713C29.8842 15.0713 29.8823 15.0713 29.8804 15.0713C29.8785 15.0713 29.8766 15.0713 29.8747 15.0713C29.8727 15.0713 29.8708 15.0713 29.8689 15.0713C29.867 15.0713 29.8651 15.0713 29.8632 15.0713C29.8613 15.0713 29.8594 15.0713 29.8575 15.0713C29.8556 15.0713 29.8536 15.0713 29.8517 15.0713C29.8498 15.0713 29.8479 15.0713 29.846 15.0713C29.8441 15.0713 29.8422 15.0713 29.8403 15.0713C29.8384 15.0713 29.8365 15.0713 29.8345 15.0713C29.8326 15.0713 29.8307 15.0713 29.8288 15.0713C29.8269 15.0713 29.825 15.0713 29.8231 15.0713C29.8212 15.0713 29.8192 15.0713 29.8173 15.0713C29.8154 15.0713 29.8135 15.0713 29.8116 15.0713C29.8097 15.0713 29.8078 15.0713 29.8059 15.0713C29.8039 15.0713 29.802 15.0713 29.8001 15.0713C29.7982 15.0713 29.7963 15.0713 29.7944 15.0713C29.7925 15.0713 29.7905 15.0713 29.7886 15.0713C29.7867 15.0713 29.7848 15.0713 29.7829 15.0713C29.781 15.0713 29.7791 15.0713 29.7771 15.0713C29.7752 15.0713 29.7733 15.0713 29.7714 15.0713C29.7695 15.0713 29.7676 15.0713 29.7657 15.0713C29.7637 15.0713 29.7618 15.0713 29.7599 15.0713C29.758 15.0713 29.7561 15.0713 29.7542 15.0713C29.7522 15.0713 29.7503 15.0713 29.7484 15.0713C29.7465 15.0713 29.7446 15.0713 29.7427 15.0713C29.7407 15.0713 29.7388 15.0713 29.7369 15.0713C29.735 15.0713 29.7331 15.0713 29.7312 15.0713C29.7292 15.0713 29.7273 15.0713 29.7254 15.0713C29.7235 15.0713 29.7216 15.0713 29.7197 15.0713C29.7177 15.0713 29.7158 15.0713 29.7139 15.0713C29.712 15.0713 29.7101 15.0713 29.7081 15.0713C29.7062 15.0713 29.7043 15.0713 29.7024 15.0713C29.7005 15.0713 29.6986 15.0713 29.6966 15.0713C29.6947 15.0713 29.6928 15.0713 29.6909 15.0713C29.689 15.0713 29.687 15.0713 29.6851 15.0713C29.6832 15.0713 29.6813 15.0713 29.6794 15.0713C29.6774 15.0713 29.6755 15.0713 29.6736 15.0713C29.6717 15.0713 29.6698 15.0713 29.6678 15.0713C29.6659 15.0713 29.664 15.0713 29.6621 15.0713C29.6602 15.0713 29.6582 15.0713 29.6563 15.0713C29.6544 15.0713 29.6525 15.0713 29.6505 15.0713C29.6486 15.0713 29.6467 15.0713 29.6448 15.0713C29.6429 15.0713 29.6409 15.0713 29.639 15.0713C29.6371 15.0713 29.6352 15.0713 29.6332 15.0713C29.6313 15.0713 29.6294 15.0713 29.6275 15.0713C29.6255 15.0713 29.6236 15.0713 29.6217 15.0713C29.6198 15.0713 29.6179 15.0713 29.6159 15.0713C29.614 15.0713 29.6121 15.0713 29.6102 15.0713C29.6082 15.0713 29.6063 15.0713 29.6044 15.0713C29.6025 15.0713 29.6005 15.0713 29.5986 15.0713C29.5967 15.0713 29.5948 15.0713 29.5928 15.0713C29.5909 15.0713 29.589 15.0713 29.5871 15.0713C29.5851 15.0713 29.5832 15.0713 29.5813 15.0713C29.5794 15.0713 29.5774 15.0713 29.5755 15.0713C29.5736 15.0713 29.5717 15.0713 29.5697 15.0713C29.5678 15.0713 29.5659 15.0713 29.5639 15.0713C29.562 15.0713 29.5601 15.0713 29.5582 15.0713C29.5562 15.0713 29.5543 15.0713 29.5524 15.0713C29.5505 15.0713 29.5485 15.0713 29.5466 15.0713C29.5447 15.0713 29.5427 15.0713 29.5408 15.0713C29.5389 15.0713 29.537 15.0713 29.535 15.0713C29.5331 15.0713 29.5312 15.0713 29.5292 15.0713C29.5273 15.0713 29.5254 15.0713 29.5235 15.0713C29.5215 15.0713 29.5196 15.0713 29.5177 15.0713C29.5157 15.0713 29.5138 15.0713 29.5119 15.0713C29.5099 15.0713 29.508 15.0713 29.5061 15.0713C29.5042 15.0713 29.5022 15.0713 29.5003 15.0713C29.4984 15.0713 29.4964 15.0713 29.4945 15.0713C29.4926 15.0713 29.4906 15.0713 29.4887 15.0713C29.4868 15.0713 29.4848 15.0713 29.4829 15.0713C29.481 15.0713 29.479 15.0713 29.4771 15.0713C29.4752 15.0713 29.4732 15.0713 29.4713 15.0713C29.4694 15.0713 29.4674 15.0713 29.4655 15.0713C29.4636 15.0713 29.4616 15.0713 29.4597 15.0713C29.4578 15.0713 29.4558 15.0713 29.4539 15.0713C29.452 15.0713 29.45 15.0713 29.4481 15.0713C29.4462 15.0713 29.4442 15.0713 29.4423 15.0713C29.4404 15.0713 29.4384 15.0713 29.4365 15.0713C29.4346 15.0713 29.4326 15.0713 29.4307 15.0713C29.4288 15.0713 29.4268 15.0713 29.4249 15.0713C29.423 15.0713 29.421 15.0713 29.4191 15.0713C29.4171 15.0713 29.4152 15.0713 29.4133 15.0713C29.4113 15.0713 29.4094 15.0713 29.4075 15.0713C29.4055 15.0713 29.4036 15.0713 29.4016 15.0713C29.3997 15.0713 29.3978 15.0713 29.3958 15.0713C29.3939 15.0713 29.392 15.0713 29.39 15.0713C29.3881 15.0713 29.3861 15.0713 29.3842 15.0713C29.3823 15.0713 29.3803 15.0713 29.3784 15.0713C29.3765 15.0713 29.3745 15.0713 29.3726 15.0713C29.3706 15.0713 29.3687 15.0713 29.3668 15.0713C29.3648 15.0713 29.3629 15.0713 29.3609 15.0713C29.359 15.0713 29.3571 15.0713 29.3551 15.0713C29.3532 15.0713 29.3512 15.0713 29.3493 15.0713C29.3474 15.0713 29.3454 15.0713 29.3435 15.0713C29.3415 15.0713 29.3396 15.0713 29.3377 15.0713C29.3357 15.0713 29.3338 15.0713 29.3318 15.0713C29.3299 15.0713 29.3279 15.0713 29.326 15.0713C29.3241 15.0713 29.3221 15.0713 29.3202 15.0713C29.3182 15.0713 29.3163 15.0713 29.3143 15.0713C29.3124 15.0713 29.3105 15.0713 29.3085 15.0713C29.3066 15.0713 29.3046 15.0713 29.3027 15.0713C29.3007 15.0713 29.2988 15.0713 29.2969 15.0713C29.2949 15.0713 29.293 15.0713 29.291 15.0713C29.2891 15.0713 29.2871 15.0713 29.2852 15.0713C29.2832 15.0713 29.2813 15.0713 29.2793 15.0713C29.2774 15.0713 29.2755 15.0713 29.2735 15.0713C29.2716 15.0713 29.2696 15.0713 29.2677 15.0713C29.2657 15.0713 29.2638 15.0713 29.2618 15.0713C29.2599 15.0713 29.2579 15.0713 29.256 15.0713C29.254 15.0713 29.2521 15.0713 29.2502 15.0713C29.2482 15.0713 29.2463 15.0713 29.2443 15.0713C29.2424 15.0713 29.2404 15.0713 29.2385 15.0713C29.2365 15.0713 29.2346 15.0713 29.2326 15.0713C29.2307 15.0713 29.2287 15.0713 29.2268 15.0713C29.2248 15.0713 29.2229 15.0713 29.2209 15.0713C29.219 15.0713 29.217 15.0713 29.2151 15.0713C29.2131 15.0713 29.2112 15.0713 29.2092 15.0713C29.2073 15.0713 29.2053 15.0713 29.2034 15.0713C29.2014 15.0713 29.1995 15.0713 29.1975 15.0713C29.1956 15.0713 29.1936 15.0713 29.1917 15.0713C29.1897 15.0713 29.1878 15.0713 29.1858 15.0713C29.1839 15.0713 29.1819 15.0713 29.18 15.0713C29.178 15.0713 29.1761 15.0713 29.1741 15.0713C29.1721 15.0713 29.1702 15.0713 29.1682 15.0713C29.1663 15.0713 29.1643 15.0713 29.1624 15.0713C29.1604 15.0713 29.1585 15.0713 29.1565 15.0713C29.1546 15.0713 29.1526 15.0713 29.1507 15.0713C29.1487 15.0713 29.1467 15.0713 29.1448 15.0713C29.1428 15.0713 29.1409 15.0713 29.1389 15.0713C29.137 15.0713 29.135 15.0713 29.1331 15.0713C29.1311 15.0713 29.1292 15.0713 29.1272 15.0713C29.1252 15.0713 29.1233 15.0713 29.1213 15.0713C29.1194 15.0713 29.1174 15.0713 29.1155 15.0713C29.1135 15.0713 29.1115 15.0713 29.1096 15.0713C29.1076 15.0713 29.1057 15.0713 29.1037 15.0713C29.1018 15.0713 29.0998 15.0713 29.0978 15.0713C29.0959 15.0713 29.0939 15.0713 29.092 15.0713C29.09 15.0713 29.088 15.0713 29.0861 15.0713C29.0841 15.0713 29.0822 15.0713 29.0802 15.0713C29.0782 15.0713 29.0763 15.0713 29.0743 15.0713C29.0724 15.0713 29.0704 15.0713 29.0684 15.0713C29.0665 15.0713 29.0645 15.0713 29.0626 15.0713C29.0606 15.0713 29.0586 15.0713 29.0567 15.0713C29.0547 15.0713 29.0528 15.0713 29.0508 15.0713C29.0488 15.0713 29.0469 15.0713 29.0449 15.0713C29.043 15.0713 29.041 15.0713 29.039 15.0713C29.0371 15.0713 29.0351 15.0713 29.0331 15.0713C29.0312 15.0713 29.0292 15.0713 29.0272 15.0713C29.0253 15.0713 29.0233 15.0713 29.0214 15.0713C29.0194 15.0713 29.0174 15.0713 29.0155 15.0713C29.0135 15.0713 29.0115 15.0713 29.0096 15.0713C29.0076 15.0713 29.0056 15.0713 29.0037 15.0713C29.0017 15.0713 28.9997 15.0713 28.9978 15.0713C28.9958 15.0713 28.9939 15.0713 28.9919 15.0713C28.9899 15.0713 28.988 15.0713 28.986 15.0713C28.984 15.0713 28.9821 15.0713 28.9801 15.0713C28.9781 15.0713 28.9762 15.0713 28.9742 15.0713C28.9722 15.0713 28.9702 15.0713 28.9683 15.0713C28.9663 15.0713 28.9643 15.0713 28.9624 15.0713C28.9604 15.0713 28.9584 15.0713 28.9565 15.0713C28.9545 15.0713 28.9525 15.0713 28.9506 15.0713C28.9486 15.0713 28.9466 15.0713 28.9447 15.0713C28.9427 15.0713 28.9407 15.0713 28.9387 15.0713C28.9368 15.0713 28.9348 15.0713 28.9328 15.0713C28.9309 15.0713 28.9289 15.0713 28.9269 15.0713C28.925 15.0713 28.923 15.0713 28.921 15.0713C28.919 15.0713 28.9171 15.0713 28.9151 15.0713C28.9131 15.0713 28.9111 15.0713 28.9092 15.0713C28.9072 15.0713 28.9052 15.0713 28.9033 15.0713C28.9013 15.0713 28.8993 15.0713 28.8973 15.0713C28.8954 15.0713 28.8934 15.0713 28.8914 15.0713C28.8894 15.0713 28.8875 15.0713 28.8855 15.0713C28.8835 15.0713 28.8815 15.0713 28.8796 15.0713C28.8776 15.0713 28.8756 15.0713 28.8736 15.0713C28.8717 15.0713 28.8697 15.0713 28.8677 15.0713C28.8657 15.0713 28.8638 15.0713 28.8618 15.0713C28.8598 15.0713 28.8578 15.0713 28.8559 15.0713C28.8539 15.0713 28.8519 15.0713 28.8499 15.0713C28.848 15.0713 28.846 15.0713 28.844 15.0713C28.842 15.0713 28.84 15.0713 28.8381 15.0713C28.8361 15.0713 28.8341 15.0713 28.8321 15.0713C28.8302 15.0713 28.8282 15.0713 28.8262 15.0713C28.8242 15.0713 28.8222 15.0713 28.8203 15.0713C28.8183 15.0713 28.8163 15.0713 28.8143 15.0713C28.8123 15.0713 28.8104 15.0713 28.8084 15.0713C28.8064 15.0713 28.8044 15.0713 28.8024 15.0713C28.8005 15.0713 28.7985 15.0713 28.7965 15.0713C28.7945 15.0713 28.7925 15.0713 28.7906 15.0713C28.7886 15.0713 28.7866 15.0713 28.7846 15.0713C28.7826 15.0713 28.7806 15.0713 28.7787 15.0713C28.7767 15.0713 28.7747 15.0713 28.7727 15.0713C28.7707 15.0713 28.7687 15.0713 28.7668 15.0713C28.7648 15.0713 28.7628 15.0713 28.7608 15.0713C28.7588 15.0713 28.7568 15.0713 28.7549 15.0713C28.7529 15.0713 28.7509 15.0713 28.7489 15.0713C28.7469 15.0713 28.7449 15.0713 28.7429 15.0713C28.741 15.0713 28.739 15.0713 28.737 15.0713C28.735 15.0713 28.733 15.0713 28.731 15.0713C28.729 15.0713 28.7271 15.0713 28.7251 15.0713C28.7231 15.0713 28.7211 15.0713 28.7191 15.0713V15.5713C28.7211 15.5713 28.7231 15.5713 28.7251 15.5713C28.7271 15.5713 28.729 15.5713 28.731 15.5713C28.733 15.5713 28.735 15.5713 28.737 15.5713C28.739 15.5713 28.741 15.5713 28.7429 15.5713C28.7449 15.5713 28.7469 15.5713 28.7489 15.5713C28.7509 15.5713 28.7529 15.5713 28.7549 15.5713C28.7568 15.5713 28.7588 15.5713 28.7608 15.5713C28.7628 15.5713 28.7648 15.5713 28.7668 15.5713C28.7687 15.5713 28.7707 15.5713 28.7727 15.5713C28.7747 15.5713 28.7767 15.5713 28.7787 15.5713C28.7806 15.5713 28.7826 15.5713 28.7846 15.5713C28.7866 15.5713 28.7886 15.5713 28.7906 15.5713C28.7925 15.5713 28.7945 15.5713 28.7965 15.5713C28.7985 15.5713 28.8005 15.5713 28.8024 15.5713C28.8044 15.5713 28.8064 15.5713 28.8084 15.5713C28.8104 15.5713 28.8123 15.5713 28.8143 15.5713C28.8163 15.5713 28.8183 15.5713 28.8203 15.5713C28.8222 15.5713 28.8242 15.5713 28.8262 15.5713C28.8282 15.5713 28.8302 15.5713 28.8321 15.5713C28.8341 15.5713 28.8361 15.5713 28.8381 15.5713C28.84 15.5713 28.842 15.5713 28.844 15.5713C28.846 15.5713 28.848 15.5713 28.8499 15.5713C28.8519 15.5713 28.8539 15.5713 28.8559 15.5713C28.8578 15.5713 28.8598 15.5713 28.8618 15.5713C28.8638 15.5713 28.8657 15.5713 28.8677 15.5713C28.8697 15.5713 28.8717 15.5713 28.8736 15.5713C28.8756 15.5713 28.8776 15.5713 28.8796 15.5713C28.8815 15.5713 28.8835 15.5713 28.8855 15.5713C28.8875 15.5713 28.8894 15.5713 28.8914 15.5713C28.8934 15.5713 28.8954 15.5713 28.8973 15.5713C28.8993 15.5713 28.9013 15.5713 28.9033 15.5713C28.9052 15.5713 28.9072 15.5713 28.9092 15.5713C28.9111 15.5713 28.9131 15.5713 28.9151 15.5713C28.9171 15.5713 28.919 15.5713 28.921 15.5713C28.923 15.5713 28.925 15.5713 28.9269 15.5713C28.9289 15.5713 28.9309 15.5713 28.9328 15.5713C28.9348 15.5713 28.9368 15.5713 28.9387 15.5713C28.9407 15.5713 28.9427 15.5713 28.9447 15.5713C28.9466 15.5713 28.9486 15.5713 28.9506 15.5713C28.9525 15.5713 28.9545 15.5713 28.9565 15.5713C28.9584 15.5713 28.9604 15.5713 28.9624 15.5713C28.9643 15.5713 28.9663 15.5713 28.9683 15.5713C28.9702 15.5713 28.9722 15.5713 28.9742 15.5713C28.9762 15.5713 28.9781 15.5713 28.9801 15.5713C28.9821 15.5713 28.984 15.5713 28.986 15.5713C28.988 15.5713 28.9899 15.5713 28.9919 15.5713C28.9939 15.5713 28.9958 15.5713 28.9978 15.5713C28.9997 15.5713 29.0017 15.5713 29.0037 15.5713C29.0056 15.5713 29.0076 15.5713 29.0096 15.5713C29.0115 15.5713 29.0135 15.5713 29.0155 15.5713C29.0174 15.5713 29.0194 15.5713 29.0214 15.5713C29.0233 15.5713 29.0253 15.5713 29.0272 15.5713C29.0292 15.5713 29.0312 15.5713 29.0331 15.5713C29.0351 15.5713 29.0371 15.5713 29.039 15.5713C29.041 15.5713 29.043 15.5713 29.0449 15.5713C29.0469 15.5713 29.0488 15.5713 29.0508 15.5713C29.0528 15.5713 29.0547 15.5713 29.0567 15.5713C29.0586 15.5713 29.0606 15.5713 29.0626 15.5713C29.0645 15.5713 29.0665 15.5713 29.0684 15.5713C29.0704 15.5713 29.0724 15.5713 29.0743 15.5713C29.0763 15.5713 29.0782 15.5713 29.0802 15.5713C29.0822 15.5713 29.0841 15.5713 29.0861 15.5713C29.088 15.5713 29.09 15.5713 29.092 15.5713C29.0939 15.5713 29.0959 15.5713 29.0978 15.5713C29.0998 15.5713 29.1018 15.5713 29.1037 15.5713C29.1057 15.5713 29.1076 15.5713 29.1096 15.5713C29.1115 15.5713 29.1135 15.5713 29.1155 15.5713C29.1174 15.5713 29.1194 15.5713 29.1213 15.5713C29.1233 15.5713 29.1252 15.5713 29.1272 15.5713C29.1292 15.5713 29.1311 15.5713 29.1331 15.5713C29.135 15.5713 29.137 15.5713 29.1389 15.5713C29.1409 15.5713 29.1428 15.5713 29.1448 15.5713C29.1467 15.5713 29.1487 15.5713 29.1507 15.5713C29.1526 15.5713 29.1546 15.5713 29.1565 15.5713C29.1585 15.5713 29.1604 15.5713 29.1624 15.5713C29.1643 15.5713 29.1663 15.5713 29.1682 15.5713C29.1702 15.5713 29.1721 15.5713 29.1741 15.5713C29.1761 15.5713 29.178 15.5713 29.18 15.5713C29.1819 15.5713 29.1839 15.5713 29.1858 15.5713C29.1878 15.5713 29.1897 15.5713 29.1917 15.5713C29.1936 15.5713 29.1956 15.5713 29.1975 15.5713C29.1995 15.5713 29.2014 15.5713 29.2034 15.5713C29.2053 15.5713 29.2073 15.5713 29.2092 15.5713C29.2112 15.5713 29.2131 15.5713 29.2151 15.5713C29.217 15.5713 29.219 15.5713 29.2209 15.5713C29.2229 15.5713 29.2248 15.5713 29.2268 15.5713C29.2287 15.5713 29.2307 15.5713 29.2326 15.5713C29.2346 15.5713 29.2365 15.5713 29.2385 15.5713C29.2404 15.5713 29.2424 15.5713 29.2443 15.5713C29.2463 15.5713 29.2482 15.5713 29.2502 15.5713C29.2521 15.5713 29.254 15.5713 29.256 15.5713C29.2579 15.5713 29.2599 15.5713 29.2618 15.5713C29.2638 15.5713 29.2657 15.5713 29.2677 15.5713C29.2696 15.5713 29.2716 15.5713 29.2735 15.5713C29.2755 15.5713 29.2774 15.5713 29.2793 15.5713C29.2813 15.5713 29.2832 15.5713 29.2852 15.5713C29.2871 15.5713 29.2891 15.5713 29.291 15.5713C29.293 15.5713 29.2949 15.5713 29.2969 15.5713C29.2988 15.5713 29.3007 15.5713 29.3027 15.5713C29.3046 15.5713 29.3066 15.5713 29.3085 15.5713C29.3105 15.5713 29.3124 15.5713 29.3143 15.5713C29.3163 15.5713 29.3182 15.5713 29.3202 15.5713C29.3221 15.5713 29.3241 15.5713 29.326 15.5713C29.3279 15.5713 29.3299 15.5713 29.3318 15.5713C29.3338 15.5713 29.3357 15.5713 29.3377 15.5713C29.3396 15.5713 29.3415 15.5713 29.3435 15.5713C29.3454 15.5713 29.3474 15.5713 29.3493 15.5713C29.3512 15.5713 29.3532 15.5713 29.3551 15.5713C29.3571 15.5713 29.359 15.5713 29.3609 15.5713C29.3629 15.5713 29.3648 15.5713 29.3668 15.5713C29.3687 15.5713 29.3706 15.5713 29.3726 15.5713C29.3745 15.5713 29.3765 15.5713 29.3784 15.5713C29.3803 15.5713 29.3823 15.5713 29.3842 15.5713C29.3861 15.5713 29.3881 15.5713 29.39 15.5713C29.392 15.5713 29.3939 15.5713 29.3958 15.5713C29.3978 15.5713 29.3997 15.5713 29.4016 15.5713C29.4036 15.5713 29.4055 15.5713 29.4075 15.5713C29.4094 15.5713 29.4113 15.5713 29.4133 15.5713C29.4152 15.5713 29.4171 15.5713 29.4191 15.5713C29.421 15.5713 29.423 15.5713 29.4249 15.5713C29.4268 15.5713 29.4288 15.5713 29.4307 15.5713C29.4326 15.5713 29.4346 15.5713 29.4365 15.5713C29.4384 15.5713 29.4404 15.5713 29.4423 15.5713C29.4442 15.5713 29.4462 15.5713 29.4481 15.5713C29.45 15.5713 29.452 15.5713 29.4539 15.5713C29.4558 15.5713 29.4578 15.5713 29.4597 15.5713C29.4616 15.5713 29.4636 15.5713 29.4655 15.5713C29.4674 15.5713 29.4694 15.5713 29.4713 15.5713C29.4732 15.5713 29.4752 15.5713 29.4771 15.5713C29.479 15.5713 29.481 15.5713 29.4829 15.5713C29.4848 15.5713 29.4868 15.5713 29.4887 15.5713C29.4906 15.5713 29.4926 15.5713 29.4945 15.5713C29.4964 15.5713 29.4984 15.5713 29.5003 15.5713C29.5022 15.5713 29.5042 15.5713 29.5061 15.5713C29.508 15.5713 29.5099 15.5713 29.5119 15.5713C29.5138 15.5713 29.5157 15.5713 29.5177 15.5713C29.5196 15.5713 29.5215 15.5713 29.5235 15.5713C29.5254 15.5713 29.5273 15.5713 29.5292 15.5713C29.5312 15.5713 29.5331 15.5713 29.535 15.5713C29.537 15.5713 29.5389 15.5713 29.5408 15.5713C29.5427 15.5713 29.5447 15.5713 29.5466 15.5713C29.5485 15.5713 29.5505 15.5713 29.5524 15.5713C29.5543 15.5713 29.5562 15.5713 29.5582 15.5713C29.5601 15.5713 29.562 15.5713 29.5639 15.5713C29.5659 15.5713 29.5678 15.5713 29.5697 15.5713C29.5717 15.5713 29.5736 15.5713 29.5755 15.5713C29.5774 15.5713 29.5794 15.5713 29.5813 15.5713C29.5832 15.5713 29.5851 15.5713 29.5871 15.5713C29.589 15.5713 29.5909 15.5713 29.5928 15.5713C29.5948 15.5713 29.5967 15.5713 29.5986 15.5713C29.6005 15.5713 29.6025 15.5713 29.6044 15.5713C29.6063 15.5713 29.6082 15.5713 29.6102 15.5713C29.6121 15.5713 29.614 15.5713 29.6159 15.5713C29.6179 15.5713 29.6198 15.5713 29.6217 15.5713C29.6236 15.5713 29.6255 15.5713 29.6275 15.5713C29.6294 15.5713 29.6313 15.5713 29.6332 15.5713C29.6352 15.5713 29.6371 15.5713 29.639 15.5713C29.6409 15.5713 29.6429 15.5713 29.6448 15.5713C29.6467 15.5713 29.6486 15.5713 29.6505 15.5713C29.6525 15.5713 29.6544 15.5713 29.6563 15.5713C29.6582 15.5713 29.6602 15.5713 29.6621 15.5713C29.664 15.5713 29.6659 15.5713 29.6678 15.5713C29.6698 15.5713 29.6717 15.5713 29.6736 15.5713C29.6755 15.5713 29.6774 15.5713 29.6794 15.5713C29.6813 15.5713 29.6832 15.5713 29.6851 15.5713C29.687 15.5713 29.689 15.5713 29.6909 15.5713C29.6928 15.5713 29.6947 15.5713 29.6966 15.5713C29.6986 15.5713 29.7005 15.5713 29.7024 15.5713C29.7043 15.5713 29.7062 15.5713 29.7081 15.5713C29.7101 15.5713 29.712 15.5713 29.7139 15.5713C29.7158 15.5713 29.7177 15.5713 29.7197 15.5713C29.7216 15.5713 29.7235 15.5713 29.7254 15.5713C29.7273 15.5713 29.7292 15.5713 29.7312 15.5713C29.7331 15.5713 29.735 15.5713 29.7369 15.5713C29.7388 15.5713 29.7407 15.5713 29.7427 15.5713C29.7446 15.5713 29.7465 15.5713 29.7484 15.5713C29.7503 15.5713 29.7522 15.5713 29.7542 15.5713C29.7561 15.5713 29.758 15.5713 29.7599 15.5713C29.7618 15.5713 29.7637 15.5713 29.7657 15.5713C29.7676 15.5713 29.7695 15.5713 29.7714 15.5713C29.7733 15.5713 29.7752 15.5713 29.7771 15.5713C29.7791 15.5713 29.781 15.5713 29.7829 15.5713C29.7848 15.5713 29.7867 15.5713 29.7886 15.5713C29.7905 15.5713 29.7925 15.5713 29.7944 15.5713C29.7963 15.5713 29.7982 15.5713 29.8001 15.5713C29.802 15.5713 29.8039 15.5713 29.8059 15.5713C29.8078 15.5713 29.8097 15.5713 29.8116 15.5713C29.8135 15.5713 29.8154 15.5713 29.8173 15.5713C29.8192 15.5713 29.8212 15.5713 29.8231 15.5713C29.825 15.5713 29.8269 15.5713 29.8288 15.5713C29.8307 15.5713 29.8326 15.5713 29.8345 15.5713C29.8365 15.5713 29.8384 15.5713 29.8403 15.5713C29.8422 15.5713 29.8441 15.5713 29.846 15.5713C29.8479 15.5713 29.8498 15.5713 29.8517 15.5713C29.8536 15.5713 29.8556 15.5713 29.8575 15.5713C29.8594 15.5713 29.8613 15.5713 29.8632 15.5713C29.8651 15.5713 29.867 15.5713 29.8689 15.5713C29.8708 15.5713 29.8727 15.5713 29.8747 15.5713C29.8766 15.5713 29.8785 15.5713 29.8804 15.5713C29.8823 15.5713 29.8842 15.5713 29.8861 15.5713C29.888 15.5713 29.8899 15.5713 29.8918 15.5713C29.8937 15.5713 29.8957 15.5713 29.8976 15.5713C29.8995 15.5713 29.9014 15.5713 29.9033 15.5713C29.9052 15.5713 29.9071 15.5713 29.909 15.5713C29.9109 15.5713 29.9128 15.5713 29.9147 15.5713C29.9166 15.5713 29.9186 15.5713 29.9205 15.5713C29.9224 15.5713 29.9243 15.5713 29.9262 15.5713C29.9281 15.5713 29.93 15.5713 29.9319 15.5713C29.9338 15.5713 29.9357 15.5713 29.9376 15.5713C29.9395 15.5713 29.9414 15.5713 29.9433 15.5713C29.9452 15.5713 29.9471 15.5713 29.9491 15.5713C29.951 15.5713 29.9529 15.5713 29.9548 15.5713C29.9567 15.5713 29.9586 15.5713 29.9605 15.5713C29.9624 15.5713 29.9643 15.5713 29.9662 15.5713C29.9681 15.5713 29.97 15.5713 29.9719 15.5713C29.9738 15.5713 29.9757 15.5713 29.9776 15.5713C29.9795 15.5713 29.9814 15.5713 29.9833 15.5713C29.9852 15.5713 29.9871 15.5713 29.989 15.5713C29.991 15.5713 29.9929 15.5713 29.9948 15.5713C29.9967 15.5713 29.9986 15.5713 30.0005 15.5713C30.0024 15.5713 30.0043 15.5713 30.0062 15.5713C30.0081 15.5713 30.01 15.5713 30.0119 15.5713C30.0138 15.5713 30.0157 15.5713 30.0176 15.5713C30.0195 15.5713 30.0214 15.5713 30.0233 15.5713C30.0252 15.5713 30.0271 15.5713 30.029 15.5713C30.0309 15.5713 30.0328 15.5713 30.0347 15.5713C30.0366 15.5713 30.0385 15.5713 30.0404 15.5713C30.0423 15.5713 30.0442 15.5713 30.0461 15.5713C30.048 15.5713 30.0499 15.5713 30.0518 15.5713C30.0537 15.5713 30.0556 15.5713 30.0575 15.5713C30.0594 15.5713 30.0613 15.5713 30.0632 15.5713C30.0651 15.5713 30.067 15.5713 30.0689 15.5713C30.0708 15.5713 30.0727 15.5713 30.0746 15.5713C30.0765 15.5713 30.0784 15.5713 30.0803 15.5713C30.0822 15.5713 30.0841 15.5713 30.086 15.5713C30.0879 15.5713 30.0898 15.5713 30.0917 15.5713C30.0936 15.5713 30.0955 15.5713 30.0974 15.5713C30.0993 15.5713 30.1012 15.5713 30.1031 15.5713C30.105 15.5713 30.1069 15.5713 30.1088 15.5713C30.1107 15.5713 30.1126 15.5713 30.1145 15.5713C30.1164 15.5713 30.1183 15.5713 30.1202 15.5713C30.1221 15.5713 30.124 15.5713 30.1259 15.5713C30.1278 15.5713 30.1297 15.5713 30.1316 15.5713C30.1335 15.5713 30.1354 15.5713 30.1373 15.5713C30.1392 15.5713 30.141 15.5713 30.1429 15.5713C30.1448 15.5713 30.1467 15.5713 30.1486 15.5713C30.1505 15.5713 30.1524 15.5713 30.1543 15.5713C30.1562 15.5713 30.1581 15.5713 30.16 15.5713C30.1619 15.5713 30.1638 15.5713 30.1657 15.5713C30.1676 15.5713 30.1695 15.5713 30.1714 15.5713C30.1733 15.5713 30.1752 15.5713 30.1771 15.5713C30.179 15.5713 30.1809 15.5713 30.1827 15.5713C30.1846 15.5713 30.1865 15.5713 30.1884 15.5713C30.1903 15.5713 30.1922 15.5713 30.1941 15.5713C30.196 15.5713 30.1979 15.5713 30.1998 15.5713C30.2017 15.5713 30.2036 15.5713 30.2055 15.5713C30.2074 15.5713 30.2093 15.5713 30.2112 15.5713C30.2131 15.5713 30.2149 15.5713 30.2168 15.5713C30.2187 15.5713 30.2206 15.5713 30.2225 15.5713C30.2244 15.5713 30.2263 15.5713 30.2282 15.5713C30.2301 15.5713 30.232 15.5713 30.2339 15.5713C30.2358 15.5713 30.2377 15.5713 30.2396 15.5713C30.2414 15.5713 30.2433 15.5713 30.2452 15.5713C30.2471 15.5713 30.249 15.5713 30.2509 15.5713C30.2528 15.5713 30.2547 15.5713 30.2566 15.5713C30.2585 15.5713 30.2604 15.5713 30.2623 15.5713C30.2641 15.5713 30.266 15.5713 30.2679 15.5713C30.2698 15.5713 30.2717 15.5713 30.2736 15.5713C30.2755 15.5713 30.2774 15.5713 30.2793 15.5713C30.2812 15.5713 30.2831 15.5713 30.2849 15.5713C30.2868 15.5713 30.2887 15.5713 30.2906 15.5713C30.2925 15.5713 30.2944 15.5713 30.2963 15.5713C30.2982 15.5713 30.3001 15.5713 30.302 15.5713C30.3038 15.5713 30.3057 15.5713 30.3076 15.5713C30.3095 15.5713 30.3114 15.5713 30.3133 15.5713C30.3152 15.5713 30.3171 15.5713 30.319 15.5713C30.3208 15.5713 30.3227 15.5713 30.3246 15.5713C30.3265 15.5713 30.3284 15.5713 30.3303 15.5713C30.3322 15.5713 30.3341 15.5713 30.336 15.5713C30.3378 15.5713 30.3397 15.5713 30.3416 15.5713C30.3435 15.5713 30.3454 15.5713 30.3473 15.5713C30.3492 15.5713 30.3511 15.5713 30.3529 15.5713C30.3548 15.5713 30.3567 15.5713 30.3586 15.5713C30.3605 15.5713 30.3624 15.5713 30.3643 15.5713C30.3662 15.5713 30.368 15.5713 30.3699 15.5713C30.3718 15.5713 30.3737 15.5713 30.3756 15.5713C30.3775 15.5713 30.3794 15.5713 30.3813 15.5713C30.3831 15.5713 30.385 15.5713 30.3869 15.5713C30.3888 15.5713 30.3907 15.5713 30.3926 15.5713C30.3945 15.5713 30.3963 15.5713 30.3982 15.5713C30.4001 15.5713 30.402 15.5713 30.4039 15.5713C30.4058 15.5713 30.4077 15.5713 30.4095 15.5713C30.4114 15.5713 30.4133 15.5713 30.4152 15.5713C30.4171 15.5713 30.419 15.5713 30.4209 15.5713C30.4227 15.5713 30.4246 15.5713 30.4265 15.5713C30.4284 15.5713 30.4303 15.5713 30.4322 15.5713C30.434 15.5713 30.4359 15.5713 30.4378 15.5713C30.4397 15.5713 30.4416 15.5713 30.4435 15.5713C30.4454 15.5713 30.4472 15.5713 30.4491 15.5713C30.451 15.5713 30.4529 15.5713 30.4548 15.5713C30.4567 15.5713 30.4585 15.5713 30.4604 15.5713C30.4623 15.5713 30.4642 15.5713 30.4661 15.5713C30.468 15.5713 30.4698 15.5713 30.4717 15.5713C30.4736 15.5713 30.4755 15.5713 30.4774 15.5713C30.4793 15.5713 30.4811 15.5713 30.483 15.5713C30.4849 15.5713 30.4868 15.5713 30.4887 15.5713C30.4906 15.5713 30.4924 15.5713 30.4943 15.5713C30.4962 15.5713 30.4981 15.5713 30.5 15.5713C30.5018 15.5713 30.5037 15.5713 30.5056 15.5713C30.5075 15.5713 30.5094 15.5713 30.5113 15.5713C30.5131 15.5713 30.515 15.5713 30.5169 15.5713C30.5188 15.5713 30.5207 15.5713 30.5225 15.5713C30.5244 15.5713 30.5263 15.5713 30.5282 15.5713C30.5301 15.5713 30.532 15.5713 30.5338 15.5713C30.5357 15.5713 30.5376 15.5713 30.5395 15.5713C30.5414 15.5713 30.5432 15.5713 30.5451 15.5713C30.547 15.5713 30.5489 15.5713 30.5508 15.5713C30.5526 15.5713 30.5545 15.5713 30.5564 15.5713C30.5583 15.5713 30.5602 15.5713 30.562 15.5713C30.5639 15.5713 30.5658 15.5713 30.5677 15.5713C30.5696 15.5713 30.5714 15.5713 30.5733 15.5713C30.5752 15.5713 30.5771 15.5713 30.579 15.5713C30.5808 15.5713 30.5827 15.5713 30.5846 15.5713C30.5865 15.5713 30.5884 15.5713 30.5902 15.5713C30.5921 15.5713 30.594 15.5713 30.5959 15.5713C30.5978 15.5713 30.5996 15.5713 30.6015 15.5713C30.6034 15.5713 30.6053 15.5713 30.6071 15.5713C30.609 15.5713 30.6109 15.5713 30.6128 15.5713C30.6147 15.5713 30.6165 15.5713 30.6184 15.5713C30.6203 15.5713 30.6222 15.5713 30.6241 15.5713C30.6259 15.5713 30.6278 15.5713 30.6297 15.5713C30.6316 15.5713 30.6334 15.5713 30.6353 15.5713C30.6372 15.5713 30.6391 15.5713 30.641 15.5713C30.6428 15.5713 30.6447 15.5713 30.6466 15.5713C30.6485 15.5713 30.6503 15.5713 30.6522 15.5713C30.6541 15.5713 30.656 15.5713 30.6579 15.5713C30.6597 15.5713 30.6616 15.5713 30.6635 15.5713C30.6654 15.5713 30.6672 15.5713 30.6691 15.5713C30.671 15.5713 30.6729 15.5713 30.6747 15.5713C30.6766 15.5713 30.6785 15.5713 30.6804 15.5713C30.6822 15.5713 30.6841 15.5713 30.686 15.5713C30.6879 15.5713 30.6898 15.5713 30.6916 15.5713C30.6935 15.5713 30.6954 15.5713 30.6973 15.5713C30.6991 15.5713 30.701 15.5713 30.7029 15.5713C30.7048 15.5713 30.7066 15.5713 30.7085 15.5713C30.7104 15.5713 30.7123 15.5713 30.7141 15.5713C30.716 15.5713 30.7179 15.5713 30.7198 15.5713C30.7216 15.5713 30.7235 15.5713 30.7254 15.5713C30.7273 15.5713 30.7291 15.5713 30.731 15.5713C30.7329 15.5713 30.7348 15.5713 30.7366 15.5713C30.7385 15.5713 30.7404 15.5713 30.7423 15.5713C30.7441 15.5713 30.746 15.5713 30.7479 15.5713C30.7498 15.5713 30.7516 15.5713 30.7535 15.5713C30.7554 15.5713 30.7573 15.5713 30.7591 15.5713C30.761 15.5713 30.7629 15.5713 30.7648 15.5713C30.7666 15.5713 30.7685 15.5713 30.7704 15.5713C30.7723 15.5713 30.7741 15.5713 30.776 15.5713C30.7779 15.5713 30.7798 15.5713 30.7816 15.5713C30.7835 15.5713 30.7854 15.5713 30.7872 15.5713C30.7891 15.5713 30.791 15.5713 30.7929 15.5713C30.7947 15.5713 30.7966 15.5713 30.7985 15.5713C30.8004 15.5713 30.8022 15.5713 30.8041 15.5713C30.806 15.5713 30.8079 15.5713 30.8097 15.5713C30.8116 15.5713 30.8135 15.5713 30.8153 15.5713C30.8172 15.5713 30.8191 15.5713 30.821 15.5713C30.8228 15.5713 30.8247 15.5713 30.8266 15.5713C30.8285 15.5713 30.8303 15.5713 30.8322 15.5713C30.8341 15.5713 30.8359 15.5713 30.8378 15.5713C30.8397 15.5713 30.8416 15.5713 30.8434 15.5713C30.8453 15.5713 30.8472 15.5713 30.849 15.5713C30.8509 15.5713 30.8528 15.5713 30.8547 15.5713C30.8565 15.5713 30.8584 15.5713 30.8603 15.5713C30.8622 15.5713 30.864 15.5713 30.8659 15.5713C30.8678 15.5713 30.8696 15.5713 30.8715 15.5713C30.8734 15.5713 30.8752 15.5713 30.8771 15.5713C30.879 15.5713 30.8809 15.5713 30.8827 15.5713C30.8846 15.5713 30.8865 15.5713 30.8883 15.5713C30.8902 15.5713 30.8921 15.5713 30.894 15.5713C30.8958 15.5713 30.8977 15.5713 30.8996 15.5713C30.9014 15.5713 30.9033 15.5713 30.9052 15.5713C30.9071 15.5713 30.9089 15.5713 30.9108 15.5713C30.9127 15.5713 30.9145 15.5713 30.9164 15.5713C30.9183 15.5713 30.9202 15.5713 30.922 15.5713C30.9239 15.5713 30.9258 15.5713 30.9276 15.5713C30.9295 15.5713 30.9314 15.5713 30.9332 15.5713C30.9351 15.5713 30.937 15.5713 30.9389 15.5713C30.9407 15.5713 30.9426 15.5713 30.9445 15.5713C30.9463 15.5713 30.9482 15.5713 30.9501 15.5713C30.9519 15.5713 30.9538 15.5713 30.9557 15.5713C30.9576 15.5713 30.9594 15.5713 30.9613 15.5713C30.9632 15.5713 30.965 15.5713 30.9669 15.5713C30.9688 15.5713 30.9706 15.5713 30.9725 15.5713C30.9744 15.5713 30.9762 15.5713 30.9781 15.5713C30.98 15.5713 30.9819 15.5713 30.9837 15.5713C30.9856 15.5713 30.9875 15.5713 30.9893 15.5713C30.9912 15.5713 30.9931 15.5713 30.9949 15.5713C30.9968 15.5713 30.9987 15.5713 31.0005 15.5713C31.0024 15.5713 31.0043 15.5713 31.0061 15.5713C31.008 15.5713 31.0099 15.5713 31.0118 15.5713C31.0136 15.5713 31.0155 15.5713 31.0174 15.5713C31.0192 15.5713 31.0211 15.5713 31.023 15.5713C31.0248 15.5713 31.0267 15.5713 31.0286 15.5713C31.0304 15.5713 31.0323 15.5713 31.0342 15.5713C31.036 15.5713 31.0379 15.5713 31.0398 15.5713C31.0416 15.5713 31.0435 15.5713 31.0454 15.5713C31.0472 15.5713 31.0491 15.5713 31.051 15.5713C31.0528 15.5713 31.0547 15.5713 31.0566 15.5713C31.0585 15.5713 31.0603 15.5713 31.0622 15.5713C31.0641 15.5713 31.0659 15.5713 31.0678 15.5713C31.0697 15.5713 31.0715 15.5713 31.0734 15.5713C31.0753 15.5713 31.0771 15.5713 31.079 15.5713C31.0809 15.5713 31.0827 15.5713 31.0846 15.5713C31.0865 15.5713 31.0883 15.5713 31.0902 15.5713C31.0921 15.5713 31.0939 15.5713 31.0958 15.5713C31.0977 15.5713 31.0995 15.5713 31.1014 15.5713C31.1033 15.5713 31.1051 15.5713 31.107 15.5713C31.1089 15.5713 31.1107 15.5713 31.1126 15.5713C31.1145 15.5713 31.1163 15.5713 31.1182 15.5713C31.1201 15.5713 31.1219 15.5713 31.1238 15.5713C31.1257 15.5713 31.1275 15.5713 31.1294 15.5713C31.1313 15.5713 31.1331 15.5713 31.135 15.5713C31.1369 15.5713 31.1387 15.5713 31.1406 15.5713C31.1425 15.5713 31.1443 15.5713 31.1462 15.5713C31.1481 15.5713 31.1499 15.5713 31.1518 15.5713C31.1537 15.5713 31.1555 15.5713 31.1574 15.5713C31.1593 15.5713 31.1611 15.5713 31.163 15.5713C31.1649 15.5713 31.1667 15.5713 31.1686 15.5713C31.1705 15.5713 31.1723 15.5713 31.1742 15.5713C31.176 15.5713 31.1779 15.5713 31.1798 15.5713C31.1816 15.5713 31.1835 15.5713 31.1854 15.5713C31.1872 15.5713 31.1891 15.5713 31.191 15.5713C31.1928 15.5713 31.1947 15.5713 31.1966 15.5713C31.1984 15.5713 31.2003 15.5713 31.2022 15.5713C31.204 15.5713 31.2059 15.5713 31.2078 15.5713C31.2096 15.5713 31.2115 15.5713 31.2134 15.5713C31.2152 15.5713 31.2171 15.5713 31.219 15.5713C31.2208 15.5713 31.2227 15.5713 31.2245 15.5713C31.2264 15.5713 31.2283 15.5713 31.2301 15.5713C31.232 15.5713 31.2339 15.5713 31.2357 15.5713C31.2376 15.5713 31.2395 15.5713 31.2413 15.5713C31.2432 15.5713 31.2451 15.5713 31.2469 15.5713C31.2488 15.5713 31.2507 15.5713 31.2525 15.5713C31.2544 15.5713 31.2563 15.5713 31.2581 15.5713C31.26 15.5713 31.2618 15.5713 31.2637 15.5713C31.2656 15.5713 31.2674 15.5713 31.2693 15.5713C31.2712 15.5713 31.273 15.5713 31.2749 15.5713C31.2768 15.5713 31.2786 15.5713 31.2805 15.5713C31.2824 15.5713 31.2842 15.5713 31.2861 15.5713C31.2879 15.5713 31.2898 15.5713 31.2917 15.5713C31.2935 15.5713 31.2954 15.5713 31.2973 15.5713C31.2991 15.5713 31.301 15.5713 31.3029 15.5713C31.3047 15.5713 31.3066 15.5713 31.3085 15.5713C31.3103 15.5713 31.3122 15.5713 31.314 15.5713C31.3159 15.5713 31.3178 15.5713 31.3196 15.5713C31.3215 15.5713 31.3234 15.5713 31.3252 15.5713C31.3271 15.5713 31.329 15.5713 31.3308 15.5713C31.3327 15.5713 31.3346 15.5713 31.3364 15.5713C31.3383 15.5713 31.3401 15.5713 31.342 15.5713C31.3439 15.5713 31.3457 15.5713 31.3476 15.5713C31.3495 15.5713 31.3513 15.5713 31.3532 15.5713C31.3551 15.5713 31.3569 15.5713 31.3588 15.5713C31.3606 15.5713 31.3625 15.5713 31.3644 15.5713C31.3662 15.5713 31.3681 15.5713 31.37 15.5713C31.3718 15.5713 31.3737 15.5713 31.3756 15.5713C31.3774 15.5713 31.3793 15.5713 31.3811 15.5713C31.383 15.5713 31.3849 15.5713 31.3867 15.5713C31.3886 15.5713 31.3905 15.5713 31.3923 15.5713C31.3942 15.5713 31.396 15.5713 31.3979 15.5713C31.3998 15.5713 31.4016 15.5713 31.4035 15.5713C31.4054 15.5713 31.4072 15.5713 31.4091 15.5713C31.411 15.5713 31.4128 15.5713 31.4147 15.5713C31.4165 15.5713 31.4184 15.5713 31.4203 15.5713C31.4221 15.5713 31.424 15.5713 31.4259 15.5713C31.4277 15.5713 31.4296 15.5713 31.4314 15.5713C31.4333 15.5713 31.4352 15.5713 31.437 15.5713C31.4389 15.5713 31.4408 15.5713 31.4426 15.5713C31.4445 15.5713 31.4464 15.5713 31.4482 15.5713C31.4501 15.5713 31.4519 15.5713 31.4538 15.5713C31.4557 15.5713 31.4575 15.5713 31.4594 15.5713C31.4613 15.5713 31.4631 15.5713 31.465 15.5713C31.4668 15.5713 31.4687 15.5713 31.4706 15.5713C31.4724 15.5713 31.4743 15.5713 31.4762 15.5713C31.478 15.5713 31.4799 15.5713 31.4817 15.5713C31.4836 15.5713 31.4855 15.5713 31.4873 15.5713C31.4892 15.5713 31.4911 15.5713 31.4929 15.5713C31.4948 15.5713 31.4967 15.5713 31.4985 15.5713C31.5004 15.5713 31.5022 15.5713 31.5041 15.5713C31.506 15.5713 31.5078 15.5713 31.5097 15.5713C31.5116 15.5713 31.5134 15.5713 31.5153 15.5713C31.5171 15.5713 31.519 15.5713 31.5209 15.5713C31.5227 15.5713 31.5246 15.5713 31.5265 15.5713C31.5283 15.5713 31.5302 15.5713 31.532 15.5713C31.5339 15.5713 31.5358 15.5713 31.5376 15.5713C31.5395 15.5713 31.5414 15.5713 31.5432 15.5713C31.5451 15.5713 31.5469 15.5713 31.5488 15.5713C31.5507 15.5713 31.5525 15.5713 31.5544 15.5713C31.5563 15.5713 31.5581 15.5713 31.56 15.5713C31.5618 15.5713 31.5637 15.5713 31.5656 15.5713C31.5674 15.5713 31.5693 15.5713 31.5712 15.5713C31.573 15.5713 31.5749 15.5713 31.5767 15.5713C31.5786 15.5713 31.5805 15.5713 31.5823 15.5713C31.5842 15.5713 31.5861 15.5713 31.5879 15.5713C31.5898 15.5713 31.5916 15.5713 31.5935 15.5713C31.5954 15.5713 31.5972 15.5713 31.5991 15.5713C31.601 15.5713 31.6028 15.5713 31.6047 15.5713C31.6065 15.5713 31.6084 15.5713 31.6103 15.5713C31.6121 15.5713 31.614 15.5713 31.6159 15.5713C31.6177 15.5713 31.6196 15.5713 31.6214 15.5713C31.6233 15.5713 31.6252 15.5713 31.627 15.5713C31.6289 15.5713 31.6308 15.5713 31.6326 15.5713C31.6345 15.5713 31.6363 15.5713 31.6382 15.5713C31.6401 15.5713 31.6419 15.5713 31.6438 15.5713V15.0713ZM30.3391 20.2725C30.3339 20.26 30.3337 20.2583 30.3239 20.2329C30.3166 20.2144 30.3049 20.1855 30.287 20.1549L29.8555 20.4076C29.8532 20.4036 29.8536 20.4032 29.8579 20.4143C29.8602 20.4203 29.862 20.4249 29.8656 20.4346C29.8688 20.443 29.8729 20.4538 29.8778 20.4655L30.3391 20.2725ZM30.287 20.1549C29.4951 18.8022 28.7021 17.4511 27.9127 16.0977L27.4808 16.3496C28.2705 17.7035 29.0639 19.0555 29.8555 20.4076L30.287 20.1549ZM27.9127 16.0976C27.8594 16.0062 27.7593 15.8988 27.5969 15.9027C27.5339 15.9042 27.4827 15.9234 27.4518 15.9371C27.4216 15.9505 27.3918 15.9675 27.3767 15.9759L27.6198 16.4128C27.6432 16.3998 27.6497 16.3963 27.6541 16.3944C27.6578 16.3927 27.6397 16.4018 27.6088 16.4026C27.5707 16.4035 27.5331 16.3914 27.5046 16.3709C27.4814 16.3544 27.4754 16.3403 27.4808 16.3496L27.9127 16.0976ZM27.3766 15.976C26.6514 16.3799 25.9267 16.7834 25.2 17.183L25.441 17.6211C26.169 17.2207 26.8948 16.8167 27.6199 16.4128L27.3766 15.976ZM25.2001 17.1829C25.1542 17.2081 25.0366 17.2704 24.9829 17.3952C24.9183 17.5452 24.9793 17.6832 25.0284 17.766L25.4587 17.5113C25.447 17.4916 25.4499 17.4911 25.4527 17.5049C25.4566 17.5235 25.4577 17.5567 25.4421 17.5929C25.4283 17.625 25.4095 17.6399 25.4093 17.6401C25.4088 17.6405 25.4107 17.6389 25.4164 17.6353C25.4221 17.6317 25.4299 17.6271 25.4409 17.6211L25.2001 17.1829ZM25.0284 17.766C25.8156 19.0963 26.5973 20.4301 27.378 21.7649L27.8096 21.5124C27.0287 20.1774 26.2466 18.8428 25.4587 17.5114L25.0284 17.766ZM27.378 21.7648C27.4112 21.8216 27.4812 21.9314 27.6166 21.9692C27.7528 22.0072 27.8707 21.9491 27.9335 21.9139L27.6887 21.4779C27.6706 21.4881 27.6681 21.4873 27.6763 21.4852C27.6871 21.4824 27.7152 21.4776 27.751 21.4875C27.7867 21.4975 27.8082 21.5161 27.816 21.524C27.8218 21.53 27.8197 21.5296 27.8096 21.5125L27.378 21.7648ZM27.9335 21.9139C28.6587 21.5064 29.3804 21.1133 30.1102 20.706L29.8665 20.2694C29.1467 20.6712 28.4106 21.0722 27.6886 21.478L27.9335 21.9139ZM30.1102 20.706C30.1051 20.7088 30.1004 20.7105 30.1224 20.7015C30.1363 20.6957 30.1688 20.6825 30.2018 20.6616C30.2367 20.6394 30.2826 20.6024 30.3163 20.5427C30.3514 20.4806 30.3625 20.4136 30.3578 20.3503L29.8591 20.3876C29.8576 20.3666 29.8609 20.3323 29.8811 20.2965C29.9001 20.263 29.924 20.2456 29.9338 20.2394C29.9417 20.2345 29.9458 20.2335 29.9319 20.2392C29.9278 20.2409 29.9167 20.2453 29.9075 20.2494C29.8974 20.2537 29.8826 20.2604 29.8664 20.2694L30.1102 20.706ZM31.239 28.3982C31.8086 27.9905 32.2953 27.5248 32.7114 26.9791L32.3138 26.6759C31.9296 27.1798 31.4795 27.6112 30.948 27.9917L31.239 28.3982ZM32.7114 26.9791C33.3105 26.1934 33.6191 25.089 33.4706 24.0261C33.3207 22.9531 32.7041 21.9231 31.4632 21.3149L31.2431 21.7638C32.3248 22.2941 32.8468 23.1752 32.9754 24.0953C33.1054 25.0253 32.8324 25.9958 32.3138 26.6759L32.7114 26.9791ZM31.4632 21.3149C31.3586 21.2636 31.2408 21.2171 31.1081 21.2117C30.9689 21.2061 30.8413 21.2465 30.7162 21.3189L30.9665 21.7517C31.0315 21.7141 31.0659 21.7104 31.088 21.7113C31.1168 21.7125 31.1598 21.723 31.2431 21.7638L31.4632 21.3149ZM30.7161 21.3189C29.9872 21.7408 29.2977 22.1743 28.5585 22.5034L28.7618 22.9601C29.5329 22.6169 30.2593 22.161 30.9666 21.7517L30.7161 21.3189ZM28.5585 22.5033C28.2297 22.6497 27.9984 22.8464 27.8528 23.1064C27.7104 23.3607 27.6644 23.6503 27.6564 23.9553L28.1563 23.9684C28.1633 23.6995 28.2037 23.5033 28.2891 23.3507C28.3713 23.2039 28.5095 23.0725 28.7618 22.9601L28.5585 22.5033ZM27.6564 23.9553C27.645 24.3919 27.7037 24.8048 27.8723 25.1753C28.0422 25.5488 28.3175 25.8652 28.7159 26.1149L28.9814 25.6913C28.6608 25.4903 28.4542 25.2471 28.3274 24.9682C28.1991 24.6863 28.1462 24.354 28.1563 23.9684L27.6564 23.9553ZM28.7159 26.1149C29.0212 26.3063 29.3455 26.5266 29.6777 26.7128L29.9222 26.2766C29.6037 26.0981 29.309 25.8966 28.9815 25.6913L28.7159 26.1149ZM29.6778 26.7128C30.183 26.9958 30.5206 27.4123 30.7309 27.956L31.1973 27.7756C30.9495 27.1351 30.5393 26.6223 29.9221 26.2766L29.6778 26.7128ZM30.731 27.956C30.7719 28.0619 30.8143 28.1683 30.8609 28.2865L31.3261 28.1034C31.2785 27.9824 31.2375 27.8797 31.1972 27.7755L30.731 27.956ZM24.1137 17.861C23.6325 17.0409 23.1667 16.2634 22.7193 15.4735L22.2843 15.72C22.7342 16.5142 23.2043 17.2991 23.6824 18.114L24.1137 17.861ZM22.7193 15.4735C22.6496 15.3506 22.5624 15.2387 22.4341 15.163C22.3052 15.087 22.1633 15.0641 22.0159 15.0649L22.0184 15.5649C22.1144 15.5644 22.1566 15.5798 22.1801 15.5936C22.2041 15.6078 22.2375 15.6375 22.2843 15.72L22.7193 15.4735ZM22.0159 15.0649C19.7587 15.0762 17.5025 15.0705 15.2434 15.0727L15.2439 15.5727C17.5005 15.5705 19.76 15.5762 22.0184 15.5649L22.0159 15.0649ZM15.2434 15.0727C15.1607 15.0727 15.0716 15.0668 14.9731 15.0593C14.8776 15.052 14.7714 15.0431 14.6681 15.0397C14.4683 15.0331 14.2249 15.0433 14.0185 15.1628L14.269 15.5955C14.3456 15.5512 14.4655 15.5333 14.6515 15.5394C14.7412 15.5424 14.8336 15.5501 14.9352 15.5579C15.0336 15.5653 15.1399 15.5727 15.2438 15.5727L15.2434 15.0727ZM14.0185 15.1628C13.8117 15.2825 13.6824 15.4896 13.5894 15.6657C13.5414 15.7567 13.4962 15.8535 13.4552 15.9392C13.4127 16.0279 13.3735 16.1075 13.3321 16.1782L13.7635 16.4309C13.8164 16.3406 13.8634 16.2444 13.9062 16.1551C13.9504 16.0627 13.9895 15.9789 14.0316 15.8992C14.1188 15.734 14.1932 15.6394 14.269 15.5955L14.0185 15.1628ZM13.3321 16.1782C13.0088 16.7301 12.6893 17.2851 12.3547 17.8621L12.7872 18.1129C13.1229 17.5341 13.4409 16.9816 13.7635 16.4309L13.3321 16.1782ZM12.571 18.2375H23.8981V17.7375H12.571V18.2375ZM5.37969 25.332C6.20284 24.857 6.9647 24.4164 7.72811 23.9781L7.47916 23.5445C6.71511 23.9831 5.95238 24.4242 5.12978 24.8989L5.37969 25.332ZM7.72814 23.9781C7.88322 23.889 7.95752 23.7458 7.99768 23.6768L7.5656 23.4252C7.53902 23.4708 7.52501 23.495 7.50909 23.5158C7.49613 23.5327 7.48719 23.5398 7.47913 23.5445L7.72814 23.9781ZM7.99769 23.6768C10.1412 19.9951 12.2843 16.3136 14.4329 12.6353L14.0012 12.3831C11.8524 16.0618 9.70907 19.7437 7.56559 23.4252L7.99769 23.6768ZM14.4329 12.6353C14.4747 12.5638 14.5526 12.4286 14.5229 12.2748C14.4905 12.1067 14.354 12.0154 14.2629 11.9629L14.0135 12.3963C14.0298 12.4057 14.0412 12.4131 14.049 12.4187C14.0568 12.4244 14.0592 12.4269 14.0585 12.4262C14.0576 12.4253 14.0525 12.4199 14.0467 12.4097C14.0405 12.3989 14.035 12.3852 14.032 12.3696C14.029 12.3541 14.0293 12.3412 14.0303 12.3326C14.0312 12.3245 14.0327 12.321 14.0319 12.3234C14.031 12.3258 14.0287 12.3318 14.0234 12.3425C14.0182 12.3531 14.011 12.3663 14.0012 12.3831L14.4329 12.6353ZM14.2629 11.963C13.5812 11.5706 12.9065 11.1651 12.2366 10.7508L11.9737 11.1761C12.6471 11.5925 13.3264 12.0008 14.0135 12.3963L14.2629 11.963ZM12.2367 10.7509C12.159 10.7028 12.0176 10.6181 11.8558 10.6513C11.6847 10.6864 11.5912 10.8288 11.5365 10.9236L11.9697 11.1733C11.9803 11.1548 11.989 11.1414 11.9958 11.1318C12.0027 11.1221 12.0066 11.1181 12.0072 11.1175C12.0077 11.117 12.0035 11.1213 11.9945 11.1266C11.9848 11.1324 11.9718 11.138 11.9562 11.1411C11.9408 11.1443 11.9277 11.1441 11.9188 11.1431C11.9105 11.1421 11.907 11.1406 11.9097 11.1415C11.9124 11.1425 11.9189 11.1451 11.9303 11.1511C11.9417 11.157 11.9558 11.1651 11.9737 11.1761L12.2367 10.7509ZM11.5365 10.9236C9.40969 14.6144 7.27484 18.3006 5.14126 21.9881L5.57404 22.2385C7.70747 18.5513 9.84263 14.8646 11.9697 11.1733L11.5365 10.9236ZM5.14123 21.9881C5.09685 22.0648 5.00276 22.2101 5.0033 22.4017L5.50329 22.4003C5.5032 22.3675 5.51453 22.3414 5.57407 22.2384L5.14123 21.9881ZM5.0033 22.4017C5.00592 23.2851 5.00473 24.1683 5.00473 25.1155H5.50473C5.50473 24.1692 5.50592 23.2846 5.50329 22.4003L5.0033 22.4017ZM18.5409 1.08528C18.3752 1.09246 18.2012 1.15839 18.0539 1.23936L18.2946 1.67758C18.4067 1.61599 18.5034 1.58738 18.5626 1.58481L18.5409 1.08528ZM18.0539 1.23932C17.6864 1.4411 17.2753 1.66157 16.9047 1.86532L17.1456 2.30347C17.5395 2.08693 17.8975 1.89562 18.2946 1.67761L18.0539 1.23932ZM16.9047 1.86532C16.6402 2.01076 16.4338 2.2056 16.3577 2.47046C16.2812 2.73685 16.3548 3.01003 16.5078 3.27051L16.9389 3.01721C16.8237 2.82109 16.8139 2.69329 16.8383 2.60849C16.8631 2.52215 16.9417 2.41557 17.1456 2.30347L16.9047 1.86532ZM16.5078 3.27051C19.0502 7.59732 21.5954 11.9218 24.1331 16.2508L24.5645 15.998C22.0265 11.6687 19.481 7.3436 16.9389 3.01721L16.5078 3.27051ZM24.1331 16.2508C24.1939 16.3545 24.2915 16.492 24.4634 16.5263C24.6231 16.5582 24.7652 16.4811 24.8508 16.4317L24.6009 15.9986C24.5819 16.0096 24.5666 16.0178 24.554 16.0238C24.5414 16.0299 24.5334 16.033 24.5291 16.0344C24.5205 16.0372 24.535 16.0308 24.5614 16.036C24.5741 16.0386 24.5851 16.0431 24.5934 16.0478C24.6013 16.0522 24.6047 16.0556 24.6038 16.0548C24.6028 16.0539 24.5987 16.0496 24.5915 16.0399C24.5844 16.0302 24.5754 16.0166 24.5645 15.998L24.1331 16.2508ZM24.8509 16.4317C25.4967 16.0588 26.1458 15.6947 26.8042 15.3518L26.5733 14.9083C25.9059 15.2559 25.2499 15.6239 24.6009 15.9987L24.8509 16.4317ZM26.8042 15.3518C26.9118 15.2958 27.073 15.2037 27.1245 15.0269C27.1763 14.8491 27.089 14.6843 27.025 14.5759L26.5945 14.8303C26.6242 14.8805 26.6359 14.9082 26.64 14.9216C26.6433 14.9323 26.6361 14.9156 26.6444 14.887C26.6528 14.8585 26.6677 14.8484 26.6591 14.8558C26.6546 14.8596 26.646 14.8662 26.6312 14.8756C26.6165 14.8849 26.5976 14.8956 26.5733 14.9083L26.8042 15.3518ZM27.0249 14.5759C25.6187 12.1975 24.2253 9.8118 22.8278 7.42697L22.3964 7.67976C23.7934 10.0638 25.1877 12.4509 26.5945 14.8303L27.0249 14.5759ZM22.8278 7.42697C21.7089 5.51747 20.5889 3.60927 19.4738 1.69823L19.0419 1.95023C20.1574 3.86179 21.2778 5.77067 22.3964 7.67976L22.8278 7.42697ZM19.4738 1.69822C19.3906 1.5558 19.2871 1.40505 19.139 1.28879C18.9849 1.16783 18.7961 1.09452 18.5617 1.08524L18.5419 1.58485C18.6753 1.59013 18.762 1.62853 18.8302 1.68207C18.9044 1.74031 18.9699 1.82688 19.0419 1.95025L19.4738 1.69822ZM34.3904 25.1537C34.2829 25.2827 34.2457 25.4248 34.2263 25.5367C34.217 25.5899 34.2102 25.6478 34.2046 25.6885C34.1984 25.7339 34.1926 25.769 34.1845 25.7998L34.6682 25.9265C34.6842 25.8655 34.6932 25.806 34.7 25.7561C34.7075 25.7016 34.7117 25.6635 34.7189 25.6222C34.7323 25.5452 34.7491 25.5043 34.7745 25.4738L34.3904 25.1537ZM34.1845 25.7997C33.9099 26.8467 33.3123 27.6926 32.5114 28.4338L32.8511 28.8008C33.7013 28.0139 34.3632 27.0895 34.6682 25.9266L34.1845 25.7997ZM32.5114 28.4338C31.7209 29.1656 30.7893 29.6908 29.7816 30.2676L30.0299 30.7016C31.0257 30.1316 32.0108 29.5785 32.8511 28.8008L32.5114 28.4338ZM30.1557 30.4846C30.1557 30.1644 30.1518 29.8972 30.1568 29.6265L29.6569 29.6173C29.6517 29.8939 29.6557 30.1743 29.6557 30.4846H30.1557ZM30.1568 29.6265C30.1628 29.299 30.157 28.9508 30.0722 28.6011L29.5863 28.7189C29.6552 29.0031 29.6627 29.2978 29.6569 29.6173L30.1568 29.6265ZM30.0722 28.6011C29.944 28.0726 29.6737 27.6263 29.1385 27.3501L28.9092 27.7944C29.2856 27.9887 29.4834 28.2948 29.5863 28.719L30.0722 28.6011ZM29.1385 27.3501C28.8232 27.1873 28.5292 26.9821 28.2116 26.77L27.934 27.1858C28.2382 27.389 28.5622 27.6153 28.9092 27.7944L29.1385 27.3501ZM28.2116 26.77C27.6297 26.3813 27.254 25.9117 27.043 25.3815C26.8312 24.849 26.7792 24.2398 26.8709 23.5654L26.3755 23.498C26.275 24.2363 26.3276 24.9359 26.5785 25.5663C26.8302 26.1989 27.2755 26.746 27.934 27.1858L28.2116 26.77ZM26.8709 23.5654C26.9507 22.9789 26.8769 22.4843 26.5463 21.9692L26.1255 22.2392C26.3811 22.6375 26.4421 23.0078 26.3755 23.4981L26.8709 23.5654ZM26.5463 21.9692C26.0119 21.1365 25.5308 20.2719 25.0279 19.4036L24.5952 19.6542C25.0923 20.5125 25.5829 21.3939 26.1255 22.2392L26.5463 21.9692ZM25.0279 19.4037C24.9717 19.3066 24.8985 19.2143 24.7901 19.1507C24.6812 19.0868 24.5631 19.0673 24.4452 19.0675L24.4459 19.5675C24.5092 19.5674 24.5303 19.578 24.5371 19.582C24.5445 19.5863 24.5637 19.5998 24.5952 19.6541L25.0279 19.4037ZM24.4452 19.0675C20.3101 19.0733 16.1749 19.0736 12.0398 19.0668L12.039 19.5668C16.1747 19.5736 20.3103 19.5733 24.4459 19.5675L24.4452 19.0675ZM12.0398 19.0668C11.911 19.0666 11.7871 19.0899 11.6749 19.1599C11.5652 19.2282 11.4926 19.3253 11.4365 19.4222L11.8693 19.6727C11.9057 19.6097 11.9281 19.5912 11.9394 19.5842C11.9481 19.5787 11.9712 19.5667 12.039 19.5668L12.0398 19.0668ZM11.4365 19.4222C10.479 21.0768 9.52898 22.6992 8.57036 24.355L9.00307 24.6056C9.95005 22.9699 10.9218 21.31 11.8693 19.6727L11.4365 19.4222ZM8.57033 24.3551C8.50836 24.4622 8.4396 24.5326 8.34189 24.5888L8.59104 25.0223C8.77269 24.9179 8.90175 24.7806 9.0031 24.6055L8.57033 24.3551ZM8.34193 24.5888C6.9095 25.4117 5.477 26.2356 4.04837 27.0665L4.29976 27.4987C5.72711 26.6685 7.15858 25.8452 8.591 25.0223L8.34193 24.5888ZM4.04839 27.0665C3.99875 27.0954 3.97229 27.1088 3.9578 27.1145C3.95149 27.117 3.95667 27.1142 3.96995 27.1124C3.98402 27.1106 4.01443 27.1091 4.05144 27.1227C4.09123 27.1373 4.12063 27.1627 4.1391 27.1878C4.15532 27.2098 4.15991 27.227 4.16018 27.228C4.16061 27.2295 4.15902 27.2241 4.1576 27.2077C4.15623 27.192 4.15536 27.1702 4.15552 27.1407L3.65553 27.1379C3.65511 27.2123 3.65896 27.291 3.67805 27.3604C3.69726 27.4304 3.74791 27.5439 3.87917 27.5921C3.99118 27.6332 4.09378 27.5982 4.1397 27.5802C4.19428 27.5589 4.25085 27.5272 4.29975 27.4987L4.04839 27.0665ZM4.15552 27.1408C4.1651 25.4834 4.16234 23.8262 4.15703 22.1697L3.65703 22.1713C3.66234 23.8274 3.66509 25.4828 3.65553 27.1379L4.15552 27.1408ZM4.15703 22.1698C4.1567 22.06 4.1867 21.967 4.25057 21.8578L3.81896 21.6054C3.7224 21.7705 3.65636 21.9506 3.65703 22.1713L4.15703 22.1698ZM4.25058 21.8578C4.65999 21.1576 5.06635 20.4557 5.4724 19.7544L5.03969 19.5039C4.63355 20.2053 4.22773 20.9063 3.81895 21.6054L4.25058 21.8578ZM5.47238 19.7544C5.52595 19.6619 5.57671 19.5577 5.64382 19.43L5.20128 19.1973C5.12345 19.3453 5.0868 19.4225 5.03971 19.5038L5.47238 19.7544ZM5.42255 19.0637H2.58246V19.5637H5.42255V19.0637ZM2.83246 19.3137V14.0011H2.33246V19.3137H2.83246ZM2.58268 14.2511C4.4583 14.2495 6.33185 14.2435 8.20573 14.252L8.208 13.752C6.33232 13.7435 4.45631 13.7495 2.58224 13.7511L2.58268 14.2511ZM8.20576 14.252C8.34036 14.2526 8.47582 14.2345 8.60128 14.1643C8.72781 14.0936 8.81497 13.9863 8.88482 13.8644L8.45102 13.6158C8.40669 13.6931 8.37625 13.7173 8.35725 13.7279C8.33719 13.7391 8.29921 13.7524 8.20797 13.752L8.20576 14.252ZM8.8848 13.8645C10.0162 11.891 11.1594 9.92456 12.3003 7.9551L11.8677 7.70447C10.7273 9.67302 9.58315 11.6411 8.45103 13.6158L8.8848 13.8645ZM12.3003 7.9551C12.6181 7.4066 13.0151 7.08779 13.4452 6.96873C13.8751 6.8497 14.3783 6.91916 14.9305 7.22659L15.1737 6.78973C14.5363 6.43484 13.8975 6.3247 13.3118 6.48685C12.7261 6.64898 12.234 7.07214 11.8677 7.70446L12.3003 7.9551ZM14.9305 7.22659C15.3127 7.43934 15.6925 7.64924 16.0685 7.86585L16.3181 7.43258C15.938 7.21364 15.5539 7.00139 15.1737 6.78972L14.9305 7.22659ZM16.0685 7.86583C16.9827 8.39256 17.2642 9.39592 16.741 10.3198L17.1761 10.5662C17.836 9.40085 17.4679 8.09507 16.3181 7.4326L16.0685 7.86583ZM16.741 10.3199C16.1275 11.4032 15.492 12.4711 14.8632 13.5517L15.2954 13.8032C15.9208 12.7284 16.5608 11.6528 17.1761 10.5662L16.741 10.3199ZM14.8632 13.5518C14.81 13.6432 14.7581 13.7401 14.6955 13.8527L15.1325 14.0956C15.2004 13.9736 15.2453 13.8893 15.2954 13.8032L14.8632 13.5518ZM14.914 14.2241H21.5032V13.7241H14.914V14.2241ZM21.7531 13.9783C21.7552 13.8514 21.7086 13.7529 21.6678 13.6854C21.6482 13.6529 21.6268 13.6226 21.612 13.6015C21.5953 13.5777 21.5851 13.5627 21.5771 13.5492L21.146 13.8024C21.1656 13.8358 21.1871 13.8664 21.2024 13.8883C21.2197 13.9129 21.2306 13.9286 21.2397 13.9438C21.2565 13.9715 21.2531 13.9752 21.2532 13.97L21.7531 13.9783ZM21.5771 13.5492C19.6671 10.2964 17.7547 7.04502 15.8426 3.79356L15.4116 4.04701C17.3237 7.29854 19.236 10.5498 21.146 13.8024L21.5771 13.5492ZM15.8426 3.79356C15.5072 3.22305 15.428 2.69943 15.5496 2.25585C15.6712 1.81257 16.0051 1.40603 16.582 1.09283L16.3434 0.653407C15.6778 1.01478 15.2333 1.51859 15.0674 2.12363C14.9016 2.72837 15.0259 3.39105 15.4116 4.04701L15.8426 3.79356ZM16.582 1.09282C16.9377 0.899704 17.2942 0.706507 17.6501 0.513042L17.4113 0.0737468C17.0554 0.26718 16.6996 0.460006 16.3434 0.653412L16.582 1.09282ZM17.6501 0.513032C18.1374 0.248092 18.6215 0.191429 19.0452 0.306682C19.4686 0.421841 19.8552 0.714999 20.1367 1.19336L20.5676 0.939773C20.228 0.362666 19.7403 -0.0224045 19.1764 -0.175787C18.6129 -0.329074 17.9968 -0.244589 17.4113 0.0737569L17.6501 0.513032ZM20.1367 1.19336C22.155 4.62318 24.1665 8.05683 26.1807 11.4895L26.612 11.2365C24.598 7.80419 22.5861 4.36996 20.5676 0.939776L20.1367 1.19336ZM26.1807 11.4895C26.6447 12.2803 27.1113 13.0626 27.5612 13.8558L27.9961 13.6091C27.5438 12.8117 27.0735 12.0231 26.612 11.2365L26.1807 11.4895ZM27.5612 13.8558C27.628 13.9736 27.7122 14.082 27.8363 14.1558C27.9611 14.23 28.0984 14.2528 28.2404 14.2522L28.2384 13.7522C28.1498 13.7526 28.1121 13.7381 28.0919 13.726C28.0709 13.7135 28.04 13.6866 27.9961 13.6091L27.5612 13.8558ZM28.2404 14.2522C30.3539 14.2436 32.4672 14.2495 34.5823 14.2511L34.5827 13.7511C32.469 13.7495 30.3535 13.7436 28.2384 13.7522L28.2404 14.2522ZM34.3325 14.0011V19.3137H34.8325V14.0011H34.3325ZM34.5825 19.0637H31.0841V19.5637H34.5825V19.0637ZM30.8572 19.4186C31.0997 19.9431 31.3929 20.3726 31.9449 20.6572L32.174 20.2129C31.7614 20.0001 31.5304 19.6834 31.311 19.2088L30.8572 19.4186ZM31.9449 20.6573C33.0948 21.2502 33.8813 22.1462 34.1911 23.4185L34.6769 23.3002C34.3285 21.8695 33.4355 20.8633 32.174 20.2129L31.9449 20.6573ZM34.1911 23.4185C34.2124 23.5059 34.2117 23.5622 34.2333 23.6961C34.2516 23.8091 34.2847 23.9494 34.3777 24.0821L34.7872 23.7953C34.7582 23.7538 34.7406 23.7011 34.7269 23.6164C34.7166 23.5526 34.7027 23.4064 34.6769 23.3002L34.1911 23.4185ZM34.3325 23.9387V24.2513H34.8325V23.9387H34.3325ZM34.3462 24.1696C34.2361 24.4884 34.224 24.8196 34.3484 25.1515L34.8166 24.976C34.7379 24.7662 34.7418 24.5557 34.8188 24.3329L34.3462 24.1696ZM34.3325 25.0638V25.3137H34.8325V25.0638H34.3325Z" fill="#020202"/>
</g>
<path fill-rule="evenodd" clip-rule="evenodd" d="M34.6093 25.064C34.4705 24.7931 34.4815 24.5223 34.6093 24.2515V25.064Z" fill="#3C3C3C"/>
<path fill-rule="evenodd" clip-rule="evenodd" d="M5.73468 18.6836L11.0174 19.9951C11.0174 19.9951 12.0737 24.412 9.92619 26.114C8.66923 27.1102 6.6844 28.4879 2.55087 26.8551C2.55087 26.8551 4.12977 25.2806 3.59264 22.8963C3.0555 20.5119 5.73468 18.6836 5.73468 18.6836Z" fill="#0091FF"/>
</svg>
