<svg width="26" height="26" viewBox="0 0 26 26" fill="none" xmlns="http://www.w3.org/2000/svg">
<path d="M7.019 11.8945C7.05491 12.5281 7.25305 13.1417 7.59439 13.6766L8.65792 15.3407C9.01872 15.9053 9.51586 16.37 10.1035 16.6918C10.6911 17.0137 11.3504 17.1824 12.0204 17.1825H13.8371C14.5071 17.1825 15.1663 17.0137 15.754 16.6919C16.3416 16.37 16.8387 15.9053 17.1995 15.3407L18.2633 13.6766C18.6045 13.1417 18.8025 12.528 18.8385 11.8945" stroke="black" stroke-width="1.4" stroke-linecap="round" stroke-linejoin="round"/>
<path d="M7.06021 5.45725C7.2224 4.26775 7.81027 3.17737 8.71489 2.38815C9.61951 1.59893 10.7795 1.16439 11.9801 1.16504H13.8795C15.0797 1.16479 16.2393 1.59952 17.1436 2.38871C18.0478 3.17789 18.6354 4.26805 18.7975 5.45725" stroke="black" stroke-width="1.4" stroke-linecap="round" stroke-linejoin="round"/>
<path d="M5.95319 6.04873V11.2576C5.95319 11.4057 6.0087 11.5485 6.10877 11.6577C6.20884 11.7669 6.3462 11.8346 6.49376 11.8475L9.80335 12.1372C10.0022 12.1545 10.2024 12.1268 10.389 12.0562C10.5757 11.9855 10.744 11.8736 10.8814 11.7289L12.2309 10.3086C12.3208 10.2139 12.4291 10.1386 12.5491 10.0871C12.669 10.0356 12.7982 10.009 12.9288 10.009C13.0594 10.009 13.1886 10.0356 13.3085 10.0871C13.4285 10.1386 13.5367 10.2139 13.6267 10.3086L14.9762 11.7289C15.1136 11.8737 15.2819 11.9855 15.4686 12.0562C15.6552 12.1269 15.8554 12.1546 16.0542 12.1372L19.3638 11.8475C19.5114 11.8346 19.6488 11.7669 19.7488 11.6577C19.8489 11.5485 19.9044 11.4057 19.9044 11.2576V6.04873C19.9044 5.89169 19.8419 5.7411 19.7309 5.63005C19.6199 5.51901 19.4693 5.4566 19.3122 5.45654H6.54538C6.38832 5.45654 6.23769 5.51894 6.12664 5.63C6.01558 5.74105 5.95319 5.89167 5.95319 6.04873V6.04873Z" stroke="black" stroke-width="1.4" stroke-linecap="round" stroke-linejoin="round"/>
<path d="M17.7426 6.6875H8.11512C7.94739 6.6875 7.78653 6.75413 7.66792 6.87274C7.54931 6.99134 7.48268 7.15221 7.48268 7.31994C7.48268 7.48768 7.54931 7.64854 7.66792 7.76715C7.78653 7.88575 7.94739 7.95238 8.11512 7.95238H17.7426C17.9103 7.95238 18.0712 7.88575 18.1898 7.76715C18.3084 7.64854 18.375 7.48768 18.375 7.31994C18.375 7.15221 18.3084 6.99134 18.1898 6.87274C18.0712 6.75413 17.9103 6.6875 17.7426 6.6875Z" stroke="#0091FF" stroke-linecap="round" stroke-linejoin="round"/>
<path d="M5.13101 7.31982C5.10287 7.31982 5.07588 7.33101 5.05598 7.35091C5.03608 7.3708 5.0249 7.39779 5.0249 7.42593V10.2964C5.0249 10.3245 5.03608 10.3515 5.05598 10.3714C5.07588 10.3913 5.10287 10.4025 5.13101 10.4025H5.95324V7.31982H5.13101Z" stroke="black" stroke-width="1.4" stroke-linecap="round" stroke-linejoin="round"/>
<path d="M20.7267 10.4033C20.7549 10.4033 20.7819 10.3921 20.8018 10.3722C20.8216 10.3523 20.8328 10.3253 20.8328 10.2972V7.42593C20.8328 7.39779 20.8216 7.3708 20.8018 7.35091C20.7819 7.33101 20.7549 7.31982 20.7267 7.31982H19.9045V10.4033H20.7267Z" stroke="black" stroke-width="1.4" stroke-linecap="round" stroke-linejoin="round"/>
<path d="M9.68212 16.4463V18.4517C9.68208 18.6283 9.62798 18.8006 9.5271 18.9455C9.42621 19.0905 9.28338 19.2011 9.11779 19.2624L2.98366 21.5361C2.50712 21.7127 2.09608 22.031 1.80579 22.4481C1.5155 22.8653 1.3599 23.3613 1.35989 23.8695V24.6931H24.4978V23.8695C24.4978 23.3613 24.3422 22.8653 24.0519 22.4481C23.7616 22.031 23.3505 21.7127 22.874 21.5361L16.7399 19.2624C16.5743 19.2011 16.4314 19.0905 16.3306 18.9455C16.2297 18.8006 16.1756 18.6283 16.1755 18.4517V16.4463" stroke="black" stroke-width="1.4" stroke-linecap="round" stroke-linejoin="round"/>
</svg>
