<svg width="25" height="28" viewBox="0 0 25 28" fill="none" xmlns="http://www.w3.org/2000/svg">
<path fill-rule="evenodd" clip-rule="evenodd" d="M11.5523 20.5581C11.5523 17.155 14.3111 14.3962 17.7142 14.3962C21.1176 14.3962 23.8764 17.155 23.8764 20.5581C23.8764 23.9615 21.1176 26.7203 17.7142 26.7203C14.3111 26.7203 11.5523 23.9615 11.5523 20.5581ZM14.3963 11.0779H15.1071C15.5 11.0779 15.8183 10.7597 15.8183 10.3671C15.8183 9.97419 15.5 9.65592 15.1071 9.65592C14.7145 9.65592 14.3963 9.97419 14.3963 10.3671V11.0779ZM7.76014 11.0779V10.3671C7.76014 9.97419 7.44187 9.65592 7.04931 9.65592C6.6564 9.65592 6.33814 9.97419 6.33814 10.3671C6.33814 10.7597 6.6564 11.0779 7.04931 11.0779H7.76014ZM10.6196 20.0842C10.7601 17.9528 11.8396 16.078 13.4481 14.8693V12.026H8.70826V20.0842H10.6196ZM10.6196 21.0319C10.7752 23.3936 12.0835 25.4402 13.9875 26.6147C13.821 26.6826 13.639 26.7203 13.4481 26.7203H8.70826C7.92279 26.7203 7.28625 26.0838 7.28625 25.2983V21.0323L10.6196 21.0319ZM21.9802 11.0779C21.9802 12.2725 21.7883 13.4216 21.4331 14.4972C23.4673 15.7481 24.8242 17.9946 24.8242 20.5581C24.8242 24.4847 21.6408 27.6681 17.7142 27.6681C16.74 27.6681 15.8119 27.4723 14.9666 27.1178C14.5554 27.4614 14.0255 27.6681 13.4481 27.6681H8.7079C7.39927 27.6681 6.33778 26.6069 6.33778 25.2979V20.8982C2.69212 19.1354 0.175888 15.401 0.175888 11.0779C0.175888 5.0565 5.05696 0.175781 11.078 0.175781C17.0991 0.175781 21.9802 5.05685 21.9802 11.0779ZM1.12401 11.0779C1.12401 5.58073 5.58049 1.1239 11.078 1.1239C16.5756 1.1239 21.032 5.58038 21.032 11.0779C21.032 12.113 20.8743 13.1111 20.581 14.0497C19.704 13.6628 18.7341 13.448 17.7142 13.448C16.5157 13.448 15.3866 13.7445 14.3959 14.268V12.026H15.1071C16.0232 12.026 16.766 11.2832 16.766 10.3671C16.766 9.45066 16.0232 8.7078 15.1071 8.7078C14.1907 8.7078 13.4481 9.45066 13.4481 10.3671V11.0779H8.7079V10.3671C8.7079 9.45066 7.96504 8.7078 7.04896 8.7078C6.13253 8.7078 5.39002 9.45066 5.39002 10.3671C5.39002 11.2832 6.13253 12.026 7.04896 12.026H7.75979V20.0842H6.83244C3.45751 18.4904 1.12366 15.0563 1.12366 11.0779H1.12401Z" fill="black"/>
<mask id="mask0_39_1156" style="mask-type:alpha" maskUnits="userSpaceOnUse" x="0" y="0" width="25" height="28">
<path fill-rule="evenodd" clip-rule="evenodd" d="M0 0H25V27.8442H0V0Z" fill="white"/>
</mask>
<g mask="url(#mask0_39_1156)">
<path fill-rule="evenodd" clip-rule="evenodd" d="M7.04911 9.8322C6.75407 9.8322 6.51396 10.0723 6.51396 10.3673C6.51396 10.662 6.75407 10.9021 7.04911 10.9021H7.58425V10.3673C7.58425 10.0723 7.34414 9.8322 7.04911 9.8322ZM7.93632 11.2542H7.04911C6.55973 11.2542 6.16189 10.8564 6.16189 10.3673C6.16189 9.87797 6.55973 9.48014 7.04911 9.48014C7.53848 9.48014 7.93632 9.87797 7.93632 10.3673V11.2542ZM14.5721 10.9021H15.1072C15.4023 10.9021 15.642 10.662 15.642 10.3673C15.642 10.0723 15.4023 9.8322 15.1072 9.8322C14.8122 9.8322 14.5721 10.0723 14.5721 10.3673V10.9021ZM15.1072 11.2542H14.22V10.3673C14.22 9.87797 14.6179 9.48014 15.1072 9.48014C15.5963 9.48014 15.9941 9.87797 15.9941 10.3673C15.9941 10.8564 15.5963 11.2542 15.1072 11.2542ZM6.87202 19.9084H7.5839V12.202H7.04875C6.03691 12.202 5.21378 11.3792 5.21378 10.3673C5.21378 9.3555 6.03691 8.53202 7.04875 8.53202C8.0606 8.53202 8.88408 9.3555 8.88408 10.3673V10.9021H13.2719V10.3673C13.2719 9.3555 14.0954 8.53202 15.1072 8.53202C16.1191 8.53202 16.9422 9.3555 16.9422 10.3673C16.9422 11.3792 16.1191 12.202 15.1072 12.202H14.5721V13.9827C15.547 13.5169 16.6268 13.2723 17.714 13.2723C18.6688 13.2723 19.5947 13.4532 20.4692 13.8109C20.7262 12.9272 20.8562 12.009 20.8562 11.0782C20.8562 5.6866 16.4697 1.30019 11.0778 1.30019C5.68625 1.30019 1.29984 5.6866 1.29984 11.0782C1.29984 14.8305 3.48583 18.292 6.87202 19.9084ZM7.93597 20.2605L6.75724 20.2436C3.22811 18.5769 0.947767 14.9791 0.947767 11.0782C0.947767 5.49226 5.49191 0.948119 11.0778 0.948119C16.6641 0.948119 21.2082 5.49226 21.2082 11.0782C21.2082 12.1101 21.0537 13.1276 20.7491 14.1021L20.6903 14.2904L20.5097 14.2109C19.6274 13.8215 18.6867 13.6243 17.714 13.6243C16.587 13.6243 15.4681 13.9007 14.4784 14.4239L14.22 14.5601V11.8499H15.1072C15.9247 11.8499 16.5902 11.1848 16.5902 10.3673C16.5902 9.54949 15.9247 8.88409 15.1072 8.88409C14.289 8.88409 13.624 9.54949 13.624 10.3673V11.2542H8.53202V10.3673C8.53202 9.54949 7.86661 8.88409 7.04875 8.88409C6.23125 8.88409 5.56584 9.54949 5.56584 10.3673C5.56584 11.1848 6.23125 11.8499 7.04875 11.8499H7.93597V20.2605ZM8.88444 19.9084H10.4568C10.636 17.8844 11.6545 16.0282 13.2723 14.7823V12.202H8.88444V19.9084ZM10.7842 20.2605H8.53237V11.8499H13.6243V14.9576L13.5543 15.0104C11.9333 16.2279 10.9282 18.0815 10.7955 20.0957L10.7842 20.2605ZM11.7281 20.5583C11.7281 23.8589 14.4137 26.5442 17.7143 26.5442C21.0149 26.5442 23.7005 23.8589 23.7005 20.5583C23.7005 17.2577 21.0149 14.5721 17.7143 14.5721C14.4137 14.5721 11.7281 17.2577 11.7281 20.5583ZM11.376 20.5583C11.376 17.0633 14.2193 14.22 17.7143 14.22C21.2093 14.22 24.0526 17.0633 24.0526 20.5583C24.0526 24.0533 21.2093 26.8962 17.7143 26.8962C14.2193 26.8962 11.376 24.0533 11.376 20.5583ZM7.46243 21.2086V25.2986C7.46243 25.9854 8.02152 26.5445 8.7084 26.5445H13.4483C13.4831 26.5445 13.5184 26.5431 13.5532 26.5403C11.7876 25.3091 10.6472 23.3523 10.4568 21.2082L7.46243 21.2086ZM13.4483 26.8966H8.7084C7.82718 26.8966 7.11037 26.1798 7.11037 25.2986V20.8562H10.7842L10.7955 21.0206C10.9423 23.2516 12.1699 25.2869 14.0799 26.465L14.3742 26.6466L14.0539 26.7776C13.862 26.8565 13.6578 26.8966 13.4483 26.8966ZM14.9358 26.9142L15.0347 26.9554C15.8839 27.3117 16.7848 27.4923 17.714 27.4923C21.5374 27.4923 24.6479 24.3814 24.6479 20.558C24.6479 18.1304 23.4118 15.9209 21.341 14.6471L21.2223 14.5742L21.266 14.4422C21.623 13.361 21.8039 12.2294 21.8039 11.0782C21.8039 5.16378 16.9922 0.352068 11.0778 0.352068C5.16378 0.352068 0.352068 5.16378 0.352068 11.0782C0.352068 15.1664 2.7317 18.9589 6.41433 20.7396L6.51361 20.7879V25.2982C6.51361 26.5079 7.49799 27.4923 8.70805 27.4923H13.4479C13.9613 27.4923 14.4605 27.311 14.8538 26.9825L14.9358 26.9142ZM17.714 27.8444C16.7732 27.8444 15.8593 27.668 14.9953 27.3198C14.5527 27.6588 14.0077 27.8444 13.4479 27.8444H8.70805C7.304 27.8444 6.16154 26.7022 6.16154 25.2982V21.0083C2.41448 19.149 0 15.2639 0 11.0782C0 4.96944 4.96944 0 11.0778 0C17.1866 0 22.156 4.96944 22.156 11.0782C22.156 12.2203 21.9835 13.3441 21.6427 14.4211C23.7477 15.7698 25 18.0537 25 20.558C25 24.5758 21.7314 27.8444 17.714 27.8444Z" fill="black"/>
</g>
<path fill-rule="evenodd" clip-rule="evenodd" d="M16.9426 21.9801C16.9426 22.4057 17.2886 22.7522 17.7143 22.7522C18.1399 22.7522 18.486 22.4057 18.486 21.9801C18.486 21.5544 18.1399 21.208 17.7143 21.208C17.2886 21.208 16.9426 21.5544 16.9426 21.9801Z" fill="#0091FF"/>
<path fill-rule="evenodd" clip-rule="evenodd" d="M16.5905 21.9801C16.5905 21.3601 17.0943 20.856 17.7143 20.856C18.3343 20.856 18.8381 21.3601 18.8381 21.9801C18.8381 22.6001 18.3343 23.1043 17.7143 23.1043C17.0943 23.1043 16.5905 22.6001 16.5905 21.9801Z" fill="#0091FF"/>
<path fill-rule="evenodd" clip-rule="evenodd" d="M14.9358 17.4111C14.1433 18.0198 13.5645 18.8863 13.3061 19.8509C13.2856 19.9277 13.2959 20.0083 13.3356 20.077C13.3758 20.146 13.4399 20.1953 13.5166 20.216C13.5941 20.2364 13.6733 20.2255 13.743 20.1861C13.8116 20.1463 13.8613 20.0822 13.8813 20.0055C14.1063 19.1665 14.6098 18.4131 15.2988 17.8843C15.9881 17.3555 16.8458 17.0643 17.7147 17.0643C18.5829 17.0643 19.4405 17.3555 20.1302 17.8839C20.8188 18.4127 21.3223 19.1662 21.5476 20.0055C21.5899 20.1639 21.7529 20.2579 21.9124 20.216C21.9891 20.1953 22.0532 20.146 22.093 20.077C22.1331 20.0083 22.1433 19.9277 22.1226 19.8509C21.8645 18.8859 21.2857 18.0195 20.4928 17.4111C19.7003 16.8031 18.7135 16.4683 17.7143 16.4683C16.7151 16.4683 15.7283 16.8031 14.9358 17.4111Z" fill="#0091FF"/>
<path fill-rule="evenodd" clip-rule="evenodd" d="M13.4254 20.5558C13.2582 20.5111 13.1177 20.4033 13.0307 20.253C12.9441 20.1027 12.9212 19.9277 12.966 19.7598C13.2444 18.7208 13.8676 17.7875 14.7214 17.1319C15.5755 16.4771 16.6384 16.1162 17.7147 16.1162C18.7906 16.1162 19.8531 16.4771 20.7072 17.1319C21.561 17.7875 22.1845 18.7208 22.463 19.7598C22.5077 19.9277 22.4848 20.1027 22.3982 20.253C22.3113 20.4033 22.1708 20.5111 22.0032 20.5558C21.6568 20.6484 21.3005 20.4424 21.2072 20.0963C21.0023 19.3316 20.5435 18.6451 19.9158 18.1635C19.2877 17.6815 18.5057 17.4164 17.7147 17.4164C16.9232 17.4164 16.1409 17.6815 15.5132 18.1635C14.8851 18.6455 14.4263 19.332 14.2218 20.0963C14.1767 20.2639 14.069 20.404 13.919 20.491C13.8187 20.5487 13.7074 20.5783 13.5951 20.5783C13.5384 20.5783 13.4817 20.5709 13.4254 20.5558Z" fill="#0091FF"/>
<path fill-rule="evenodd" clip-rule="evenodd" d="M15.1372 20.8156C15.0946 20.9744 15.1889 21.1381 15.3477 21.1807C15.5054 21.2233 15.6702 21.1286 15.7124 20.9698C15.83 20.5315 16.0927 20.1382 16.4525 19.8622C17.1739 19.3098 18.2565 19.3102 18.9758 19.8625C19.3352 20.1382 19.5982 20.5315 19.7158 20.9698C19.7584 21.1282 19.9235 21.2229 20.0806 21.1807C20.1573 21.1599 20.2217 21.1106 20.2615 21.0416C20.3017 20.973 20.3119 20.8927 20.2911 20.8156C20.1404 20.2519 19.8021 19.7453 19.338 19.3894C18.8754 19.0341 18.2984 18.8384 17.714 18.8384C17.1302 18.8384 16.5532 19.0341 16.0902 19.3894C15.6265 19.745 15.2882 20.2516 15.1372 20.8156Z" fill="#0091FF"/>
<path fill-rule="evenodd" clip-rule="evenodd" d="M19.3757 21.0614C19.2778 20.697 19.0599 20.3706 18.7614 20.1418C18.1639 19.6834 17.2661 19.683 16.6666 20.1418C16.3684 20.3706 16.1504 20.697 16.0529 21.061C15.9603 21.4071 15.6037 21.6152 15.2565 21.5208C14.9101 21.4279 14.7041 21.0709 14.7967 20.7244C14.9682 20.0861 15.3512 19.5126 15.8755 19.1102C16.4004 18.7078 17.0531 18.4863 17.714 18.4863C18.3755 18.4863 19.0282 18.7078 19.5528 19.1102C20.0774 19.513 20.4604 20.0861 20.6315 20.7244C20.6763 20.8924 20.6534 21.0673 20.5668 21.2177C20.4794 21.3684 20.3393 21.4757 20.1714 21.5208C20.1154 21.5359 20.0591 21.543 20.0038 21.543C19.7169 21.543 19.4535 21.3511 19.3757 21.0614Z" fill="#0091FF"/>
<path fill-rule="evenodd" clip-rule="evenodd" d="M17.7145 16.292C16.671 16.292 15.6567 16.6363 14.8286 17.2714C14.0009 17.9069 13.4059 18.7973 13.1359 19.8053C13.0683 20.0581 13.2183 20.3182 13.471 20.3858C13.7238 20.4534 13.9836 20.3035 14.0516 20.0507C14.2678 19.2444 14.7438 18.5318 15.406 18.0235C16.0682 17.5154 16.8798 17.2401 17.7145 17.2401C18.5489 17.2401 19.3608 17.5154 20.023 18.0235C20.6849 18.5318 21.1613 19.2444 21.3771 20.0507C21.445 20.3035 21.7049 20.4534 21.9576 20.3858C22.2104 20.3182 22.3608 20.0581 22.2928 19.8053C22.0228 18.7973 21.4278 17.9069 20.6001 17.2714C19.7724 16.6363 18.758 16.292 17.7145 16.292Z" fill="#0091FF"/>
<path fill-rule="evenodd" clip-rule="evenodd" d="M17.7142 18.6621C18.3401 18.6621 18.9489 18.8684 19.4456 19.2497C19.9424 19.631 20.2994 20.1654 20.4614 20.7699C20.5293 21.0227 20.379 21.2829 20.1262 21.3505C19.8734 21.4181 19.6136 21.2681 19.5456 21.0153C19.4375 20.6122 19.1995 20.2559 18.8682 20.0021C18.5373 19.7479 18.1317 19.6099 17.7142 19.6099C17.2966 19.6099 16.891 19.7479 16.5601 20.0021C16.2288 20.2559 15.9908 20.6122 15.8827 21.0153C15.8151 21.2681 15.5549 21.4181 15.3022 21.3505C15.0494 21.2829 14.899 21.0227 14.967 20.7699C15.1289 20.1654 15.4863 19.6306 15.9827 19.2497C16.4795 18.8684 17.0882 18.6621 17.7142 18.6621Z" fill="#0091FF"/>
<path fill-rule="evenodd" clip-rule="evenodd" d="M18.6623 21.9803C18.6623 21.4568 18.2377 21.0322 17.7142 21.0322C17.1906 21.0322 16.7664 21.4568 16.7664 21.9803C16.7664 22.5039 17.1906 22.9285 17.7142 22.9285C18.2377 22.9285 18.6623 22.5039 18.6623 21.9803Z" fill="#0091FF"/>
</svg>
