<svg width="29" height="28" viewBox="0 0 29 28" fill="none" xmlns="http://www.w3.org/2000/svg">
<path d="M27.7972 24.9071L25.0086 18.975L20.0398 14.0062L27.1381 6.90798C27.8986 6.14746 27.8986 4.87991 27.1381 4.06869L23.6397 0.570272C22.8791 -0.190253 21.5609 -0.190253 20.8004 0.570272L13.7021 7.66851L7.56723 1.5336C5.89407 -0.139552 3.20688 -0.139552 1.58443 1.5336C0.773201 2.34483 0.316885 3.40957 0.316885 4.525C0.316885 5.64044 0.7732 6.70518 1.53373 7.5164L7.71933 13.702L0.570394 20.8509C-0.190131 21.6115 -0.190131 22.879 0.570394 23.6902L4.06881 27.1887C4.42372 27.5436 4.93074 27.7971 5.48846 27.7971C6.04618 27.7971 6.50249 27.5943 6.9081 27.1887L14.057 20.0397L19.0258 25.0085L24.9579 27.7971C25.2621 27.9492 25.5663 27.9999 25.8705 27.9999C26.4283 27.9999 26.986 27.7971 27.3916 27.3408C28.0507 26.6816 28.2028 25.7183 27.7972 24.9071ZM24.5016 24.5015C24.1467 24.8564 24.0453 25.3127 24.096 25.7183L20.344 23.9437L21.206 21.2059L23.9439 20.3439L25.7184 24.0959C25.3128 23.9944 24.8565 24.1466 24.5016 24.5015ZM4.37302 8.22622L5.74197 6.85728L19.7356 20.8509L19.0765 22.9297L4.37302 8.22622ZM22.9298 19.0764L20.8004 19.7355L6.8574 5.74184L8.22635 4.3729L22.9298 19.0764ZM16.7949 6.80658L17.5048 7.5164C17.6569 7.66851 17.8597 7.71921 18.0625 7.71921C18.2653 7.71921 18.4681 7.66851 18.6202 7.5164C18.9244 7.21219 18.9244 6.75588 18.6202 6.45167L17.9104 5.74184L19.5835 4.06869L21.206 5.69114C21.3581 5.84325 21.5609 5.89395 21.7637 5.89395C21.9665 5.89395 22.1693 5.84325 22.3214 5.69114C22.6256 5.38693 22.6256 4.93062 22.3214 4.62641L20.5976 2.95325L21.8651 1.68571C22.0679 1.4829 22.3721 1.4829 22.5242 1.68571L26.0226 5.18412C26.2254 5.38693 26.2254 5.69114 26.0226 5.84325L18.9244 12.9415L14.7669 8.78394L16.7949 6.80658ZM2.64916 2.59834C3.7139 1.5336 5.43776 1.5336 6.50249 2.59834L7.16161 3.25746L3.30828 7.11079L2.64916 6.45167C2.14215 5.94465 1.83794 5.23483 1.83794 4.525C1.83794 3.81518 2.14215 3.10536 2.64916 2.59834ZM5.84337 26.0732C5.64056 26.276 5.33635 26.276 5.18425 26.0732L1.68583 22.5748C1.48302 22.372 1.48302 22.0678 1.68583 21.9157L3.05478 20.5467L4.67723 22.1692C4.82934 22.3213 5.03214 22.372 5.23495 22.372C5.43776 22.372 5.64056 22.3213 5.79267 22.1692C6.09688 21.865 6.09688 21.4087 5.79267 21.1045L4.17021 19.482L5.84337 17.8088L6.55319 18.5187C6.7053 18.6708 6.9081 18.7215 7.11091 18.7215C7.31372 18.7215 7.51652 18.6708 7.66863 18.5187C7.97284 18.2145 7.97284 17.7581 7.66863 17.4539L6.9588 16.7441L8.93617 14.7667L13.0937 18.9243L5.84337 26.0732Z" fill="black"/>
<path d="M1.26931 1.24947C2.93527 -0.416492 5.63255 -0.416492 7.29852 1.24947L8.32983 2.28079L2.30062 8.31L1.26931 7.27869C0.475991 6.48537 0 5.37472 0 4.26408C0 3.15344 0.475991 2.04279 1.26931 1.24947Z" fill="#0091FF"/>
</svg>
